<svg xmlns="http://www.w3.org/2000/svg" aria-hidden="true" style="position:absolute;width:0;height:0;overflow:hidden"><defs><symbol id="icon-calling" viewBox="0 0 32 32"><path d="M19.77.013a1.307 1.307 0 0 0-1.004.283l.002-.002a1.366 1.366 0 0 0-.515.928v.006a1.375 1.375 0 0 0 1.204 1.519l.006.001c5.17.579 9.233 4.649 9.796 9.773l.004.05a1.372 1.372 0 1 0 2.726-.314l.001.006C31.264 5.77 26.24.733 19.769.012zm.099 5.571a1.365 1.365 0 0 0-1.605 1.079l-.001.009a1.38 1.38 0 0 0 1.075 1.615l.009.002a5.557 5.557 0 0 1 4.385 4.365l.006.035a1.379 1.379 0 0 0 1.618 1.088l-.009.001a1.386 1.386 0 0 0 1.082-1.625l.001.009c-.652-3.332-3.231-5.917-6.507-6.569l-.053-.009zm2.531 15.36c.722-.416 1.538-.886 2.568-.667.931.197 4.109 2.776 4.979 3.669.57.586.888 1.19.936 1.795.086 2.371-3.136 5.078-3.722 5.414a4.48 4.48 0 0 1-2.632.845l-.076-.001h.004c-1.04 0-2.2-.296-3.466-.886C14.127 28.249 3.641 17.969.868 11.158-.284 8.622-.29 6.531.847 4.96c.456-.738 3.045-3.819 5.36-3.722.618.053 1.216.37 1.805.944.89.872 3.405 4.059 3.598 4.995.214 1.04-.256 1.866-.675 2.592a12.3 12.3 0 0 1-.37.588l.028-.044c-.501.768-1.168 1.794-.931 2.448 1.691 4.15 5.597 7.773 9.749 9.474.642.234 1.667-.438 2.434-.941.127-.088.302-.2.48-.308l.056-.032.019-.011z"/></symbol><symbol id="icon-dribble" viewBox="0 0 32 32"><path d="M30.629 16.517a14.598 14.598 0 0 1-1.188 5.782l.036-.095c-1.15 2.654-2.969 4.835-5.248 6.392l-.051.033a14.81 14.81 0 0 1-2.485 1.349c-1.681.726-3.639 1.148-5.695 1.148s-4.014-.422-5.791-1.184l.096.037a14.749 14.749 0 0 1-2.536-1.381l.051.033a14.837 14.837 0 0 1-5.261-6.33l-.037-.095c-.729-1.676-1.154-3.629-1.154-5.68 0-1.043.11-2.06.318-3.041l-.017.095a14.496 14.496 0 0 1 2.236-5.277l-.032.05a14.872 14.872 0 0 1 3.899-3.91l.051-.033a14.303 14.303 0 0 1 5.136-2.182l.094-.017a14.34 14.34 0 0 1 2.944-.297c2.056 0 4.014.421 5.792 1.181l-.096-.037c2.659 1.145 4.844 2.963 6.402 5.243l.033.05a14.344 14.344 0 0 1 2.503 8.134v.037-.002zM10.67 5.234c-3.496 1.674-6.054 4.827-6.883 8.626l-.015.083c.329.002 5.536.069 11.534-1.522a74.159 74.159 0 0 0-4.786-7.396l.146.208zm5.673 9.109c-6.432 1.925-12.606 1.785-12.827 1.776-.002.135-.009.265-.009.398 0 3.207 1.211 6.126 3.2 8.336-.002-.007 3.415-6.062 10.158-8.24.162-.053.329-.103.491-.149a41.368 41.368 0 0 0-1.013-2.121zm7.908-7.189a12.386 12.386 0 0 0-8.228-3.109h-.025.001a12.52 12.52 0 0 0-2.944.347c.187.251 2.533 3.36 4.67 7.278 4.713-1.765 6.491-4.471 6.523-4.517zM18.206 18.53l-.082.027c-7.371 2.567-9.778 7.737-9.806 7.794a12.397 12.397 0 0 0 7.68 2.643c1.762 0 3.439-.365 4.958-1.024l-.081.031c-.665-3.608-1.589-6.786-2.792-9.823l.123.351zm4.772 8.334c2.806-1.907 4.775-4.866 5.343-8.298l.01-.073c-1.534-.468-3.297-.738-5.123-.738-.939 0-1.862.071-2.763.209l.101-.013c.958 2.503 1.8 5.494 2.38 8.577l.052.335zm-4.29-13.335c.292.564.661 1.372 1.003 2.194l.096.261c4.293-.539 8.519.368 8.699.405a12.353 12.353 0 0 0-2.855-7.815l.016.02c-.023.032-2.027 2.923-6.96 4.935z"/></symbol><symbol id="icon-facebook" viewBox="0 0 17 32"><path d="M11.195 31.528V17.337h4.582l.686-5.531h-5.268V8.275c0-1.602.427-2.693 2.636-2.693l2.818-.002V.634C16.161.567 14.49.416 12.544.416c-4.061 0-6.842 2.577-6.842 7.31v4.079H1.108v5.531h4.594v14.191h5.493z"/></symbol><symbol id="icon-instagram" viewBox="0 0 32 32"><path d="M28.846 15.998H28.8c0-1.298.024-2.598-.008-3.895-.03-1.224-.076-2.45-.201-3.668-.119-1.164-.529-2.237-1.315-3.141-1.099-1.266-2.551-1.8-4.157-1.897a107.73 107.73 0 0 0-5.464-.161h-.031a169.037 169.037 0 0 0-5.47.021c-1.224.024-2.45.076-3.668.201-1.164.119-2.237.529-3.142 1.314-1.265 1.1-1.798 2.551-1.897 4.157a107.848 107.848 0 0 0-.161 5.466v.03a174.705 174.705 0 0 0 .026 5.65l-.003-.18a44.92 44.92 0 0 0 .2 3.668c.119 1.163.529 2.235 1.315 3.141 1.1 1.266 2.551 1.8 4.157 1.897 1.829.111 3.663.14 5.495.162 1.824.023 3.648.023 5.47-.024 1.347-.034 2.706-.061 4.032-.268 2.264-.355 3.797-1.669 4.407-3.916.198-.73.302-1.499.329-2.255.079-2.098.094-4.201.134-6.301zM.463 21.134V10.865c.018-.096.047-.194.05-.291C.55 9.37.604 8.166.899 6.99c.666-2.651 2.205-4.582 4.736-5.678C7.006.718 8.466.546 9.944.486c.325-.014.648-.046.971-.07h10.266c.098.017.195.046.293.049 1.204.037 2.408.091 3.582.386 2.654.666 4.587 2.205 5.681 4.736.594 1.373.765 2.831.826 4.309.014.325.046.648.07.971v10.266c-.017.098-.046.195-.05.293-.035 1.204-.09 2.408-.384 3.584-.667 2.653-2.206 4.585-4.738 5.679-1.371.594-2.83.765-4.308.826-.325.014-.648.046-.972.07H10.915c-.098-.017-.194-.046-.291-.049-1.204-.037-2.408-.091-3.584-.386-2.654-.666-4.585-2.205-5.679-4.736-.594-1.373-.766-2.831-.826-4.309-.015-.325-.046-.648-.072-.972z"/><path d="M16.044 21.184c2.836 0 5.186-2.321 5.189-5.126.003-2.889-2.301-5.24-5.135-5.242-2.897-.003-5.233 2.304-5.233 5.172v.006a5.19 5.19 0 0 0 5.18 5.19zm8.012-5.178a8.003 8.003 0 0 1-8.003 8.003h-.029.002a8.005 8.005 0 0 1-7.988-8.005v-.011.001a8.003 8.003 0 0 1 8.003-8.003h.029-.002a8.005 8.005 0 0 1 7.988 8.005v.011-.001zm.294-10.2h.017c1.034 0 1.873.837 1.874 1.871v.008c0 1.038-.841 1.88-1.879 1.882a1.892 1.892 0 0 1-1.88-1.891 1.886 1.886 0 0 1 1.867-1.87h.001z"/></symbol><symbol id="icon-instagram2" viewBox="0 0 32 32"><path d="M16 1.909c-3.973 0-4.471.018-6.03.089s-2.622.32-3.552.679a7.177 7.177 0 0 0-2.59 1.687 7.199 7.199 0 0 0-1.675 2.543l-.017.049c-.359.93-.606 1.993-.674 3.55-.073 1.563-.091 2.059-.091 6.034 0 3.973.018 4.469.089 6.03.071 1.557.318 2.619.679 3.55.375.962.873 1.778 1.687 2.592s1.63 1.314 2.59 1.689c.933.361 1.995.608 3.552.679 1.561.069 2.057.089 6.032.089 3.973 0 4.471-.018 6.03-.091 1.559-.069 2.622-.315 3.552-.677a7.146 7.146 0 0 0 2.59-1.691 7.15 7.15 0 0 0 1.689-2.59c.359-.93.606-1.993.679-3.55.071-1.561.089-2.057.089-6.032 0-3.973-.018-4.471-.089-6.032-.073-1.554-.32-2.619-.679-3.55a7.223 7.223 0 0 0-1.688-2.591l-.001-.001a7.143 7.143 0 0 0-2.541-1.67l-.049-.017c-.933-.361-1.995-.608-3.554-.679s-2.057-.089-6.027-.089zm-1.31 2.64h1.314c3.904 0 4.366.014 5.911.082 1.426.066 2.199.304 2.715.503.683.267 1.17.585 1.682 1.097s.827.999 1.093 1.682c.201.514.439 1.289.503 2.715.073 1.541.087 2.005.087 5.909s-.014 4.366-.085 5.909c-.066 1.426-.304 2.201-.503 2.715a4.543 4.543 0 0 1-1.096 1.681l-.001.001a4.533 4.533 0 0 1-1.649 1.082l-.031.01c-.514.201-1.289.439-2.715.503-1.543.071-2.007.087-5.911.087-3.909 0-4.37-.016-5.913-.085-1.426-.069-2.199-.304-2.715-.505a4.55 4.55 0 0 1-1.681-1.094l-.001-.001a4.54 4.54 0 0 1-1.085-1.649l-.01-.031c-.201-.517-.439-1.289-.503-2.715-.071-1.543-.085-2.007-.085-5.913s.014-4.366.085-5.909c.064-1.426.302-2.201.503-2.715.265-.683.583-1.17 1.095-1.682s.999-.83 1.682-1.097c.517-.199 1.289-.437 2.715-.503 1.349-.062 1.874-.08 4.599-.082v.005zm9.12 2.427a1.755 1.755 0 1 0 0 3.51 1.755 1.755 0 1 0 0-3.51zm-7.805 2.053-.131-.001a7.513 7.513 0 0 0 0 15.026l.138-.001h-.007a7.514 7.514 0 0 0 .002-15.024H16zm0 2.635a4.877 4.877 0 1 1 0 9.754 4.877 4.877 0 1 1 0-9.754z"/></symbol><symbol id="icon-location" viewBox="0 0 29 32"><path d="M.8 13.309C.8 5.949 6.95 0 14.389 0 21.85 0 28 5.949 28 13.309c0 3.709-1.349 7.152-3.568 10.07a35.6 35.6 0 0 1-8.732 8.142l-.134.082c-.778.509-1.48.547-2.334 0-3.464-2.254-6.398-4.984-8.802-8.139l-.062-.085C2.149 20.461.8 17.017.8 13.309zm9.11.414c0 2.464 2.013 4.405 4.48 4.405s4.499-1.939 4.499-4.405c0-2.448-2.032-4.48-4.501-4.48a4.5 4.5 0 0 0-4.478 4.479v.001z"/></symbol><symbol id="icon-menu-open" viewBox="0 0 48 32"><path d="M2.162 0h43.676a2.162 2.162 0 0 1 0 4.324H2.162a2.162 2.162 0 0 1 0-4.324zM2.162 13.838h43.676a2.162 2.162 0 0 1 0 4.324H2.162a2.162 2.162 0 0 1 0-4.324zM2.162 27.676h43.676a2.162 2.162 0 0 1 0 4.324H2.162a2.162 2.162 0 0 1 0-4.324z"/></symbol><symbol id="icon-message" viewBox="0 0 36 32"><path d="M26.56 0h.005a8.99 8.99 0 0 1 8.99 8.977v14.045c0 4.96-4.036 8.978-8.996 8.978H8.99A8.99 8.99 0 0 1 0 23.023V8.978A8.978 8.978 0 0 1 8.978 0H26.56zm2.827 11.627.142-.142c.197-.236.317-.543.317-.878 0-.345-.127-.66-.337-.901l.001.002a1.492 1.492 0 0 0-.936-.462l-.006-.001c-.024-.002-.052-.002-.08-.002-.354 0-.676.136-.917.359l.001-.001-8.018 6.4c-.478.399-1.1.642-1.778.642s-1.299-.242-1.782-.645l.004.004-8-6.4a1.349 1.349 0 0 0-1.778.124 1.356 1.356 0 0 0-.124 1.778l.231.231 8.089 6.311c.945.756 2.157 1.212 3.476 1.212s2.531-.457 3.487-1.221l-.011.009 8.018-6.418z"/></symbol><symbol id="icon-search" viewBox="0 0 32 32"><path fill="none" stroke="#fff" stroke-width="3.765" d="M30.104 11.561c0 5.346-4.343 9.679-9.7 9.679s-9.7-4.333-9.7-9.679 4.343-9.679 9.7-9.679 9.7 4.333 9.7 9.679z" style="stroke:var(--color2, #fff)"/><path fill="#fff" d="m11.713 18.28-9.146 9.126a1.287 1.287 0 0 0 0 1.824l.001.001a1.294 1.294 0 0 0 1.828 0l9.146-9.126a1.287 1.287 0 0 0 0-1.824l-.001-.001a1.294 1.294 0 0 0-1.828 0z" style="fill:var(--color2, #fff)"/></symbol><symbol id="icon-twitter" viewBox="0 0 35 32"><path d="m16.407 8.695.076 1.207-1.222-.145c-4.445-.567-8.326-2.49-11.622-5.722l-1.612-1.6-.416 1.181c-.879 2.639-.32 5.425 1.513 7.299.977 1.036.756 1.181-.928.567-.585-.198-1.097-.346-1.146-.273-.172.175.416 2.415.879 3.305.634 1.233 1.929 2.441 3.345 3.156l1.196.567-1.414.023c-1.367 0-1.417.023-1.271.541.489 1.603 2.417 3.305 4.567 4.044l1.513.518-1.318.788a13.733 13.733 0 0 1-6.545 1.824c-1.097.026-2.001.125-2.001.198 0 .247 2.979 1.629 4.713 2.17 5.201 1.6 11.377.911 16.017-1.824 3.296-1.949 6.595-5.818 8.131-9.565.832-1.999 1.661-5.644 1.661-7.395 0-1.135.073-1.283 1.44-2.639.806-.788 1.565-1.652 1.711-1.9.244-.465.218-.465-1.027-.049-2.074.742-2.368.64-1.341-.465.756-.791 1.658-2.22 1.658-2.639 0-.076-.364.049-.78.271-.601.304-1.314.589-2.053.813l-.096.025-1.318.419-1.196-.815c-.66-.442-1.588-.937-2.077-1.082-1.245-.346-3.151-.297-4.273.099-3.052 1.105-4.98 3.968-4.759 7.098z"/></symbol><symbol id="icon-youtube" viewBox="0 0 27 32"><path d="M22.04 12.253h-1.643v-.957c-.622.719-1.149 1.082-1.723 1.082-.506 0-.856-.241-1.032-.674-.107-.264-.183-.675-.183-1.28V3.463h1.643v7.138c.038.244.142.334.35.334.314 0 .597-.274.945-.77V3.462h1.643v8.792zm-7.43-2.61c.087.869-.181 1.301-.692 1.301-.509 0-.777-.431-.69-1.301V6.161c-.087-.87.183-1.28.692-1.28s.777.41.692 1.28v3.482zm1.643-3.309c0-.94-.187-1.646-.518-2.088-.439-.602-1.125-.849-1.815-.849-.783 0-1.378.247-1.813.847-.338.445-.518 1.158-.518 2.097l-.002 3.125c0 .934.16 1.58.497 2.021a2.28 2.28 0 0 0 1.836.916c.69 0 1.411-.317 1.848-.916.331-.44.483-1.086.483-2.021V6.333zM9.772 7.467v4.785H8.044V7.467S6.254 1.597 5.882.503h1.815L8.91 5.088 10.117.501h1.813L9.772 7.466zM16.616 20.719c-.259 0-.553.137-.814.396l-.003 5.28c.262.264.559.396.817.396.451 0 .655-.334.655-1.204v-3.742c0-.87-.204-1.126-.655-1.126zm6.442 1.047c0-.805-.207-1.047-.725-1.047-.523 0-.744.222-.744 1.036v.962h1.469v-.951z"/><path d="M22.348 26.792c.384 0 .61-.21.698-.632.015-.085.012-.462.012-1.094h1.641v.247c0 .509-.041.869-.055 1.026-.053.35-.175.666-.366.945-.433.631-1.076.942-1.893.942-.818 0-1.44-.296-1.893-.89-.332-.436-.546-1.082-.546-2.007v-3.048c0-.93.194-1.647.526-2.088.453-.594 1.076-.91 1.874-.91.785 0 1.406.315 1.845.91.328.44.509 1.12.509 2.05v1.78h-3.113v1.563c-.005.803.221 1.207.759 1.207zm-3.438-1.291c0 .805-.069 1.371-.172 1.742-.209.646-.664.981-1.288.981-.556 0-1.126-.335-1.649-.987l-.002.876h-1.554V16.448h1.554l-.002 3.803c.504-.626 1.077-.983 1.652-.983.623 0 1.042.363 1.25 1.013.107.35.21.914.21 1.737V25.5zm-5.961 2.613h-1.643v-.958c-.623.719-1.15 1.082-1.725 1.082-.504 0-.855-.239-1.03-.674-.107-.262-.183-.674-.183-1.278v-6.875h1.643v7.049c.038.244.142.332.35.332.314 0 .599-.274.945-.768v-6.615h1.643v8.704zm-6.22 0H5.001V18.103H3.188v-1.65l5.442-.003v1.655h-1.9v10.01zm19.875-10.802s-.253-1.783-1.026-2.568c-.981-1.03-2.082-1.036-2.586-1.097-3.61-.261-9.026-.261-9.026-.261h-.009s-5.416 0-9.026.262c-.503.061-1.603.066-2.584 1.096-.774.785-1.026 2.568-1.026 2.568s-.259 2.094-.259 4.189v1.963c0 2.094.259 4.187.259 4.187s.251 1.783 1.026 2.568c.981 1.032 2.27.998 2.843 1.106 2.065.198 8.773.259 8.773.259s5.42-.008 9.03-.268c.504-.061 1.605-.066 2.586-1.097.773-.785 1.026-2.568 1.026-2.568s.258-2.094.258-4.187v-1.963c0-2.095-.259-4.189-.259-4.189z"/></symbol><symbol id="icon-youtube2" viewBox="0 0 41 32"><path d="M34.909 3.229c1.606.439 2.865 1.734 3.296 3.38.777 2.982.777 9.201.777 9.201s0 6.223-.78 9.204a4.746 4.746 0 0 1-3.257 3.372l-.033.008c-2.903.797-14.548.797-14.548.797s-11.645 0-14.545-.797a4.75 4.75 0 0 1-3.292-3.347l-.007-.033c-.774-2.982-.774-9.204-.774-9.204s0-6.22.777-9.201c.431-1.647 1.69-2.938 3.293-3.38 2.903-.8 14.548-.8 14.548-.8s11.645 0 14.545.8zm-18.036 7.346v11.636l9.309-5.818-9.309-5.818z"/></symbol><symbol id="icon-quots" viewBox="0 0 38 32"><path d="M35.633 1.897v2.062c-2.918 1.066-5.205 2.75-6.86 5.051-1.655 2.273-2.483 4.644-2.483 7.113 0 .533.084.926.253 1.178.112.168.238.253.379.253s.351-.098.631-.295c.898-.645 2.034-.968 3.409-.968 1.599 0 3.016.659 4.251 1.978 1.235 1.291 1.852 2.834 1.852 4.63 0 1.88-.715 3.535-2.146 4.966-1.403 1.431-3.115 2.146-5.135 2.146-2.357 0-4.391-.968-6.103-2.904s-2.567-4.532-2.567-7.786c0-3.788 1.165-7.183 3.493-10.185s6.005-5.415 11.027-7.239zm-20.244 0v2.062c-2.918 1.066-5.205 2.75-6.86 5.051-1.655 2.273-2.483 4.644-2.483 7.113 0 .533.084.926.253 1.178.112.168.239.253.379.253s.351-.098.631-.295c.898-.645 2.034-.968 3.409-.968 1.599 0 3.016.659 4.251 1.978 1.235 1.291 1.852 2.834 1.852 4.63 0 1.88-.715 3.535-2.146 4.966-1.403 1.431-3.114 2.146-5.135 2.146-2.357 0-4.391-.968-6.103-2.904S.87 22.575.87 19.321c0-3.788 1.164-7.183 3.493-10.185s6.005-5.415 11.027-7.239z"/></symbol></defs></svg>