<?xml version="1.0" standalone="no"?>
<!DOCTYPE svg PUBLIC "-//W3C//DTD SVG 1.1//EN" "http://www.w3.org/Graphics/SVG/1.1/DTD/svg11.dtd" >
<svg>
<metadata>
Created by FontForge 20090914 at Sun Jan  1 20:21:19 2023
 By www-data
Copyright 2019 The Manrope Project Authors (https://github.com/sharanda/manrope)
</metadata>
<defs>
<font id="Manrope-Regular" horiz-adv-x="1188" >
  <font-face 
    font-family="Manrope"
    font-weight="400"
    font-stretch="normal"
    units-per-em="2000"
    panose-1="0 0 0 0 0 0 0 0 0 0"
    ascent="1600"
    descent="-400"
    x-height="1080"
    cap-height="1440"
    bbox="-362 -550 2516 2232.76"
    underline-thickness="50"
    underline-position="-75"
    unicode-range="U+000D-U+FB02"
  />
<missing-glyph horiz-adv-x="1480" 
d="M200 0v114h1080v-114h-1080zM200 144v80h1080v-80h-1080zM200 260v74h1080v-74h-1080zM200 374v70h1080v-70h-1080zM200 490v66h1080v-66h-1080zM200 606v60h1080v-60h-1080zM200 720v56h1080v-56h-1080zM200 838v48h1080v-48h-1080zM200 952v44h1080v-44h-1080z
M200 1066v42h1080v-42h-1080zM200 1184v36h1080v-36h-1080zM200 1298v32h1080v-32h-1080zM200 1414v26h1080v-26h-1080z" />
    <glyph glyph-name="parenleft_c_parenright.liga" unicode="&#x28;c&#x29;" horiz-adv-x="1807" 
d="M903 -53c-102 0 -198 19.167 -288 57.5s-169 91.5 -237 159.5s-121.333 147 -160 237s-58 186.333 -58 289s19.333 199 58 289s92 169 160 237s147 121.167 237 159.5s186 57.5 288 57.5c103.333 0 199.833 -19.167 289.5 -57.5s168.5 -91.5 236.5 -159.5
s121.333 -147 160 -237s58 -186.333 58 -289s-19.333 -199 -58 -289s-92 -169 -160 -237s-146.833 -121.167 -236.5 -159.5s-186.167 -57.5 -289.5 -57.5zM912 269c-60.667 0 -115 10.334 -163 31.001s-90 53.667 -126 99c-34.667 44 -58.5 91.333 -71.5 142
s-19.5 101.334 -19.5 152.001c0.666992 52 7.83398 103 21.501 153s36.834 95.667 69.501 137c36 44.667 78.333 77.667 127 99s104.667 32 168 32c36 0 70 -3.83301 102 -11.5s63.667 -20.834 95 -39.501c32 -20 60.333 -45 85 -75s42.334 -64.667 53.001 -104l-123 -37
c-8 20.667 -19.333 40.667 -34 60s-31.667 36 -51 50c-18.667 13.333 -39.5 23.166 -62.5 29.499s-46.167 9.5 -69.5 9.5c-38.667 0 -74 -7.83301 -106 -23.5s-59.333 -37.5 -82 -65.5c-22.667 -29.333 -38.334 -62.833 -47.001 -100.5s-13 -75.167 -13 -112.5
c0 -40.667 4.83301 -80 14.5 -118s24.834 -71 45.501 -99c21.333 -29.333 48.166 -51.666 80.499 -66.999s68.166 -23 107.499 -23c52 0 96.667 12.667 134 38c19.333 14 35.333 29.667 48 47s23.334 36.666 32.001 57.999l126 -34c-14.667 -38 -33.334 -71 -56.001 -99
s-46.334 -50.667 -71.001 -68c-30 -20 -62.167 -35 -96.5 -45s-73.5 -15 -117.5 -15zM903 90.001c83.333 0 161 15.5 233 46.5s135.5 74 190.5 129s98 119 129 192s46.5 150.833 46.5 233.5c0 83.333 -15.5 161 -46.5 233s-74 135.5 -129 190.5s-118.5 98 -190.5 129
s-149.667 46.5 -233 46.5c-82.667 0 -160.5 -15.5 -233.5 -46.5s-137 -74 -192 -129s-98 -118.5 -129 -190.5s-46.5 -149.667 -46.5 -233c0 -82.667 15.5 -160.5 46.5 -233.5s74 -137 129 -192s119 -98 192 -129s150.833 -46.5 233.5 -46.5z" />
    <glyph glyph-name="space_less_three_space.liga" unicode="&#x20;&#x3c;&#x33;&#x20;" horiz-adv-x="2334" 
d="M1167 -30c-37.333 0 -67.998 13.002 -91.998 39.002l-408 430c-46.667 50 -77.834 105 -93.501 165s-18.334 119.667 -8.00098 179s31.666 113.666 63.999 162.999s73.833 89 124.5 119s108 45 172 45c81.333 0 161.666 -30 240.999 -90
c40 31.333 80.5 54.166 121.5 68.499s80.5 21.5 118.5 21.5c64.667 0 122.334 -15.167 173.001 -45.5s92.334 -70.333 125.001 -120s53.834 -104.167 63.501 -163.5s6.5 -118.833 -9.5 -178.5s-47 -114.167 -93 -163.5l-407 -430c-24.667 -26 -55.334 -39 -92.001 -39z
M1167 97.002l408.002 429.004c39.333 41.333 62.666 88.166 69.999 140.499s1.83301 102.666 -16.5 150.999s-46.833 88.166 -85.5 119.499s-84 47 -136 47c-38.667 0 -78.334 -10.667 -119.001 -32s-81 -54 -121 -98c-84.667 86.667 -165 130 -241 130
c-53.333 0 -99 -15.833 -137 -47.5s-65.833 -71.834 -83.5 -120.501s-22.667 -99 -15 -151s30.5 -98.333 68.5 -139z" />
    <glyph glyph-name="prnleft_grtr_prnright.liga" unicode="&#x28;&#x3e;&#x29;" horiz-adv-x="2300" 
d="M1021 1040l384 -320l-384 -320v640zM1153 -127c-118 0 -228.5 22 -331.5 66s-193.167 104.667 -270.5 182s-138 167.5 -182 270.5s-66 213.5 -66 331.5c0 116.667 22 226 66 328s104.667 191.5 182 268.5s167.5 137.5 270.5 181.5s213.5 66 331.5 66
c116.667 0 226 -22 328 -66s191.5 -104.5 268.5 -181.5s137.5 -166.5 181.5 -268.5s66 -211.333 66 -328c0 -118 -22 -228.5 -66 -331.5s-104.5 -193.167 -181.5 -270.5s-166.5 -138 -268.5 -182s-211.333 -66 -328 -66zM1150 -270c136.667 0 264.834 25.667 384.501 77
s224.834 122.333 315.501 213s161.667 195.834 213 315.501s77 247.834 77 384.501s-25.667 264.834 -77 384.501s-122.333 224.834 -213 315.501s-195.834 161.667 -315.501 213s-247.834 77 -384.501 77s-264.834 -25.667 -384.501 -77s-224.834 -122.333 -315.501 -213
s-161.667 -195.834 -213 -315.501s-77 -247.834 -77 -384.501s25.667 -264.834 77 -384.501s122.333 -224.834 213 -315.501s195.834 -161.667 315.501 -213s247.834 -77 384.501 -77z" />
    <glyph glyph-name="f_f" unicode="ff" horiz-adv-x="1325" 
d="M247 0l0.000976562 1160c0 28 1.5 55.667 4.5 83s9.16699 53.5 18.5 78.5s24 48.167 44 69.5c22 24 46 41.5 72 52.5s53.167 18.167 81.5 21.5s56.166 5 83.499 5h138v-124h-128c-56 0 -97.833 -13.667 -125.5 -41s-41.5 -70.333 -41.5 -129v-1176h-147zM60.001 954v126
h629v-126h-629zM863.001 0l0.000976562 1160c0 28 1.5 55.667 4.5 83s9.16699 53.5 18.5 78.5s24 48.167 44 69.5c22 24 46 41.5 72 52.5s53.167 18.167 81.5 21.5s56.166 5 83.499 5h138v-124h-128c-56 0 -97.833 -13.667 -125.5 -41s-41.5 -70.333 -41.5 -129v-1176h-147z
M676.002 954v126h629v-126h-629z" />
    <glyph glyph-name="f_f_l" unicode="ffl" horiz-adv-x="1865" 
d="M1275 954v126h300v-126h-300zM863 0l0.000976562 1160c0 28 1.5 55.667 4.5 83s9.16699 53.5 18.5 78.5s24 48.167 44 69.5c22 24 46 41.5 72 52.5s53.167 18.167 81.5 21.5s56.166 5 83.499 5h138v-124h-128c-56 0 -97.833 -13.667 -125.5 -41s-41.5 -70.333 -41.5 -129
v-1176h-147zM676.001 954v126h629v-126h-629zM1558 0v1470h147v-1470h-147zM247.001 0l0.000976562 1160c0 28 1.5 55.667 4.5 83s9.16699 53.5 18.5 78.5s24 48.167 44 69.5c22 24 46 41.5 72 52.5s53.167 18.167 81.5 21.5s56.166 5 83.499 5h138v-124h-128
c-56 0 -97.833 -13.667 -125.5 -41s-41.5 -70.333 -41.5 -129v-1176h-147zM60.002 954v126h629v-126h-629z" />
    <glyph glyph-name="t_t.liga" unicode="tt" horiz-adv-x="1483" 
d="M728 0c-60.667 -12.667 -120.499 -17.6689 -179.499 -15.002s-111.667 15.334 -158 38.001s-81.5 58 -105.5 106c-19.333 40 -29.833 80.5 -31.5 121.5s-2.5 87.833 -2.5 140.5v989h146v-983c0 -45.333 0.5 -83.166 1.5 -113.499s7.83301 -57.166 20.5 -80.499
c24 -44.667 62.167 -71.334 114.5 -80.001s117.166 -6.66699 194.499 6v-129zM20.001 953.998v126h708v-126h-708zM1409 -0.00195312c-60.667 -12.667 -120.499 -17.6689 -179.499 -15.002s-111.667 15.334 -158 38.001s-81.5 58 -105.5 106
c-19.333 40 -29.833 80.5 -31.5 121.5s-2.5 87.833 -2.5 140.5v989h146v-983c0 -45.333 0.5 -83.166 1.5 -113.499s7.83301 -57.166 20.5 -80.499c24 -44.667 62.167 -71.334 114.5 -80.001s117.166 -6.66699 194.499 6v-129zM701.002 953.996v126h708v-126h-708z" />
    <glyph glyph-name="fi" unicode="fi" horiz-adv-x="1206" 
d="M247 0l0.000976562 1160c0 28 1.5 55.667 4.5 83s9.16699 53.5 18.5 78.5s24 48.167 44 69.5c22 24 46 41.5 72 52.5s53.167 18.167 81.5 21.5s56.166 5 83.499 5h138v-124h-128c-56 0 -97.833 -13.667 -125.5 -41s-41.5 -70.333 -41.5 -129v-1176h-147zM60.001 954v126
h629v-126h-629zM899.001 1285v165h147v-165h-147zM899.001 0v1080h147v-1080h-147z" />
    <glyph glyph-name="fl" unicode="fl" horiz-adv-x="1249" 
d="M659 954v126h300v-126h-300zM247 0l0.000976562 1160c0 28 1.5 55.667 4.5 83s9.16699 53.5 18.5 78.5s24 48.167 44 69.5c22 24 46 41.5 72 52.5s53.167 18.167 81.5 21.5s56.166 5 83.499 5h138v-124h-128c-56 0 -97.833 -13.667 -125.5 -41s-41.5 -70.333 -41.5 -129
v-1176h-147zM60.001 954v126h629v-126h-629zM942.001 0v1470h147v-1470h-147z" />
    <glyph glyph-name="hyphen_hyphen.liga" unicode="&#x2d;&#x2d;" horiz-adv-x="1080" 
d="M120 567v126h840v-126h-840z" />
    <glyph glyph-name="hyphen_greater.liga" unicode="&#x2d;&#x3e;" horiz-adv-x="2002" 
d="M280 567v126h1221l-328 328l80 78l469 -469l-469 -469l-80 78l328 328h-1221z" />
    <glyph glyph-name="less_hyphen.liga" unicode="&#x3c;&#x2d;" horiz-adv-x="2002" 
d="M1722 567h-1221l328 -328l-80 -78l-469 469l469 469l80 -78l-328 -328h1221v-126z" />
    <glyph glyph-name=".notdef" horiz-adv-x="1480" 
d="M200 0v114h1080v-114h-1080zM200 144v80h1080v-80h-1080zM200 260v74h1080v-74h-1080zM200 374v70h1080v-70h-1080zM200 490v66h1080v-66h-1080zM200 606v60h1080v-60h-1080zM200 720v56h1080v-56h-1080zM200 838v48h1080v-48h-1080zM200 952v44h1080v-44h-1080z
M200 1066v42h1080v-42h-1080zM200 1184v36h1080v-36h-1080zM200 1298v32h1080v-32h-1080zM200 1414v26h1080v-26h-1080z" />
    <glyph glyph-name="CR" unicode="&#xd;" horiz-adv-x="1200" 
 />
    <glyph glyph-name="space" unicode=" " horiz-adv-x="400" 
 />
    <glyph glyph-name="exclam" unicode="!" horiz-adv-x="627" 
d="M240 0v165h147v-165h-147zM240 360v1080h147v-1080h-147z" />
    <glyph glyph-name="quotedbl" unicode="&#x22;" horiz-adv-x="784" 
d="M120 1080v360h147v-360h-147zM437 1080v360h147v-360h-147z" />
    <glyph glyph-name="numbersign" unicode="#" horiz-adv-x="1841" 
d="M411 1l116 433h-407l37 141h408l85 321h-407l38 141h408l107 403h147l-109 -403h335l107 403h147l-109 -403h407l-38 -141h-406l-87 -321h407l-38 -141h-406l-116 -433h-146l115 433h-333l-116 -433h-146zM711 575h334l85 321h-333z" />
    <glyph glyph-name="dollar" unicode="$" horiz-adv-x="1178" 
d="M520 -197v228h147v-228h-147zM520 1410v229h147v-229h-147zM611 -30c-95.333 0 -181.164 17 -257.497 51s-139.333 82 -189 144s-82.167 135.333 -97.5 220l143 25c22 -92 69.5 -164.833 142.5 -218.5s161.167 -80.5 264.5 -80.5c104.667 0 189.334 25.5 254.001 76.5
s97 117.833 97 200.5c0 61.333 -18 110.333 -54 147s-97 68 -183 94l-320 100c-193.333 60.667 -290 175.334 -290 344.001c0 78.667 19.5 147.834 58.5 207.501s93.333 106.167 163 139.5s151.167 49.666 244.5 48.999c91.333 0 173.166 -17.167 245.499 -51.5
s131.833 -82.833 178.5 -145.5s77.667 -137 93 -223l-147 -28c-9.33301 61.333 -30.833 115 -64.5 161s-76.834 81.833 -129.501 107.5s-111.334 38.834 -176.001 39.501c-61.333 0 -116 -10.667 -164 -32s-85.833 -50.833 -113.5 -88.5s-41.5 -80.834 -41.5 -129.501
c0 -53.333 19.167 -98.5 57.5 -135.5s99.166 -68.167 182.499 -93.5l275 -83c116 -34.667 199.667 -81.334 251 -140.001s77 -137 77 -235c0 -84.667 -20.667 -158.667 -62 -222s-99.5 -112.5 -174.5 -147.5s-162.833 -52.5 -263.5 -52.5z" />
    <glyph glyph-name="percent" unicode="%" horiz-adv-x="1803" 
d="M280 0l-100 100l1343 1340l100 -99zM1323 -30c-66 0 -126.167 16.165 -180.5 48.498s-97.833 75.666 -130.5 129.999s-49 114.833 -49 181.5c0 65.333 16.667 125.333 50 180s77.333 98.334 132 131.001s114 49 178 49c66 0 126.333 -16.167 181 -48.5
s98.167 -75.666 130.5 -129.999s48.5 -114.833 48.5 -181.5s-16.167 -127.167 -48.5 -181.5s-75.833 -97.666 -130.5 -129.999s-115 -48.5 -181 -48.5zM1323 102.998c40.667 0 78.334 10.333 113.001 31s62.334 48.167 83.001 82.5s31 72.166 31 113.499
s-10.333 79.166 -31 113.499s-48.334 61.833 -83.001 82.5s-72.334 31 -113.001 31c-41.333 0 -79.166 -10.333 -113.499 -31s-62 -48.167 -83 -82.5s-31.5 -72.166 -31.5 -113.499s10.5 -79.166 31.5 -113.499s48.667 -61.833 83 -82.5s72.166 -31 113.499 -31z
M480 749.998c-66 0 -126.333 16.165 -181 48.498s-98.167 75.666 -130.5 129.999s-48.5 114.833 -48.5 181.5c0 65.333 16.667 125.333 50 180s77.333 98.334 132 131.001s114 49 178 49c66 0 126.167 -16.167 180.5 -48.5s97.833 -75.666 130.5 -129.999
s49 -114.833 49 -181.5s-16.333 -127.167 -49 -181.5s-76.167 -97.666 -130.5 -129.999s-114.5 -48.5 -180.5 -48.5zM480 882.996c41.333 0 79.166 10.333 113.499 31s61.833 48.167 82.5 82.5s31 72.166 31 113.499s-10.333 79.166 -31 113.499s-48.167 61.833 -82.5 82.5
s-72.166 31 -113.499 31s-79.166 -10.333 -113.499 -31s-61.833 -48.167 -82.5 -82.5s-31 -72.166 -31 -113.499s10.333 -79.166 31 -113.499s48.167 -61.833 82.5 -82.5s72.166 -31 113.499 -31z" />
    <glyph glyph-name="ampersand" unicode="&#x26;" horiz-adv-x="1303" 
d="M603 -30c-80 0 -154.168 11.499 -222.501 34.499s-125.5 59.167 -171.5 108.5c-36 38.667 -62.667 81.834 -80 129.501s-27 98.167 -29 151.5c-0.666992 50.667 6.66602 101 21.999 151s39.333 94.333 72 133c19.333 24 41.166 44 65.499 60s49.5 29.667 75.5 41
c-50 52 -88.167 100.167 -114.5 144.5s-39.5 98.833 -39.5 163.5c0 74 18.833 141.667 56.5 203s89.834 107 156.501 137c34 15.333 68.833 26.166 104.5 32.499s71.167 9.5 106.5 9.5c54 0 107 -7.5 159 -22.5s96.333 -38.5 133 -70.5
c24.667 -19.333 46.334 -42.166 65.001 -68.499s33.334 -53.833 44.001 -82.5l-142 -42c-14 36 -37.333 66.333 -70 91c-25.333 20 -54.5 34 -87.5 42s-66.167 12 -99.5 12c-56.667 0 -108 -11 -154 -33c-40 -20 -70 -47.667 -90 -83s-30 -76.666 -30 -123.999
c0 -40.667 6.66699 -74.167 20 -100.5s32.666 -54.833 57.999 -85.5c14.667 -16 31 -32.167 49 -48.5l55 -50.5l456 -423c2.66699 18.667 4.33398 36.834 5.00098 54.501s1 35.167 1 52.5l-1 211h139v-221c0 -52.667 -2 -95.667 -6 -129s-9.33301 -61 -16 -83l186 -171
l-97 -103l-159 150c-22 -28.667 -49.833 -54.334 -83.5 -77.001s-67.167 -40.334 -100.5 -53.001c-36 -16 -74 -26.833 -114 -32.5s-80.667 -8.5 -122 -8.5zM604.999 111.999c38 0 72.332 2.33301 102.999 7s60 14.334 88 29.001c35.333 18.667 61.666 36.167 78.999 52.5
s31.333 30.833 42 43.5l-468 428c-28 -8.66699 -54.167 -20.5 -78.5 -35.5s-45.166 -32.833 -62.499 -53.5c-19.333 -24 -33.666 -51.667 -42.999 -83s-14 -64.333 -14 -99c1.33301 -36.667 7.5 -70.5 18.5 -101.5s27.5 -58.5 49.5 -82.5
c31.333 -36.667 73.333 -63.334 126 -80.001s106 -25 160 -25z" />
    <glyph glyph-name="quotesingle" unicode="'" horiz-adv-x="427" 
d="M120 1080v360h147v-360h-147z" />
    <glyph glyph-name="parenleft" unicode="(" horiz-adv-x="852" 
d="M657 -359c-78.667 90 -146.167 190.501 -202.5 301.501s-99.666 227.5 -129.999 349.5s-45.166 244.667 -44.499 368c-0.666992 123.333 14.166 246.166 44.499 368.499s73.666 238.833 129.999 349.5s123.833 211 202.5 301l108 -84
c-77.333 -92.667 -142 -189.834 -194 -291.501s-90.833 -206.5 -116.5 -314.5s-38.834 -217.667 -39.501 -329c0.666992 -110 14.167 -219.5 40.5 -328.5s65.333 -214.667 117 -317s115.834 -198.166 192.501 -287.499z" />
    <glyph glyph-name="parenright" unicode=")" horiz-adv-x="852" 
d="M195 -359l-108 85.999c76.667 89.333 140.834 185.166 192.501 287.499s90.667 208 117 317s39.833 218.5 40.5 328.5c-0.666992 111.333 -13.834 221 -39.501 329s-64.5 212.833 -116.5 314.5s-116.667 198.834 -194 291.501l108 84
c78.667 -90 146.167 -190.333 202.5 -301s99.666 -227.167 129.999 -349.5s45.166 -245.166 44.499 -368.499c0.666992 -123.333 -14.166 -246 -44.499 -368s-73.666 -238.5 -129.999 -349.5s-123.833 -211.5 -202.5 -301.5z" />
    <glyph glyph-name="asterisk" unicode="*" horiz-adv-x="873" 
d="M259 779l-110 80l158 204l-247 75l42 129l243 -86l-6 259h136l-6 -259l242 86l42 -129l-246 -75l156 -204l-110 -80l-146 212z" />
    <glyph glyph-name="plus" unicode="+" horiz-adv-x="1153" 
d="M514 263v394h-394v126h394v394h126v-394h393v-126h-393v-394h-126z" />
    <glyph glyph-name="comma" unicode="," horiz-adv-x="531" 
d="M120 -209l8.99902 73c26.667 -2 46 3.33301 58 16s19.333 29.667 22 51s3.33398 44.333 2.00098 69h-91v211h171v-251c0 -61.333 -15.5 -107.333 -46.5 -138s-72.5 -41 -124.5 -31z" />
    <glyph glyph-name="hyphen" unicode="-" horiz-adv-x="840" 
d="M120 567v126h600v-126h-600z" />
    <glyph glyph-name="period" unicode="." horiz-adv-x="507" 
d="M168 0v171h171v-171h-171z" />
    <glyph glyph-name="slash" unicode="/" horiz-adv-x="775" 
d="M504 1440h151l-384 -1440h-151z" />
    <glyph glyph-name="zero" unicode="0" horiz-adv-x="1220" 
d="M610 -30c-88.667 0 -168.5 20.667 -239.5 62s-127.167 97.5 -168.5 168.5s-62 150.833 -62 239.5v560c0 88.667 20.667 168.5 62 239.5s97.5 127.167 168.5 168.5s150.833 62 239.5 62s168.5 -20.667 239.5 -62s127.167 -97.5 168.5 -168.5s62 -150.833 62 -239.5v-560
c0 -88.667 -20.667 -168.5 -62 -239.5s-97.5 -127.167 -168.5 -168.5s-150.833 -62 -239.5 -62zM610 112c59.333 0 113.333 14.5 162 43.5s87.334 67.833 116.001 116.5s43 102.334 43 161.001v574c0 59.333 -14.333 113.333 -43 162s-67.334 87.5 -116.001 116.5
s-102.667 43.5 -162 43.5s-113.333 -14.5 -162 -43.5s-87.334 -67.833 -116.001 -116.5s-43 -102.667 -43 -162v-574c0 -58.667 14.333 -112.334 43 -161.001s67.334 -87.5 116.001 -116.5s102.667 -43.5 162 -43.5z" />
    <glyph glyph-name="one" unicode="1" horiz-adv-x="780" 
d="M391 0v1276l-271 -163v165l271 162h149v-1440h-149z" />
    <glyph glyph-name="two" unicode="2" horiz-adv-x="1140" 
d="M100 1l0.999023 134l651 588c56 50.667 93.167 98.834 111.5 144.501s27.5 93.5 27.5 143.5c0 59.333 -14 113 -42 161s-65.667 86.167 -113 114.5s-100.333 42.5 -159 42.5c-61.333 0 -116 -14.667 -164 -44s-85.833 -68 -113.5 -116s-41.167 -100.333 -40.5 -157h-150
c0 87.333 20.667 165.666 62 234.999s97.333 123.833 168 163.5s150.667 59.5 240 59.5c87.333 0 165.833 -20.5 235.5 -61.5s124.667 -96.333 165 -166s60.5 -147.167 60.5 -232.5c0 -60 -7.16699 -112.833 -21.5 -158.5s-36.666 -88 -66.999 -127
s-68.833 -79.167 -115.5 -120.5l-578 -522l-23 60h805v-141h-940z" />
    <glyph glyph-name="three" unicode="3" horiz-adv-x="1106" 
d="M527 -29c-71.333 0 -136.999 12.666 -196.999 37.999s-111.667 61.5 -155 108.5s-75 103.167 -95 168.5l140 42c24 -71.333 63.5 -125.333 118.5 -162s117.167 -54.334 186.5 -53.001c64 1.33301 119.167 15.666 165.5 42.999s81.833 65.333 106.5 114s37 105 37 169
c0 98 -28.5 176.833 -85.5 236.5s-132.167 89.5 -225.5 89.5c-26 0 -53.333 -3.5 -82 -10.5s-55.334 -16.833 -80.001 -29.5l-74 117l560 517l24 -60h-734v141h832v-143l-488 -466l-2 58c100 12.667 188 1.33398 264 -33.999s135.5 -89.166 178.5 -161.499
s64.5 -157.166 64.5 -254.499c0 -92 -19.833 -173.167 -59.5 -243.5s-94.167 -125.333 -163.5 -165s-148 -59.5 -236 -59.5z" />
    <glyph glyph-name="four" unicode="4" horiz-adv-x="1179" 
d="M774 0v279h-674v140l482 1021h165l-482 -1021h509v420h148v-420h157v-140h-157v-279h-148z" />
    <glyph glyph-name="five" unicode="5" horiz-adv-x="1155" 
d="M565 -30c-74.667 0 -143.67 15.3359 -207.003 46.0029s-117.333 73 -162 127s-76.667 116 -96 186l141 38c12.667 -52 35.667 -96.833 69 -134.5s72.5 -66.834 117.5 -87.501s92.167 -31 141.5 -31c64 0 121.5 15.5 172.5 46.5s91.5 72.167 121.5 123.5
s45 107.666 45 168.999c0 63.333 -15.667 120.5 -47 171.5s-72.666 91.5 -123.999 121.5s-107.333 45 -168 45c-68 0 -126.667 -14.833 -176 -44.5s-88.666 -66.834 -117.999 -111.501l-134 56l44 749h769v-141h-704l73 69l-39 -639l-37 49
c41.333 47.333 91.333 84.333 150 111s120.334 40 185.001 40c88.667 0 168.667 -21.167 240 -63.5s128 -99.5 170 -171.5s63 -152.333 63 -241c0 -88 -22.333 -168.5 -67 -241.5s-104 -131.5 -178 -175.5s-155.667 -66 -245 -66z" />
    <glyph glyph-name="six" unicode="6" horiz-adv-x="1241" 
d="M627 -30c-90 0 -171.83 21.832 -245.497 65.499s-132.334 103 -176.001 178s-65.5 159.5 -65.5 253.5v499c0 96.667 21.667 182.834 65 258.501s102.5 135.334 177.5 179.001s160.167 65.5 255.5 65.5c82 0 158.167 -18 228.5 -54s127.833 -86.333 172.5 -151l-113 -93
c-30.667 48 -71.334 86.333 -122.001 115s-106 43 -166 43c-67.333 0 -127.333 -16.333 -180 -49s-94 -75.5 -124 -128.5s-45 -110.5 -45 -172.5v-314l-37 42c42 66 97.167 119.333 165.5 160s142.833 61 223.5 61c89.333 0 169.666 -21.167 240.999 -63.5
s128 -99.5 170 -171.5s63 -152.667 63 -242c0 -88.667 -22.167 -169.334 -66.5 -242.001s-103.333 -130.667 -177 -174s-155.167 -65 -244.5 -65zM627.003 112.999c62.667 0 119.831 14.999 171.498 44.999s92.667 70.667 123 122s45.5 108.333 45.5 171
s-15.167 119.834 -45.5 171.501s-71.166 92.667 -122.499 123s-108.333 45.5 -171 45.5s-119.667 -15.167 -171 -45.5s-92.166 -71.333 -122.499 -123s-45.5 -108.834 -45.5 -171.501c0 -62 15 -118.667 45 -170s70.667 -92.166 122 -122.499s108.333 -45.5 171 -45.5z" />
    <glyph glyph-name="seven" unicode="7" horiz-adv-x="1004" 
d="M217 0l530 1297h-667v143h824v-143l-529 -1297h-158z" />
    <glyph glyph-name="eight" unicode="8" horiz-adv-x="1161" 
d="M579 -30c-90 0 -169.503 17.999 -238.503 53.999s-123 86.5 -162 151.5s-58.5 141.167 -58.5 228.5c0 89.333 21.667 168.833 65 238.5s109.333 122.5 198 158.5l-2 -58c-74 27.333 -130.333 72 -169 134s-58 130.667 -58 206c0 80 18.333 148.833 55 206.5
s86.834 102.167 150.501 133.5s136.834 47 219.501 47s156 -15.667 220 -47s114.333 -75.833 151 -133.5s55 -126.5 55 -206.5c0 -75.333 -18.5 -143.666 -55.5 -204.999s-93.5 -106.333 -169.5 -135l-5 58c88.667 -35.333 155.167 -88 199.5 -158s66.5 -149.667 66.5 -239
c0 -87.333 -19.667 -163.5 -59 -228.5s-93.666 -115.5 -162.999 -151.5s-149.333 -54 -240 -54zM578.997 110.999c90.667 0 164.333 25.167 221 75.5s85 122.833 85 217.5c0 96 -28 168.833 -84 218.5s-130 74.5 -222 74.5s-165.667 -24.833 -221 -74.5
s-83 -122.5 -83 -218.5c0 -94.667 28 -167.167 84 -217.5s129.333 -75.5 220 -75.5zM578.996 838.999c80 0 145 20.5 195 61.5s75 101.833 75 182.5s-25 141.167 -75 181.5s-115 60.5 -195 60.5s-144.833 -20.167 -194.5 -60.5s-74.5 -100.833 -74.5 -181.5
s24.833 -141.5 74.5 -182.5s114.5 -61.5 194.5 -61.5z" />
    <glyph glyph-name="nine" unicode="9" horiz-adv-x="1241" 
d="M614 1469c90.667 0 172.834 -21.833 246.501 -65.5s132.167 -103 175.5 -178s65 -159.167 65 -252.5v-500c0 -96 -21.667 -182 -65 -258s-102.5 -135.833 -177.5 -179.5s-160.167 -65.5 -255.5 -65.5c-82 0 -157.833 18.167 -227.5 54.5s-127.167 86.5 -172.5 150.5
l112 93c30.667 -47.333 71.5 -85.333 122.5 -114s106.167 -43 165.5 -43c68 0 128.167 16.167 180.5 48.5s93.666 75 123.999 128s45.5 110.5 45.5 172.5v314l36 -42c-41.333 -66 -96.166 -119.333 -164.499 -160s-143.166 -61 -224.499 -61
c-88.667 0 -168.834 21.333 -240.501 64s-128.334 100 -170.001 172s-62.5 152.333 -62.5 241s22 169.5 66 242.5s103 131 177 174s155.333 64.5 244 64.5zM614 1327c-62.667 0 -119.67 -15.168 -171.003 -45.501s-92.166 -71.166 -122.499 -122.499
s-45.5 -108.333 -45.5 -171s15 -119.667 45 -171s70.667 -92.166 122 -122.499s108.333 -45.5 171 -45.5s119.834 15.167 171.501 45.5s92.667 71.166 123 122.499s45.5 108.333 45.5 171c0 62 -15.167 118.667 -45.5 170s-71.166 92.333 -122.499 123s-108.333 46 -171 46z
" />
    <glyph glyph-name="colon" unicode=":" horiz-adv-x="598" 
d="M220 160v171h171v-171h-171zM221 749v171h171v-171h-171z" />
    <glyph glyph-name="semicolon" unicode=";" horiz-adv-x="611" 
d="M220 -209l8.99902 73c26.667 -2 46 3.33301 58 16s19.333 29.667 22 51s3.33398 44.333 2.00098 69h-91v211h171v-251c0 -61.333 -15.5 -107.333 -46.5 -138s-72.5 -41 -124.5 -31zM219.999 909v171h171v-171h-171z" />
    <glyph glyph-name="less" unicode="&#x3c;" horiz-adv-x="1229" 
d="M749 161l-469 469l469 469l94 -92l-382 -377l382 -377z" />
    <glyph glyph-name="equal" unicode="=" horiz-adv-x="1500" 
d="M240 827v126h1020v-126h-1020zM240 487v126h1020v-126h-1020z" />
    <glyph glyph-name="greater" unicode="&#x3e;" horiz-adv-x="1229" 
d="M479 161l-93 92l381 377l-381 377l93 92l470 -469z" />
    <glyph glyph-name="question" unicode="?" horiz-adv-x="1047" 
d="M422 393c0 52 2.50391 97.833 7.50391 137.5s18.167 79.5 39.5 119.5c20 38 44.667 69.5 74 94.5s60 48.667 92 71s62.333 48.833 91 79.5c26 30 43.333 60.333 52 91s13 63 13 97s-4.16699 64.333 -12.5 91s-21.166 49.667 -38.499 69
c-26.667 32.667 -59.334 55 -98.001 67s-79 18 -121 18c-41.333 0 -79.833 -5.83301 -115.5 -17.5s-65.167 -29.5 -88.5 -53.5c-22.667 -21.333 -39.167 -47 -49.5 -77s-15.5 -61.667 -15.5 -95h-152c2.66699 52.667 14.167 104.167 34.5 154.5s50.166 92.5 89.499 126.5
c39.333 36 85.166 62.167 137.499 78.5s105.166 24.5 158.499 24.5c65.333 0 127.333 -9.83301 186 -29.5s108 -52.5 148 -98.5c32 -34 55.5 -72.833 70.5 -116.5s22.5 -90.167 22.5 -139.5c0 -55.333 -10.333 -107.333 -31 -156s-49.667 -92 -87 -130
c-22.667 -24.667 -48.334 -47.5 -77.001 -68.5s-56.167 -42.667 -82.5 -65s-46.5 -46.5 -60.5 -72.5c-17.333 -32 -26.833 -62.333 -28.5 -91s-2.5 -65 -2.5 -109h-156zM423.004 0v196h155v-196h-155z" />
    <glyph glyph-name="at" unicode="@" horiz-adv-x="1807" 
d="M907 -210c-106.667 0 -205.331 18.499 -295.998 55.499s-169.667 88.667 -237 155s-119.833 144.5 -157.5 234.5s-56.5 188 -56.5 294c0 112.667 18.333 215.5 55 308.5s88.5 173.333 155.5 241s146.5 119.834 238.5 156.501s193 55 303 55
c126 0 236.167 -20.167 330.5 -60.5s172.166 -95 233.499 -164s106.166 -146.5 134.499 -232.5s40.166 -175 35.499 -267c-6.66699 -126 -36.5 -221 -89.5 -285s-126.833 -96 -221.5 -96c-61.333 0 -114.666 14.333 -159.999 43s-75.666 69 -90.999 121l48 -5
c-23.333 -47.333 -58.166 -81.666 -104.499 -102.999s-94.5 -32 -144.5 -32c-60.667 0 -113.834 13.167 -159.501 39.5s-81.334 62.833 -107.001 109.5s-38.5 100.667 -38.5 162c0 64 13.333 119.333 40 166s63.334 82.667 110.001 108s99.334 38 158.001 38
c43.333 0 88.166 -9 134.499 -27s81.833 -47.333 106.5 -88l-39 -44v131h106l-1 -325c0 -49.333 11.5 -89.5 34.5 -120.5s61.167 -46.5 114.5 -46.5c36 0 66.167 10 90.5 30s43.166 48.167 56.499 84.5s21 79.166 23 128.499c4 101.333 -9 190 -39 266
s-72.667 139.5 -128 190.5s-119.5 89.167 -192.5 114.5s-150.833 38 -233.5 38c-100 0 -188.833 -16.667 -266.5 -50s-143.334 -79.333 -197.001 -138s-94.167 -126.167 -121.5 -202.5s-40.333 -157.5 -39 -243.5c0.666992 -88.667 16.834 -170.5 48.501 -245.5
s75.5 -140 131.5 -195s121.333 -97.667 196 -128s155.667 -45.5 243 -45.5c56.667 0 113.5 7.33301 170.5 22s107.833 35 152.5 61l47 -112c-58 -32.667 -119 -57 -183 -73s-128.667 -24 -194 -24zM891.003 336.999c52 0 94.501 15.002 127.501 45.002s49.5 76.333 49.5 139
c0 61.333 -15.833 107.666 -47.5 138.999s-73.834 47 -126.501 47c-60 0 -105.833 -16.333 -137.5 -49s-47.5 -78.334 -47.5 -137.001c0 -59.333 16.333 -104.833 49 -136.5s77 -47.5 133 -47.5z" />
    <glyph glyph-name="A" unicode="A" horiz-adv-x="1267" 
d="M40 0l496 1440h195l496 -1440h-153l-471 1358h58l-468 -1358h-153zM261 349v138h744v-138h-744z" />
    <glyph glyph-name="B" unicode="B" horiz-adv-x="1226" 
d="M140 0v1440h556c80.667 0 151 -16.667 211 -50s106.667 -78.166 140 -134.499s50 -118.5 50 -186.5c0 -77.333 -20.667 -146.166 -62 -206.499s-96.666 -102.166 -165.999 -125.499l-2 49c93.333 -26.667 166.666 -73.334 219.999 -140.001s80 -147.334 80 -242.001
c0 -83.333 -17.667 -155.166 -53 -215.499s-85 -106.833 -149 -139.5s-138.333 -49 -223 -49h-602zM288 140.998l417.999 -0.00195312c58.667 0 111.334 10.5 158.001 31.5s83.5 50.833 110.5 89.5s40.5 85.334 40.5 140.001c0 53.333 -12.333 101.333 -37 144
s-58.167 76.834 -100.5 102.501s-90.5 38.5 -144.5 38.5h-445v-546zM287.999 825.996h407c46 0 88 10.5 126 31.5s68.167 49.833 90.5 86.5s33.5 79 33.5 127c0 68 -23.5 123.333 -70.5 166s-106.833 64 -179.5 64h-407v-475z" />
    <glyph glyph-name="C" unicode="C" horiz-adv-x="1431" 
d="M723 -30c-143.333 0 -264.333 31.8311 -363 95.498s-173.334 151.834 -224.001 264.501s-76 242.667 -76 390s25.333 277.333 76 390s125.334 200.834 224.001 264.501s219.667 95.5 363 95.5c167.333 0 304 -42.833 410 -128.5s178.667 -200.5 218 -344.5l-150 -39
c-30.667 114 -85.667 204.333 -165 271s-183.666 100 -312.999 100c-112.667 0 -206.334 -25.667 -281.001 -77s-130.834 -122.833 -168.501 -214.5s-57.167 -197.5 -58.5 -317.5c-0.666992 -120 17.833 -225.667 55.5 -317s94.334 -162.833 170.001 -214.5
s169.834 -77.5 282.501 -77.5c129.333 0 233.666 33.5 312.999 100.5s134.333 157.167 165 270.5l150 -39c-39.333 -144 -112 -258.833 -218 -344.5s-242.667 -128.5 -410 -128.5z" />
    <glyph glyph-name="D" unicode="D" horiz-adv-x="1343" 
d="M140 0v1440h437c15.333 0 41.5 -0.333008 78.5 -1s72.5 -3.33398 106.5 -8.00098c109.333 -15.333 200.666 -56 273.999 -122s128.333 -150 165 -252s55 -214.333 55 -337s-18.333 -235 -55 -337s-91.667 -186 -165 -252s-164.666 -106.667 -273.999 -122
c-33.333 -4 -69 -6.5 -107 -7.5s-64 -1.5 -78 -1.5h-437zM292 141.001l284.999 -0.00390625c27.333 0 56.833 0.833008 88.5 2.5s58.834 4.83398 81.501 9.50098c84 14.667 151.833 48.667 203.5 102s89.5 120.166 113.5 200.499s36 168.5 36 264.5
c0 96.667 -12 185.334 -36 266.001s-62 147.334 -114 200.001s-119.667 86.334 -203 101.001c-22.667 4.66699 -50.167 7.83398 -82.5 9.50098s-61.5 2.5 -87.5 2.5h-285v-1158z" />
    <glyph glyph-name="E" unicode="E" horiz-adv-x="1140" 
d="M140 0v1440h900v-141h-753v-498h633v-141h-633v-519h753v-141h-900z" />
    <glyph glyph-name="F" unicode="F" horiz-adv-x="1007" 
d="M140 0v1440h827v-147h-680v-500h560v-146h-560v-647h-147z" />
    <glyph glyph-name="G" unicode="G" horiz-adv-x="1410" 
d="M717 -30c-101.333 0 -192.66 17.6709 -273.993 53.0039s-150.5 85.666 -207.5 150.999s-100.5 144.166 -130.5 236.499s-45 195.5 -45 309.5c0 150.667 26.167 282.167 78.5 394.5s127.5 199.5 225.5 261.5s215.667 93 353 93c153.333 0 278.166 -35.833 374.499 -107.5
s163.5 -167.834 201.5 -288.501l-148 -36c-31.333 88 -82.833 158.333 -154.5 211s-160.834 79 -267.501 79c-112.667 0.666992 -206.334 -24.5 -281.001 -75.5s-130.834 -122.333 -168.501 -214s-56.834 -197.5 -57.501 -317.5s17.833 -225.5 55.5 -316.5
s94.167 -162.333 169.5 -214s169.333 -77.834 282 -78.501c103.333 0 188.666 20 255.999 60s118.5 97.333 153.5 172s54.833 163 59.5 265h-332v126h486c2 -15.333 3.16699 -31.5 3.5 -48.5s0.5 -29.167 0.5 -36.5c0 -130 -23.333 -246.167 -70 -348.5
s-116.834 -183 -210.501 -242s-211.167 -88.5 -352.5 -88.5z" />
    <glyph glyph-name="H" unicode="H" horiz-adv-x="1369" 
d="M140 0v1440h147v-649h796v649h146v-1440h-146v650h-796v-650h-147z" />
    <glyph glyph-name="I" unicode="I" horiz-adv-x="467" 
d="M160 0v1440h147v-1440h-147z" />
    <glyph glyph-name="J" unicode="J" horiz-adv-x="927" 
d="M386 -29c-96 0 -178.333 26.667 -247 80s-115 124.666 -139 213.999l147 35c12 -52.667 39.833 -97.167 83.5 -133.5s95.167 -54.5 154.5 -54.5c37.333 0 75.166 9 113.499 27s68.5 47.667 90.5 89c14.667 28.667 23.167 59.834 25.5 93.501s3.5 74.167 3.5 121.5v997
h148v-997c0 -40 -0.333008 -76.167 -1 -108.5s-4.16699 -63.333 -10.5 -93s-18.166 -59.5 -35.499 -89.5c-34.667 -60.667 -81.167 -106 -139.5 -136s-122.833 -45 -193.5 -45z" />
    <glyph glyph-name="K" unicode="K" horiz-adv-x="1187" 
d="M140 0v1440h147v-680l657 680h188l-671 -695l726 -745h-192l-708 720v-720h-147z" />
    <glyph glyph-name="L" unicode="L" horiz-adv-x="1021" 
d="M160 0v1440h147v-1299h684v-141h-831z" />
    <glyph glyph-name="M" unicode="M" horiz-adv-x="1681" 
d="M140 0v1440h135l566 -1211l563 1211h137v-1439h-140v1111l-513 -1112h-95l-512 1112v-1112h-141z" />
    <glyph glyph-name="N" unicode="N" horiz-adv-x="1369" 
d="M140 0v1440h148l793 -1180v1180h148v-1440h-148l-793 1181v-1181h-148z" />
    <glyph glyph-name="O" unicode="O" horiz-adv-x="1447" 
d="M723 -30c-143.333 0 -264.333 31.833 -363 95.5s-173.334 151.834 -224.001 264.501s-76 242.667 -76 390s25.333 277.333 76 390s125.334 200.834 224.001 264.501s219.667 95.5 363 95.5c144 0 265.167 -31.833 363.5 -95.5s173 -151.834 224 -264.501
s76.5 -242.667 76.5 -390s-25.5 -277.333 -76.5 -390s-125.667 -200.834 -224 -264.501s-219.5 -95.5 -363.5 -95.5zM723 111c112.667 0 206.67 25.6689 282.003 77.002s131.833 122.833 169.5 214.5s56.5 197.5 56.5 317.5s-18.833 225.667 -56.5 317
s-94.167 162.666 -169.5 213.999s-169.333 77.333 -282 78c-112.667 0 -206.334 -25.667 -281.001 -77s-130.834 -122.833 -168.501 -214.5s-56.834 -197.5 -57.501 -317.5s17.833 -225.5 55.5 -316.5s94.167 -162.333 169.5 -214s169.333 -77.834 282 -78.501z" />
    <glyph glyph-name="P" unicode="P" horiz-adv-x="1208" 
d="M140 0v1440h556c14 0 29.833 -0.5 47.5 -1.5s35.5 -3.16699 53.5 -6.5c75.333 -11.333 139.166 -37.5 191.499 -78.5s92 -92.5 119 -154.5s40.5 -130.667 40.5 -206c0 -74.667 -13.667 -143 -41 -205s-67.166 -113.5 -119.499 -154.5s-115.833 -67.167 -190.5 -78.5
c-18 -2.66699 -35.833 -4.66699 -53.5 -6s-33.5 -2 -47.5 -2h-409v-547h-147zM287 687h405c12 0 26 0.666992 42 2s31.667 3.66602 47 6.99902c49.333 10.667 89.833 31 121.5 61s55.334 65.667 71.001 107s23.5 84.333 23.5 129s-7.83301 87.834 -23.5 129.501
s-39.334 77.5 -71.001 107.5s-72.167 50.333 -121.5 61c-15.333 3.33301 -31 5.5 -47 6.5s-30 1.5 -42 1.5h-405v-612z" />
    <glyph glyph-name="Q" unicode="Q" horiz-adv-x="1447" 
d="M1271 -29l-384 382l100 100l382 -382zM723 -30c-143.333 0 -264.333 31.833 -363 95.5s-173.334 151.834 -224.001 264.501s-76 242.667 -76 390s25.333 277.333 76 390s125.334 200.834 224.001 264.501s219.667 95.5 363 95.5c144 0 265.167 -31.833 363.5 -95.5
s173 -151.834 224 -264.501s76.5 -242.667 76.5 -390s-25.5 -277.333 -76.5 -390s-125.667 -200.834 -224 -264.501s-219.5 -95.5 -363.5 -95.5zM723 111c112.667 0 206.67 25.6689 282.003 77.002s131.833 122.833 169.5 214.5s56.5 197.5 56.5 317.5
s-18.833 225.667 -56.5 317s-94.167 162.666 -169.5 213.999s-169.333 77.333 -282 78c-112.667 0 -206.334 -25.667 -281.001 -77s-130.834 -122.833 -168.501 -214.5s-56.834 -197.5 -57.501 -317.5s17.833 -225.5 55.5 -316.5s94.167 -162.333 169.5 -214
s169.333 -77.834 282 -78.501z" />
    <glyph glyph-name="R" unicode="R" horiz-adv-x="1261" 
d="M140 0l0.000976562 1440h556c14 0 29.833 -0.5 47.5 -1.5s35.5 -3.16699 53.5 -6.5c75.333 -11.333 139.166 -37.5 191.499 -78.5s92 -92.5 119 -154.5s40.5 -130.667 40.5 -206c0 -108.667 -28.667 -203 -86 -283s-139.333 -130.333 -246 -151l-51 -12h-478v-547h-147z
M1012 0l-284 586l141 54l312 -640h-169zM287.001 687h405c12 0 26 0.666992 42 2s31.667 3.66602 47 6.99902c49.333 10.667 89.833 31 121.5 61s55.334 65.667 71.001 107s23.5 84.333 23.5 129s-7.83301 87.834 -23.5 129.501s-39.334 77.5 -71.001 107.5
s-72.167 50.333 -121.5 61c-15.333 3.33301 -31 5.5 -47 6.5s-30 1.5 -42 1.5h-405v-612z" />
    <glyph glyph-name="S" unicode="S" horiz-adv-x="1233" 
d="M640 -30c-100.667 0 -191.168 16.8389 -271.501 50.5059s-146.666 81.5 -198.999 143.5s-86.5 135.667 -102.5 221l150 25c24 -93.333 74.667 -166.5 152 -219.5s169.666 -79.5 276.999 -79.5c70.667 0 134 11.167 190 33.5s100 54.166 132 95.499s48 90.333 48 147
c0 37.333 -6.66699 69.166 -20 95.499s-31 48.166 -53 65.499s-46 31.833 -72 43.5s-51.333 21.167 -76 28.5l-365 109c-44 12.667 -84.667 28.834 -122 48.501s-69.833 43.334 -97.5 71.001s-49.167 60.167 -64.5 97.5s-23 80 -23 128c0 81.333 21.333 151.666 64 210.999
s101 105 175 137s158.333 47.667 253 47c96 0 181.833 -17 257.5 -51s138.167 -82.5 187.5 -145.5s82 -137.5 98 -223.5l-154 -28c-10 62.667 -33 117 -69 163s-81.833 81.5 -137.5 106.5s-116.834 37.833 -183.501 38.5c-64.667 0 -122.167 -10.833 -172.5 -32.5
s-90.166 -51.167 -119.499 -88.5s-44 -80 -44 -128c0 -48.667 13.5 -87.667 40.5 -117s60.333 -52.333 100 -69s78.167 -30.334 115.5 -41.001l282 -83c29.333 -8 63.833 -19.5 103.5 -34.5s78.334 -36.333 116.001 -64s68.834 -63.834 93.501 -108.501
s37 -101.334 37 -170.001c0 -66.667 -13.167 -126.334 -39.5 -179.001s-63.333 -97 -111 -133s-103.334 -63.5 -167.001 -82.5s-133.167 -28.5 -208.5 -28.5z" />
    <glyph glyph-name="T" unicode="T" horiz-adv-x="1193" 
d="M523 0v1299h-503v141h1153v-141h-503v-1299h-147z" />
    <glyph glyph-name="U" unicode="U" horiz-adv-x="1404" 
d="M702 -30c-110 0 -207.169 22.666 -291.502 67.999s-150.5 109.333 -198.5 192s-72 179.334 -72 290.001v919l148 1v-901c0 -74.667 12.667 -139.167 38 -193.5s58.5 -99 99.5 -134s85.833 -60.833 134.5 -77.5s96 -25 142 -25c46.667 0 94.334 8.33301 143.001 25
s93.334 42.5 134.001 77.5s73.667 79.667 99 134s38 118.833 38 193.5v901h148v-920c0 -110.667 -24 -207.167 -72 -289.5s-114.167 -146.333 -198.5 -192s-181.5 -68.5 -291.5 -68.5z" />
    <glyph glyph-name="V" unicode="V" horiz-adv-x="1207" 
d="M506 0l-496 1440h153l439 -1273l442 1273h153l-496 -1440h-195z" />
    <glyph glyph-name="W" unicode="W" horiz-adv-x="1871" 
d="M449 0l-416 1440h153l337 -1189l335 1188l154 1l337 -1189l335 1189h154l-415 -1440h-148l-340 1181l-338 -1181h-148z" />
    <glyph glyph-name="X" unicode="X" horiz-adv-x="1212" 
d="M20 0l499 729l-486 711h178l395 -588l395 588h179l-486 -711l498 -729h-178l-408 605l-407 -605h-179z" />
    <glyph glyph-name="Y" unicode="Y" horiz-adv-x="1112" 
d="M483 0v603l-483 837h170l387 -669l385 669h170l-481 -837v-603h-148z" />
    <glyph glyph-name="Z" unicode="Z" horiz-adv-x="1228" 
d="M100 0v31l787 1268h-767v141h1008v-34l-783 -1266h776v-140h-1021z" />
    <glyph glyph-name="bracketleft" unicode="[" horiz-adv-x="814" 
d="M280 -436v2212h374v-136h-238v-1940h238v-136h-374z" />
    <glyph glyph-name="backslash" unicode="\" horiz-adv-x="775" 
d="M271 1440l384 -1440h-151l-384 1440h151z" />
    <glyph glyph-name="bracketright" unicode="]" horiz-adv-x="814" 
d="M534 -436h-374v136h238v1940h-238v136h374v-2212z" />
    <glyph glyph-name="asciicircum" unicode="^" horiz-adv-x="1339" 
d="M211 1002l468 470l471 -469l-92 -93l-379 381l-376 -382z" />
    <glyph glyph-name="underscore" unicode="_" horiz-adv-x="1320" 
d="M0 -213v126h1320v-126h-1320z" />
    <glyph glyph-name="grave" unicode="`" horiz-adv-x="979" 
d="M463 1610l-120 310h126l120 -310h-126z" />
    <glyph glyph-name="a" unicode="a" horiz-adv-x="1111" 
d="M449 -30c-81.333 0 -149.502 14.667 -204.502 44s-96.167 68.333 -123.5 117s-41 101.667 -41 159c0 58.667 11.833 108.834 35.5 150.501s56 75.834 97 102.501s88.5 47 142.5 61c54.667 13.333 115.167 25.166 181.5 35.499s131.333 19.333 195 27
s119.5 15.167 167.5 22.5l-52 -32c2 106.667 -18.667 185.667 -62 237s-118.666 77 -225.999 77c-74 0 -136.5 -16.667 -187.5 -50s-86.833 -86 -107.5 -158l-143 42c24.667 96.667 74.334 171.667 149.001 225s171.667 80 291 80c98.667 0 182.5 -18.5 251.5 -55.5
s117.833 -90.5 146.5 -160.5c13.333 -31.333 22 -66.333 26 -105s6 -78 6 -118v-671h-131v271l38 -16c-36.667 -92.667 -93.667 -163.334 -171 -212.001s-170 -73 -278 -73zM465.998 97c68.667 0 128.668 12.332 180.001 36.999s92.666 58.5 123.999 101.5
s51.666 91.5 60.999 145.5c8 34.667 12.333 72.834 13 114.501s1 72.834 1 93.501l56 -29c-50 -6.66699 -104.167 -13.334 -162.5 -20.001s-115.666 -14.334 -171.999 -23.001s-107.166 -19 -152.499 -31c-30.667 -8.66699 -60.334 -20.834 -89.001 -36.501
s-52.167 -36.5 -70.5 -62.5s-27.5 -58.333 -27.5 -97c0 -31.333 7.83301 -61.666 23.5 -90.999s41 -53.666 76 -72.999s81.5 -29 139.5 -29z" />
    <glyph glyph-name="b" unicode="b" horiz-adv-x="1184" 
d="M625 -30c-99.333 0 -183.334 25.1689 -252.001 75.502s-120.667 118.666 -156 204.999s-53 183.166 -53 290.499c0 109.333 17.833 206.833 53.5 292.5s88.167 153.167 157.5 202.5s154.666 74 255.999 74c98.667 0 183.334 -25 254.001 -75s124.834 -118 162.501 -204
s56.5 -182.667 56.5 -290c0 -108 -19 -205 -57 -291s-92.667 -154.167 -164 -204.5s-157.333 -75.5 -258 -75.5zM138.999 0.00195312v1440h148v-627h-16v-813h-132zM609.999 107.002c75.333 0 138 19.001 188 57.001s87.5 89.833 112.5 155.5s37.5 139.5 37.5 221.5
c0 81.333 -12.333 154.666 -37 219.999s-62.167 117 -112.5 155s-114.166 57 -191.499 57c-75.333 0 -137.833 -18.333 -187.5 -55s-86.834 -87.5 -111.501 -152.5s-37 -139.833 -37 -224.5c0 -83.333 12.333 -157.833 37 -223.5s62 -117.167 112 -154.5
s113.333 -56 190 -56z" />
    <glyph glyph-name="c" unicode="c" horiz-adv-x="1107" 
d="M588 -30c-108.667 0 -200.668 24.3281 -276.001 72.9951s-132.5 115.834 -171.5 201.501s-59.167 184.167 -60.5 295.5c1.33301 113.333 22 212.833 62 298.5s97.667 152.334 173 200.001s166.666 71.5 273.999 71.5c109.333 0 204.5 -26.667 285.5 -80
s136.5 -126.333 166.5 -219l-144 -46c-25.333 64.667 -65.5 114.834 -120.5 150.501s-117.833 53.5 -188.5 53.5c-79.333 0 -145 -18.167 -197 -54.5s-90.667 -86.833 -116 -151.5s-38.333 -139 -39 -223c1.33301 -129.333 31.333 -233.166 90 -311.499
s146 -117.5 262 -117.5c73.333 0 135.833 16.833 187.5 50.5s90.834 82.834 117.501 147.501l148 -44c-40 -96 -98.667 -169.167 -176 -219.5s-169.666 -75.5 -276.999 -75.5z" />
    <glyph glyph-name="d" unicode="d" horiz-adv-x="1185" 
d="M559 -30c-100.667 0 -186.668 25.165 -258.001 75.498s-126 118.5 -164 204.5s-57 183 -57 291c0 107.333 18.833 204 56.5 290s91.834 154 162.501 204s155.334 75 254.001 75c101.333 0 186.666 -24.667 255.999 -74s121.833 -116.833 157.5 -202.5
s53.5 -183.167 53.5 -292.5c0 -107.333 -17.667 -204.166 -53 -290.499s-87.333 -154.666 -156 -204.999s-152.667 -75.5 -252 -75.5zM573.999 106.998c76.667 0 140.001 18.666 190.001 55.999s87.333 88.833 112 154.5s37 140.167 37 223.5
c0 84.667 -12.333 159.5 -37 224.5s-61.834 115.833 -111.501 152.5s-112.167 55 -187.5 55c-77.333 0 -141.333 -19 -192 -57s-88.167 -89.667 -112.5 -155s-36.5 -138.666 -36.5 -219.999c0 -82 12.5 -155.833 37.5 -221.5s62.5 -117.5 112.5 -155.5s112.667 -57 188 -57z
M913 -0.00292969v813h-16v627h148v-1440h-132z" />
    <glyph glyph-name="e" unicode="e" horiz-adv-x="1169" 
d="M597 -30c-105.333 0 -196.499 23.3311 -273.499 69.998s-136.833 112.334 -179.5 197.001s-64 184 -64 298c0 118 21 220 63 306s101.167 152.333 177.5 199s166.5 70 270.5 70c106.667 0 197.667 -24.5 273 -73.5s132.333 -119.167 171 -210.5
s56.334 -200.333 53.001 -327h-150v52c-2.66699 140 -32.834 245.667 -90.501 317s-141.834 107 -252.501 107c-116 0 -204.833 -37.667 -266.5 -113s-92.5 -182.666 -92.5 -321.999c0 -136 30.833 -241.5 92.5 -316.5s149.167 -112.5 262.5 -112.5
c77.333 0 144.833 17.833 202.5 53.5s103.167 87.167 136.5 154.5l137 -53c-42.667 -94 -105.5 -166.833 -188.5 -218.5s-176.833 -77.5 -281.5 -77.5zM184.001 498.998v123h825v-123h-825z" />
    <glyph glyph-name="f" unicode="f" horiz-adv-x="709" 
d="M247 0l0.000976562 1160c0 28 1.5 55.667 4.5 83s9.16699 53.5 18.5 78.5s24 48.167 44 69.5c22 24 46 41.5 72 52.5s53.167 18.167 81.5 21.5s56.166 5 83.499 5h138v-124h-128c-56 0 -97.833 -13.667 -125.5 -41s-41.5 -70.333 -41.5 -129v-1176h-147zM60.001 954v126
h629v-126h-629z" />
    <glyph glyph-name="g" unicode="g" horiz-adv-x="1184" 
d="M569 -510c-55.333 0 -109.831 8.16504 -163.498 24.498s-103.167 42 -148.5 77s-83.333 80.5 -114 136.5l133 74c30 -60 72.167 -103.167 126.5 -129.5s109.833 -39.5 166.5 -39.5c78 0 141.167 14.5 189.5 43.5s83.5 71.833 105.5 128.5s32.667 127.334 32 212.001v288
h17v775h131v-1065c0 -30.667 -0.833008 -60.167 -2.5 -88.5s-4.83398 -56.166 -9.50098 -83.499c-12.667 -80.667 -38.834 -147 -78.501 -199s-91.667 -90.667 -156 -116s-140.5 -38 -228.5 -38zM559.002 -30.002c-100.667 0 -186.668 25.165 -258.001 75.498
s-126 118.5 -164 204.5s-57 183 -57 291c0 107.333 18.833 204 56.5 290s91.834 154 162.501 204s155.334 75 254.001 75c101.333 0 186.666 -24.667 255.999 -74s121.833 -116.833 157.5 -202.5s53.5 -183.167 53.5 -292.5c0 -107.333 -17.667 -204.166 -53 -290.499
s-87.333 -154.666 -156 -204.999s-152.667 -75.5 -252 -75.5zM574.001 106.996c76.667 0 140.001 18.666 190.001 55.999s87.333 88.833 112 154.5s37 140.167 37 223.5c0 84.667 -12.333 159.5 -37 224.5s-61.834 115.833 -111.501 152.5s-112.167 55 -187.5 55
c-77.333 0 -141.333 -19 -192 -57s-88.167 -89.667 -112.5 -155s-36.5 -138.666 -36.5 -219.999c0 -82 12.5 -155.833 37.5 -221.5s62.5 -117.5 112.5 -155.5s112.667 -57 188 -57z" />
    <glyph glyph-name="h" unicode="h" 
d="M920 0v550.999c0 60 -5.66699 115.167 -17 165.5s-29.5 94.333 -54.5 132s-57.333 66.834 -97 87.501s-87.834 31 -144.501 31c-52 0 -97.833 -9 -137.5 -27s-73 -43.833 -100 -77.5s-47.5 -74.5 -61.5 -122.5s-21 -102.667 -21 -164l-104 23
c0 110.667 19.333 203.667 58 279s92 132.333 160 171s146 58 234 58c64.667 0 121.167 -10 169.5 -30s89.333 -47 123 -81s60.834 -72.833 81.501 -116.5s35.667 -90 45 -139s14 -97.833 14 -146.5v-594h-148zM139 -0.000976562v1440h133v-813h15v-627h-148z" />
    <glyph glyph-name="i" unicode="i" horiz-adv-x="467" 
d="M160 1285v165h147v-165h-147zM160 0v1080h147v-1080h-147z" />
    <glyph glyph-name="j" unicode="j" horiz-adv-x="501" 
d="M-20 -480v142h61c48.667 0 87.5 12.5 116.5 37.5s43.5 66.833 43.5 125.5v1255h146v-1292c0 -90 -21.5 -157.167 -64.5 -201.5s-108.833 -66.5 -197.5 -66.5h-105zM201 1285v165h146v-165h-146z" />
    <glyph glyph-name="k" unicode="k" horiz-adv-x="992" 
d="M139 0l1 1440h148v-880l482 520h196l-506 -540l572 -540h-214l-530 520v-520h-149z" />
    <glyph glyph-name="l" unicode="l" horiz-adv-x="467" 
d="M160 0v1470h147v-1470h-147z" />
    <glyph glyph-name="m" unicode="m" horiz-adv-x="1696" 
d="M1428 0l1 709c0 83.333 -23.167 148.833 -69.5 196.5s-105.166 71.5 -176.499 71.5c-40.667 0 -80.334 -9.33301 -119.001 -28s-70.5 -48.667 -95.5 -90s-37.5 -95.333 -37.5 -162l-87 25c-2 77.333 13.167 145 45.5 203s77 103.167 134 135.5s121.5 48.5 193.5 48.5
c108.667 0 195.667 -33.5 261 -100.5s98 -157.5 98 -271.5l-1 -737h-147zM139 0v1080h132v-266h16v-814h-148zM785 0l0.998047 699c0 86 -22.833 153.833 -68.5 203.5s-105.834 74.5 -180.501 74.5s-135 -25.5 -181 -76.5s-69 -118.833 -69 -203.5l-88 48
c0 69.333 16.333 131.5 49 186.5s77.334 98.333 134.001 130s121 47.5 193 47.5c68.667 0 129.834 -14.667 183.501 -44s95.834 -72 126.501 -128s46 -124 46 -204l-1 -733h-145z" />
    <glyph glyph-name="n" unicode="n" 
d="M920 0v550.999c0 60 -5.66699 115.167 -17 165.5s-29.5 94.333 -54.5 132s-57.333 66.834 -97 87.501s-87.834 31 -144.501 31c-52 0 -97.833 -9 -137.5 -27s-73 -43.833 -100 -77.5s-47.5 -74.5 -61.5 -122.5s-21 -102.667 -21 -164l-104 23
c0 110.667 19.333 203.667 58 279s92 132.333 160 171s146 58 234 58c64.667 0 121.167 -10 169.5 -30s89.333 -47 123 -81s60.834 -72.833 81.501 -116.5s35.667 -90 45 -139s14 -97.833 14 -146.5v-594h-148zM139 -0.000976562v1080h133v-266h15v-814h-148z" />
    <glyph glyph-name="o" unicode="o" horiz-adv-x="1183" 
d="M591 -30c-107.333 0 -198.995 24.334 -274.995 73.001s-134.333 116 -175 202s-61 184.667 -61 296c0 113.333 20.667 212.666 62 297.999s100.166 151.833 176.499 199.5s167.166 71.5 272.499 71.5c108 0 200.167 -24.167 276.5 -72.5s134.666 -115.333 174.999 -201
s60.5 -184.167 60.5 -295.5c0 -113.333 -20.333 -212.833 -61 -298.5s-99.334 -152.5 -176.001 -200.5s-168.334 -72 -275.001 -72zM591.005 111.001c120 0 209.333 39.832 268 119.499s88 183.167 88 310.5c0 130.667 -29.5 234.667 -88.5 312s-148.167 116 -267.5 116
c-80.667 0 -147.167 -18.167 -199.5 -54.5s-91.333 -86.666 -117 -150.999s-38.5 -138.5 -38.5 -222.5c0 -130 30 -234.167 90 -312.5s148.333 -117.5 265 -117.5z" />
    <glyph glyph-name="p" unicode="p" horiz-adv-x="1184" 
d="M625 -30c-99.333 0 -183.334 25.1689 -252.001 75.502s-120.667 118.666 -156 204.999s-53 183.166 -53 290.499c0 109.333 17.833 206.833 53.5 292.5s88.167 153.167 157.5 202.5s154.666 74 255.999 74c98.667 0 183.334 -25 254.001 -75s124.834 -118 162.501 -204
s56.5 -182.667 56.5 -290c0 -108 -19 -205 -57 -291s-92.667 -154.167 -164 -204.5s-157.333 -75.5 -258 -75.5zM138.999 -479.998v1560h132v-813h16v-747h-148zM609.999 107.002c75.333 0 138 19.001 188 57.001s87.5 89.833 112.5 155.5s37.5 139.5 37.5 221.5
c0 81.333 -12.333 154.666 -37 219.999s-62.167 117 -112.5 155s-114.166 57 -191.499 57c-75.333 0 -137.833 -18.333 -187.5 -55s-86.834 -87.5 -111.501 -152.5s-37 -139.833 -37 -224.5c0 -83.333 12.333 -157.833 37 -223.5s62 -117.167 112 -154.5
s113.333 -56 190 -56z" />
    <glyph glyph-name="q" unicode="q" horiz-adv-x="1185" 
d="M559 -30c-100.667 0 -186.668 25.165 -258.001 75.498s-126 118.5 -164 204.5s-57 183 -57 291c0 107.333 18.833 204 56.5 290s91.834 154 162.501 204s155.334 75 254.001 75c101.333 0 186.666 -24.667 255.999 -74s121.833 -116.833 157.5 -202.5
s53.5 -183.167 53.5 -292.5c0 -107.333 -17.667 -204.166 -53 -290.499s-87.333 -154.666 -156 -204.999s-152.667 -75.5 -252 -75.5zM573.999 106.998c76.667 0 140.001 18.666 190.001 55.999s87.333 88.833 112 154.5s37 140.167 37 223.5
c0 84.667 -12.333 159.5 -37 224.5s-61.834 115.833 -111.501 152.5s-112.167 55 -187.5 55c-77.333 0 -141.333 -19 -192 -57s-88.167 -89.667 -112.5 -155s-36.5 -138.666 -36.5 -219.999c0 -82 12.5 -155.833 37.5 -221.5s62.5 -117.5 112.5 -155.5s112.667 -57 188 -57z
M897 -480.003v747h16v813h132v-1560h-148z" />
    <glyph glyph-name="r" unicode="r" horiz-adv-x="721" 
d="M140 0v1080h132v-260l-26 34c12 32 27.667 61.5 47 88.5s40.333 49.167 63 66.5c28 24.667 60.667 43.5 98 56.5s75 20.667 113 23s72.667 -0.5 104 -8.5v-138c-39.333 10 -82.333 12.333 -129 7s-89.667 -24 -129 -56c-36 -28 -63 -61.5 -81 -100.5
s-30 -80.333 -36 -124s-9 -86.834 -9 -129.501v-539h-147z" />
    <glyph glyph-name="s" unicode="s" horiz-adv-x="1050" 
d="M543 -29c-126.667 0 -230.829 27.332 -312.496 81.999s-131.834 130.667 -150.501 228l150 25c16 -61.333 52.5 -110.166 109.5 -146.499s127.5 -54.5 211.5 -54.5c82 0 146.667 17.167 194 51.5s71 81.166 71 140.499c0 33.333 -7.5 60.5 -22.5 81.5
s-45.5 40.5 -91.5 58.5s-114.667 39.333 -206 64c-98 26.667 -174.667 53.334 -230 80.001s-94.666 57.5 -117.999 92.5s-35 77.833 -35 128.5c0 61.333 17.333 115.166 52 161.499s82.667 82.333 144 108s132.666 38.5 213.999 38.5s154.166 -13.167 218.499 -39.5
s116.166 -63.166 155.499 -110.499s62.666 -102.333 69.999 -165l-150 -27c-10 63.333 -41.5 113.5 -94.5 150.5s-120.167 56.167 -201.5 57.5c-76.667 2 -139 -12.5 -187 -43.5s-72 -72.167 -72 -123.5c0 -28.667 8.66699 -53.167 26 -73.5s48.833 -39.5 94.5 -57.5
s110.834 -37.667 195.501 -59c99.333 -25.333 177.333 -52 234 -80s97 -61 121 -99s36 -85 36 -141c0 -102 -37.833 -182.167 -113.5 -240.5s-179.834 -87.5 -312.501 -87.5z" />
    <glyph glyph-name="t" unicode="t" horiz-adv-x="801" 
d="M728 0c-60.667 -12.667 -120.499 -17.6689 -179.499 -15.002s-111.667 15.334 -158 38.001s-81.5 58 -105.5 106c-19.333 40 -29.833 80.5 -31.5 121.5s-2.5 87.833 -2.5 140.5v989h146v-983c0 -45.333 0.5 -83.166 1.5 -113.499s7.83301 -57.166 20.5 -80.499
c24 -44.667 62.167 -71.334 114.5 -80.001s117.166 -6.66699 194.499 6v-129zM20.001 953.998v126h708v-126h-708z" />
    <glyph glyph-name="u" unicode="u" 
d="M553 -27c-64.667 0 -121.167 10.002 -169.5 30.002s-89.333 47 -123 81s-60.834 72.833 -81.501 116.5s-35.667 90 -45 139s-14 97.833 -14 146.5v594h148v-551c0 -59.333 5.66699 -114.333 17 -165s29.5 -94.834 54.5 -132.501s57.333 -66.834 97 -87.501
s87.834 -31 144.501 -31c52 0 97.833 9 137.5 27s73 43.833 100 77.5s47.5 74.667 61.5 123s21 102.833 21 163.5l104 -23c0 -110.667 -19.333 -203.667 -58 -279s-92 -132.333 -160 -171s-146 -58 -234 -58zM916 0.00195312v266h-15v814h147v-1080h-132z" />
    <glyph glyph-name="v" unicode="v" horiz-adv-x="1016" 
d="M432 0l-392 1080h149l319 -888l317 888h151l-392 -1080h-152z" />
    <glyph glyph-name="w" unicode="w" horiz-adv-x="1535" 
d="M370 0l-330 1081l147 -1l256 -839l257 839h134l257 -839l258 839h146l-330 -1080h-128l-270 860l-269 -860h-128z" />
    <glyph glyph-name="x" unicode="x" horiz-adv-x="1054" 
d="M20 0l422 546l-413 534h176l323 -421l320 421h176l-413 -534l423 -546h-177l-329 433l-331 -433h-177z" />
    <glyph glyph-name="y" unicode="y" horiz-adv-x="1055" 
d="M294 -480l209 567l3 -168l-473 1161h156l388 -971h-64l358 971h150l-580 -1560h-147z" />
    <glyph glyph-name="z" unicode="z" horiz-adv-x="1059" 
d="M40 0v31l697 912h-645v137h887v-34l-696 -909h658v-137h-901z" />
    <glyph glyph-name="braceleft" unicode="{" horiz-adv-x="839" 
d="M633 -436c-69.333 0 -126.333 22.333 -171 67s-67 101.334 -67 170.001v652c0 20.667 -6 40 -18 58l-85 119c-8 12 -12 25.333 -12 40s4 28 12 40l85 119c12 19.333 18 38.666 18 57.999v651c0 69.333 22.333 126.333 67 171s101.667 67 171 67h119v-141h-113
c-28 0 -52.167 -10 -72.5 -30s-30.5 -44.667 -30.5 -74v-644c0 -51.333 -15 -98 -45 -140l-55 -77l55 -77c30 -42 45 -88.667 45 -140v-646c0 -28 10.167 -52 30.5 -72s44.5 -30 72.5 -30h113v-141h-119z" />
    <glyph glyph-name="bar" unicode="|" horiz-adv-x="507" 
d="M180 0v1440h147v-1440h-147z" />
    <glyph glyph-name="braceright" unicode="}" horiz-adv-x="839" 
d="M206 -436h-119v141h112c29.333 0 54 10 74 30s30 44 30 72v646c0 51.333 14.667 98 44 140l56 77l-56 77c-29.333 42 -44 88.667 -44 140v644c0 29.333 -10 54 -30 74s-44.667 30 -74 30h-112v141h119c69.333 0 126.333 -22.333 171 -67s67 -101.667 67 -171v-651
c0 -19.333 6 -38.666 18 -57.999l85 -119c8.66699 -12 13 -25.333 13 -40s-4.33301 -28 -13 -40l-85 -119c-12 -18 -18 -37.333 -18 -58v-652c0 -68.667 -22.333 -125.334 -67 -170.001s-101.667 -67 -171 -67z" />
    <glyph glyph-name="asciitilde" unicode="~" horiz-adv-x="1324" 
d="M873 466c-39.333 0 -77.8359 7.99805 -115.503 23.998s-74 34.5 -109 55.5s-68.333 39.667 -100 56s-61.5 24.5 -89.5 24.5c-36.667 0 -60.167 -14.5 -70.5 -43.5s-10.166 -60.167 0.500977 -93.5h-146c-14 56.667 -14.833 107.834 -2.5 153.501s36.333 82 72 109
s80.834 40.5 135.501 40.5c40.667 0 80 -8 118 -24s74.5 -34.667 109.5 -56s68.333 -40 100 -56s61.5 -24 89.5 -24c32.667 0 55.334 14 68.001 42s13.334 60.667 2.00098 98h146c14 -55.333 14.833 -106.166 2.5 -152.499s-36.333 -83.5 -72 -111.5
s-81.834 -42 -138.501 -42z" />
    <glyph glyph-name="uni00A0" unicode="&#xa0;" horiz-adv-x="400" 
 />
    <glyph glyph-name="exclamdown" unicode="&#xa1;" horiz-adv-x="627" 
d="M240 1080h147v-165h-147v165zM240 720h147v-1080h-147v1080z" />
    <glyph glyph-name="cent" unicode="&#xa2;" horiz-adv-x="1107" 
d="M531 -59l-0.000976562 181.995c-97.333 8.66699 -179.166 38.167 -245.499 88.5s-116.833 116.5 -151.5 198.5s-52.667 175.333 -54 280c1.33301 106.667 19.5 200.834 54.5 282.501s85.833 147.167 152.5 196.5s148 78.333 244 87v184h126v-185
c92 -10 172.167 -40.667 240.5 -92s116.166 -118.666 143.499 -201.999l-144 -46c-25.333 64.667 -65.5 114.834 -120.5 150.501s-117.833 53.5 -188.5 53.5c-79.333 0 -145 -18.167 -197 -54.5s-90.667 -86.833 -116 -151.5s-38.333 -139 -39 -223
c1.33301 -129.333 31.333 -233.166 90 -311.499s146 -117.5 262 -117.5c73.333 0 135.833 16.833 187.5 50.5s90.834 82.834 117.501 147.501l148 -44c-36.667 -85.333 -87.5 -152.5 -152.5 -201.5s-142.167 -78.5 -231.5 -88.5v-184h-126z" />
    <glyph glyph-name="sterling" unicode="&#xa3;" horiz-adv-x="1142" 
d="M67 0l0.000976562 141.001h102c38.667 0 72 14 100 42s42 61.333 42 100v811c0 73.333 16.5 138.333 49.5 195s78 101 135 133s121.5 48 193.5 48c62.667 0 118.167 -13.833 166.5 -41.5s90.666 -68 126.999 -121s67.166 -117.167 92.499 -192.5l-134 -44
c-27.333 86 -61.166 150.5 -101.499 193.5s-91.166 64.5 -152.499 64.5c-68.667 0 -123.834 -21.833 -165.501 -65.5s-62.5 -101.834 -62.5 -174.501v-948h563v-141h-955zM67.001 660.001v141h756v-141h-756z" />
    <glyph glyph-name="currency" unicode="&#xa4;" horiz-adv-x="1283" 
d="M641 196c-72 0 -139.667 13.667 -203 41s-119 65.166 -167 113.499s-85.667 104.166 -113 167.499s-41 131.333 -41 204c0 72 13.667 139.667 41 203s65 119 113 167s103.667 85.667 167 113s131 41 203 41c72.667 0 140.667 -13.667 204 -41s119.166 -65 167.499 -113
s86.166 -103.667 113.499 -167s41 -131 41 -203c0 -72.667 -13.667 -140.667 -41 -204s-65.166 -119.166 -113.499 -167.499s-104.166 -86.166 -167.499 -113.499s-131.333 -41 -204 -41zM160 140l-100 100l213 213l100 -100zM274 987l-214 214l100 99l213 -213zM1123 140
l-213 213l100 100l213 -213zM641 328c72.667 0 138.834 18 198.501 54s107.167 83.667 142.5 143s53 124.333 53 195c0 72.667 -18.167 138.667 -54.5 198s-84.333 106.666 -144 141.999s-124.834 53 -195.501 53c-72 0 -137.667 -17.667 -197 -53
s-106.666 -82.666 -141.999 -141.999s-53 -125.333 -53 -198c0 -70.667 17.667 -135.667 53 -195s82.666 -107 141.999 -143s125 -54 197 -54zM1009 987l-99 100l213 213l100 -99z" />
    <glyph glyph-name="yen" unicode="&#xa5;" horiz-adv-x="1112" 
d="M177 517v126h760v-126h-760zM177 225v126h760v-126h-760zM483 0v603l-483 837h170l387 -669l385 669h170l-481 -837v-603h-148z" />
    <glyph glyph-name="brokenbar" unicode="&#xa6;" horiz-adv-x="507" 
d="M180 701v739h147v-739h-147zM180 -312v739h147v-739h-147z" />
    <glyph glyph-name="section" unicode="&#xa7;" horiz-adv-x="1050" 
d="M548 -309c-66 0 -129.503 10.667 -190.503 32s-113.333 54.833 -157 100.5s-72.834 104.834 -87.501 177.501l150 25c12.667 -48 34.834 -86.667 66.501 -116s67.667 -50.833 108 -64.5s79.5 -20.5 117.5 -20.5c42 0 81.333 7.33301 118 22s66.334 36.167 89.001 64.5
s34 63.5 34 105.5c0 40.667 -11.667 72.167 -35 94.5s-58.666 41.333 -105.999 57s-107 33.167 -179 52.5c-77.333 20.667 -144.666 42.834 -201.999 66.501s-101.833 53.167 -133.5 88.5s-47.5 81.666 -47.5 138.999c0 65.333 19.167 119.166 57.5 161.499
s86.833 72.5 145.5 90.5s119 24 181 18l4 -49c-69.333 -18 -126.5 -44 -171.5 -78s-67.5 -76.333 -67.5 -127c0 -38.667 13.667 -69 41 -91s64.833 -40.333 112.5 -55s101.834 -30 162.501 -46c78 -20 146.333 -41.833 205 -65.5s104.334 -55 137.001 -94
s49 -91.833 49 -158.5c0 -72 -17.833 -132.5 -53.5 -181.5s-83.834 -86 -144.501 -111s-128.334 -37.5 -203.001 -37.5zM612.997 246l-2 53.002c35.333 2 69.666 11.333 102.999 28s60.833 39.834 82.5 69.501s32.5 65.5 32.5 107.5c0 40 -11.5 71.333 -34.5 94
s-58.167 41.834 -105.5 57.501s-107.333 33.167 -180 52.5c-76.667 20.667 -143.667 42.667 -201 66s-101.833 53.166 -133.5 89.499s-47.5 84.833 -47.5 145.5c0 69.333 19 126.666 57 171.999s86.5 79.333 145.5 102s119.5 34 181.5 34c68.667 0 132.667 -13 192 -39
s108.333 -62.5 147 -109.5s62 -102.5 70 -166.5l-150 -27c-9.33301 51.333 -28.166 92.166 -56.499 122.499s-61.5 52.166 -99.5 65.499s-75.667 20 -113 20c-40.667 0 -78.167 -6.66699 -112.5 -20s-61.833 -32.333 -82.5 -57s-31 -54 -31 -88
c0 -38.667 14 -69.167 42 -91.5s65.833 -40.833 113.5 -55.5s101.167 -29.667 160.5 -45c78 -20.667 146.333 -42.667 205 -66s104.334 -54.333 137.001 -93s49 -91 49 -157c0 -68 -16.5 -124.333 -49.5 -169s-77.333 -75.5 -133 -92.5s-117.834 -17.833 -186.501 -2.5z" />
    <glyph glyph-name="dieresis" unicode="&#xa8;" horiz-adv-x="1021" 
d="M621 1651v160h160v-160h-160zM240 1651v160h160v-160h-160z" />
    <glyph glyph-name="copyright" unicode="&#xa9;" horiz-adv-x="1607" 
d="M803 -53c-102 0 -198 19.167 -288 57.5s-169 91.5 -237 159.5s-121.333 147 -160 237s-58 186.333 -58 289s19.333 199 58 289s92 169 160 237s147 121.167 237 159.5s186 57.5 288 57.5c103.333 0 199.833 -19.167 289.5 -57.5s168.5 -91.5 236.5 -159.5
s121.333 -147 160 -237s58 -186.333 58 -289s-19.333 -199 -58 -289s-92 -169 -160 -237s-146.833 -121.167 -236.5 -159.5s-186.167 -57.5 -289.5 -57.5zM812 269c-60.667 0 -115 10.334 -163 31.001s-90 53.667 -126 99c-34.667 44 -58.5 91.333 -71.5 142
s-19.5 101.334 -19.5 152.001c0.666992 52 7.83398 103 21.501 153s36.834 95.667 69.501 137c36 44.667 78.333 77.667 127 99s104.667 32 168 32c36 0 70 -3.83301 102 -11.5s63.667 -20.834 95 -39.501c32 -20 60.333 -45 85 -75s42.334 -64.667 53.001 -104l-123 -37
c-8 20.667 -19.333 40.667 -34 60s-31.667 36 -51 50c-18.667 13.333 -39.5 23.166 -62.5 29.499s-46.167 9.5 -69.5 9.5c-38.667 0 -74 -7.83301 -106 -23.5s-59.333 -37.5 -82 -65.5c-22.667 -29.333 -38.334 -62.833 -47.001 -100.5s-13 -75.167 -13 -112.5
c0 -40.667 4.83301 -80 14.5 -118s24.834 -71 45.501 -99c21.333 -29.333 48.166 -51.666 80.499 -66.999s68.166 -23 107.499 -23c52 0 96.667 12.667 134 38c19.333 14 35.333 29.667 48 47s23.334 36.666 32.001 57.999l126 -34c-14.667 -38 -33.334 -71 -56.001 -99
s-46.334 -50.667 -71.001 -68c-30 -20 -62.167 -35 -96.5 -45s-73.5 -15 -117.5 -15zM803 90.001c83.333 0 161 15.5 233 46.5s135.5 74 190.5 129s98 119 129 192s46.5 150.833 46.5 233.5c0 83.333 -15.5 161 -46.5 233s-74 135.5 -129 190.5s-118.5 98 -190.5 129
s-149.667 46.5 -233 46.5c-82.667 0 -160.5 -15.5 -233.5 -46.5s-137 -74 -192 -129s-98 -118.5 -129 -190.5s-46.5 -149.667 -46.5 -233c0 -82.667 15.5 -160.5 46.5 -233.5s74 -137 129 -192s119 -98 192 -129s150.833 -46.5 233.5 -46.5z" />
    <glyph glyph-name="ordfeminine" unicode="&#xaa;" horiz-adv-x="630" 
d="M263 540c-60 0 -105.498 16.001 -136.498 48.001s-46.5 70 -46.5 114c0 40.667 11 74.167 33 100.5s53.667 46.166 95 59.499c34.667 10.667 76.667 19.5 126 26.5l148 20.5l-36 -37c2.66699 48 -5 83.5 -23 106.5s-50.667 34.5 -98 34.5
c-28.667 0 -54.834 -6.5 -78.501 -19.5s-40.167 -34.5 -49.5 -64.5l-97 29c13.333 46.667 38.666 83.667 75.999 111s87 41 149 41c48.667 0 91 -8.16699 127 -24.5s62 -42.5 78 -78.5c8.66699 -17.333 14.167 -36 16.5 -56s3.5 -41 3.5 -63v-333h-93v123l16 -20
c-22.667 -40 -51 -69.667 -85 -89s-75.667 -29 -125 -29zM281.002 626.001c44.667 0 79.832 11.168 105.499 33.501s41.834 46.5 48.501 72.5c6 16.667 9.16699 35.667 9.5 57s0.5 37 0.5 47l36 -14l-129 -19c-36.667 -5.33301 -68 -12 -94 -20
c-21.333 -6.66699 -39 -16.334 -53 -29.001s-21 -29.667 -21 -51s7.83301 -39.5 23.5 -54.5s40.167 -22.5 73.5 -22.5z" />
    <glyph glyph-name="guillemotleft" unicode="&#xab;" horiz-adv-x="1071" 
d="M849 106l-346 435l346 434l89 -69l-291 -365l291 -366zM506 106l-346 435l346 434l89 -69l-292 -365l292 -366z" />
    <glyph glyph-name="logicalnot" unicode="&#xac;" horiz-adv-x="1200" 
d="M954 390v247h-834v126h960v-373h-126z" />
    <glyph glyph-name="uni00AD" unicode="&#xad;" horiz-adv-x="840" 
d="M120 567v126h600v-126h-600z" />
    <glyph glyph-name="registered" unicode="&#xae;" horiz-adv-x="1250" 
d="M625 575c-66.667 0 -129.334 12.5 -188.001 37.5s-110.334 59.833 -155.001 104.5s-79.5 96.334 -104.5 155.001s-37.5 121.667 -37.5 189c0 66.667 12.5 129.167 37.5 187.5s59.833 109.666 104.5 153.999s96.334 79.166 155.001 104.499s121.334 38 188.001 38
c67.333 0 130.166 -12.667 188.499 -38s109.833 -60.166 154.5 -104.499s79.5 -95.666 104.5 -153.999s37.5 -120.833 37.5 -187.5c0 -67.333 -12.5 -130.333 -37.5 -189s-59.833 -110.334 -104.5 -155.001s-96.167 -79.5 -154.5 -104.5s-121.166 -37.5 -188.499 -37.5z
M626 689c68 0 130 16.833 186 50.5s100.667 78.5 134 134.5s50 118.333 50 187c0 68 -16.667 130 -50 186s-78 100.667 -134 134s-118 50 -186 50c-68.667 0 -131 -16.667 -187 -50s-100.667 -78 -134 -134s-50 -118 -50 -186c0 -68.667 16.667 -131 50 -187
s78 -100.833 134 -134.5s118.333 -50.5 187 -50.5zM462 831l0.000976562 465h203c43.333 0 79.666 -14.5 108.999 -43.5s44.333 -64.833 45 -107.5c0 -27.333 -7.33301 -53.5 -22 -78.5s-36 -44.167 -64 -57.5l88 -178h-88l-80 163h-113v-163h-78zM540.001 1067h125
c20 0 37.333 7.5 52 22.5s22 33.5 22 55.5c0 23.333 -7.5 42 -22.5 56s-32.167 21 -51.5 21h-125v-155z" />
    <glyph glyph-name="macron" unicode="&#xaf;" horiz-adv-x="981" 
d="M240 1680v125h501v-125h-501z" />
    <glyph glyph-name="degree" unicode="&#xb0;" horiz-adv-x="900" 
d="M420 750c-66 0 -126.333 16.165 -181 48.498s-98.167 75.666 -130.5 129.999s-48.5 114.833 -48.5 181.5c0 65.333 16.667 125.333 50 180s77.333 98.334 132 131.001s114 49 178 49c66 0 126.167 -16.167 180.5 -48.5s97.833 -75.666 130.5 -129.999
s49 -114.833 49 -181.5s-16.333 -127.167 -49 -181.5s-76.167 -97.666 -130.5 -129.999s-114.5 -48.5 -180.5 -48.5zM420 882.998c41.333 0 79.166 10.333 113.499 31s61.833 48.167 82.5 82.5s31 72.166 31 113.499s-10.333 79.166 -31 113.499s-48.167 61.833 -82.5 82.5
s-72.166 31 -113.499 31s-79.166 -10.333 -113.499 -31s-61.833 -48.167 -82.5 -82.5s-31 -72.166 -31 -113.499s10.333 -79.166 31 -113.499s48.167 -61.833 82.5 -82.5s72.166 -31 113.499 -31z" />
    <glyph glyph-name="plusminus" unicode="&#xb1;" horiz-adv-x="1200" 
d="M537 440v257h-417v126h417v257h126v-257h417v-126h-417v-257h-126zM120 157v126h960v-126h-960z" />
    <glyph glyph-name="uni00B2" unicode="&#xb2;" horiz-adv-x="800" 
d="M100 540l1 99.9941l400 361c33.333 30 55.666 58.5 66.999 85.5s17 54.167 17 81.5c0 52.667 -17.167 97 -51.5 133s-77.5 54 -129.5 54c-36 0 -68 -8.66699 -96 -26s-50.167 -40 -66.5 -68s-23.833 -58.333 -22.5 -91h-115c0 56.667 13 106.834 39 150.501
s61.667 77.834 107 102.501s97 37 155 37c56 0 106.167 -12.833 150.5 -38.5s79.5 -60.667 105.5 -105s39 -94.166 39 -149.499c0 -39.333 -5.16699 -73.166 -15.5 -101.499s-25.666 -54.666 -45.999 -78.999s-45.833 -50.166 -76.5 -77.499l-348 -315l-21 53h507v-107h-600
z" />
    <glyph glyph-name="uni00B3" unicode="&#xb3;" horiz-adv-x="779" 
d="M365 519c-66.667 0 -125.999 18.333 -177.999 55s-87.667 86.667 -107 150l107 31c14 -42.667 37.167 -74.834 69.5 -96.501s68.5 -32.167 108.5 -31.5c55.333 0.666992 99.166 18.5 131.499 53.5s48.5 79.833 48.5 134.5c0 55.333 -16.667 100.5 -50 135.5
s-77.333 52.5 -132 52.5c-15.333 0 -31 -2 -47 -6s-31.667 -9.33301 -47 -16l-54 87l352 320l21 -54h-472v106h533v-107l-303 -288l-3 52c63.333 6.66699 118.833 -1.5 166.5 -24.5s84.5 -57 110.5 -102s39 -96.833 39 -155.5c0 -58 -12.833 -109.167 -38.5 -153.5
s-60.667 -79.166 -105 -104.499s-94.5 -38 -150.5 -38z" />
    <glyph glyph-name="acute" unicode="&#xb4;" horiz-adv-x="979" 
d="M517 1610h-126l119 310h126z" />
    <glyph glyph-name="uni00B5" unicode="&#xb5;" horiz-adv-x="1207" 
d="M139 -480v1560h148v-551c0 -59.333 5.66699 -114.333 17 -165s29.666 -94.834 54.999 -132.501s57.833 -66.834 97.5 -87.501s87.834 -31 144.501 -31c51.333 0 97 9 137 27s73.333 43.833 100 77.5s47 74.667 61 123s21 102.833 21 163.5v576h147v-1080h-132v153
c-39.333 -60 -90.5 -105 -153.5 -135s-132.833 -45 -209.5 -45c-66 0 -124.333 12 -175 36s-92.667 58.333 -126 103v-592h-132z" />
    <glyph glyph-name="paragraph" unicode="&#xb6;" horiz-adv-x="1269" 
d="M688 -282l-0.000976562 829.001h-89c-10.667 0 -25 0.5 -43 1.5s-37.667 3.16699 -59 6.5c-74 11.333 -137.167 37.5 -189.5 78.5s-92.166 92.5 -119.499 154.5s-41 130.333 -41 205s13.5 143 40.5 205s66.667 113.667 119 155s115.833 67.666 190.5 78.999
c21.333 3.33301 40.833 5.5 58.5 6.5s32.167 1.5 43.5 1.5h236v-1722h-147zM975.999 -281.999v1722h147v-1722h-147z" />
    <glyph glyph-name="periodcentered" unicode="&#xb7;" horiz-adv-x="453" 
d="M229 523c-30 0 -55.667 10.167 -77 30.5s-32 45.833 -32 76.5s10.667 56.167 32 76.5s47 30.5 77 30.5c28.667 0 53.167 -10.167 73.5 -30.5s30.5 -45.833 30.5 -76.5s-10.167 -56.167 -30.5 -76.5s-44.833 -30.5 -73.5 -30.5z" />
    <glyph glyph-name="cedilla" unicode="&#xb8;" horiz-adv-x="794" 
d="M367 -480c-24 0 -46.501 3 -67.501 9s-40.833 13.333 -59.5 22l38 102c30.667 -12 56.334 -18 77.001 -18c26 0 46.167 8.16699 60.5 24.5s21.5 34.166 21.5 53.499c0 30.667 -13.667 52.834 -41 66.501s-58 25.5 -92 35.5l74 206h109l-51 -140
c36 -16 65.167 -37.833 87.5 -65.5s33.5 -63.167 33.5 -106.5c0 -54 -18.833 -99 -56.5 -135s-82.167 -54 -133.5 -54z" />
    <glyph glyph-name="uni00B9" unicode="&#xb9;" horiz-adv-x="642" 
d="M290 540v777l-170 -103v124l170 102h112v-900h-112z" />
    <glyph glyph-name="ordmasculine" unicode="&#xba;" horiz-adv-x="690" 
d="M344 540c-80.667 0 -144.834 26.667 -192.501 80s-71.5 122 -71.5 206c0 84.667 24.333 153.167 73 205.5s112.334 78.5 191.001 78.5c81.333 0 146 -26.5 194 -79.5s72 -121.167 72 -204.5c0 -84.667 -24 -153.5 -72 -206.5s-112.667 -79.5 -194 -79.5zM344 639
c52 0 90.667 17.332 116 51.999s38 79.667 38 135c0 56 -12.833 101 -38.5 135s-64.167 51 -115.5 51c-52.667 0 -91.334 -17.167 -116.001 -51.5s-37 -79.166 -37 -134.499c0 -56.667 12.833 -102 38.5 -136s63.834 -51 114.501 -51z" />
    <glyph glyph-name="guillemotright" unicode="&#xbb;" horiz-adv-x="1071" 
d="M222 106l-89 69l292 366l-292 365l89 69l346 -434zM565 106l-88 69l291 366l-291 365l88 69l346 -434z" />
    <glyph glyph-name="onequarter" unicode="&#xbc;" horiz-adv-x="1947" 
d="M290 540v777l-170 -103v124l170 102h112v-900h-112zM1501 0v165h-414v107l297 628h127l-298 -628h288v253h112v-253h94v-107h-94v-165h-112zM381 0l-101 78l1051 1367l99 -78z" />
    <glyph glyph-name="onehalf" unicode="&#xbd;" horiz-adv-x="1868" 
d="M290 540v777l-170 -103v124l170 102h112v-900h-112zM1168 0l2.00098 99.9941l399 361c33.333 30 55.833 58.5 67.5 85.5s17.5 54.167 17.5 81.5c0 52.667 -17.333 97 -52 133s-78 54 -130 54c-35.333 0 -67.166 -8.66699 -95.499 -26s-50.5 -40 -66.5 -68
s-23.667 -58.333 -23 -91h-115c0 56.667 13.167 106.834 39.5 150.501s62.166 77.834 107.499 102.501s97 37 155 37c56 0 106.167 -12.833 150.5 -38.5s79.333 -60.667 105 -105s38.5 -94.166 38.5 -149.499c0 -39.333 -5 -73.166 -15 -101.499
s-25.333 -54.666 -46 -78.999s-46.334 -50.166 -77.001 -77.499l-348 -315l-20 53h506v-107h-600zM381.001 -0.00585938l-101 78l1051 1367l99 -78z" />
    <glyph glyph-name="threequarters" unicode="&#xbe;" horiz-adv-x="1959" 
d="M365 519c-66.667 0 -125.999 18.333 -177.999 55s-87.667 86.667 -107 150l107 31c14 -42.667 37.167 -74.834 69.5 -96.501s68.5 -32.167 108.5 -31.5c55.333 0.666992 99.166 18.5 131.499 53.5s48.5 79.833 48.5 134.5c0 55.333 -16.667 100.5 -50 135.5
s-77.333 52.5 -132 52.5c-15.333 0 -31 -2 -47 -6s-31.667 -9.33301 -47 -16l-54 87l352 320l21 -54h-472v106h533v-107l-303 -288l-3 52c63.333 6.66699 118.833 -1.5 166.5 -24.5s84.5 -57 110.5 -102s39 -96.833 39 -155.5c0 -58 -12.833 -109.167 -38.5 -153.5
s-60.667 -79.166 -105 -104.499s-94.5 -38 -150.5 -38zM1633 0v165h-414v107l297 628h127l-298 -628h288v253h112v-253h94v-107h-94v-165h-112zM518.001 0l-101 78l1051 1367l99 -78z" />
    <glyph glyph-name="questiondown" unicode="&#xbf;" horiz-adv-x="1047" 
d="M625 687c0 -52 -2.33496 -97.835 -7.00195 -137.502s-18 -79.5 -40 -119.5c-20 -38 -44.5 -69.5 -73.5 -94.5s-59.667 -48.667 -92 -71s-62.833 -48.833 -91.5 -79.5c-25.333 -29.333 -42.5 -59.5 -51.5 -90.5s-13.5 -63.5 -13.5 -97.5c0 -33.333 4.33301 -63.333 13 -90
s21.334 -50 38.001 -70c26.667 -32 59.5 -54.167 98.5 -66.5s79.167 -18.5 120.5 -18.5c42 0 81 5.83301 117 17.5s65.333 29.5 88 53.5c23.333 22 40 48 50 78s14.667 61.333 14 94h152c-2.66699 -52.667 -14 -104.167 -34 -154.5s-50 -92.5 -90 -126.5
c-39.333 -35.333 -85 -61.333 -137 -78s-105 -25 -159 -25c-65.333 0 -127.333 10 -186 30s-108 52.667 -148 98c-31.333 34.667 -54.666 73.834 -69.999 117.501s-23 89.834 -23 138.501c0 55.333 10.5 107.5 31.5 156.5s49.833 92.167 86.5 129.5
c22.667 24.667 48.5 47.667 77.5 69s56.5 43 82.5 65s46.333 46 61 72c18 32 27.5 62.5 28.5 91.5s1.5 65.167 1.5 108.5h156zM624.998 1080v-196h-156v196h156z" />
    <glyph glyph-name="Agrave" unicode="&#xc0;" horiz-adv-x="1267" 
d="M557 1610l-120 310h126l120 -310h-126zM1227 0h-153l-467 1358h57l-471 -1358h-153l496 1440h195zM1006 349h-744v138h744v-138z" />
    <glyph glyph-name="Aacute" unicode="&#xc1;" horiz-adv-x="1267" 
d="M711 1610h-126l119 310h126zM40 0l496 1440h195l496 -1440h-153l-471 1358h58l-468 -1358h-153zM261 349v138h744v-138h-744z" />
    <glyph glyph-name="Acircumflex" unicode="&#xc2;" horiz-adv-x="1267" 
d="M336 1610l229 270h136l230 -270h-150l-148 173l-147 -173h-150zM40 0l496 1440h195l496 -1440h-153l-471 1358h58l-468 -1358h-153zM261 349v138h744v-138h-744z" />
    <glyph glyph-name="Atilde" unicode="&#xc3;" horiz-adv-x="1267" 
d="M784 1662c-28 0 -55.333 5.66602 -82 16.999s-52.5 24.5 -77.5 39.5s-48.667 28.167 -71 39.5s-43.5 17 -63.5 17c-26 0 -42.5 -10.167 -49.5 -30.5s-6.83301 -42.166 0.5 -65.499h-104c-15.333 59.333 -9.5 109.833 17.5 151.5s69.833 62.5 128.5 62.5
c28.667 0 56.334 -5.66699 83.001 -17s52.5 -24.5 77.5 -39.5s48.667 -28.167 71 -39.5s43.5 -17 63.5 -17c23.333 0 39.5 10 48.5 30s9.16699 43 0.5 69h104c15.333 -58.667 9.66602 -109.5 -17.001 -152.5s-70 -64.5 -130 -64.5zM40 -0.000976562l496 1440h195l496 -1440
h-153l-471 1358h58l-468 -1358h-153zM261 348.999v138h744v-138h-744z" />
    <glyph glyph-name="Adieresis" unicode="&#xc4;" horiz-adv-x="1267" 
d="M745 1651v160h160v-160h-160zM364 1651v160h160v-160h-160zM40 0l496 1440h195l496 -1440h-153l-471 1358h58l-468 -1358h-153zM261 349v138h744v-138h-744z" />
    <glyph glyph-name="Aring" unicode="&#xc5;" horiz-adv-x="1267" 
d="M635 1557c-40 0 -76.667 9.83301 -110 29.5s-60 46 -80 79s-30 69.833 -30 110.5c0 40 10 76.667 30 110s46.667 59.833 80 79.5s70 29.5 110 29.5c40.667 0 77.5 -9.83301 110.5 -29.5s59.333 -46.167 79 -79.5s29.5 -70 29.5 -110
c0 -40.667 -9.83301 -77.5 -29.5 -110.5s-46 -59.333 -79 -79s-69.833 -29.5 -110.5 -29.5zM635 1666c30.667 0 56.667 10.833 78 32.5s32 47.5 32 77.5c0 30.667 -10.667 56.667 -32 78s-47.333 32 -78 32c-30 0 -55.833 -10.667 -77.5 -32s-32.5 -47.333 -32.5 -78
c0 -30 10.833 -55.833 32.5 -77.5s47.5 -32.5 77.5 -32.5zM40 0l496 1440h195l496 -1440h-153l-471 1358h58l-468 -1358h-153zM261 349v138h744v-138h-744z" />
    <glyph glyph-name="AE" unicode="&#xc6;" horiz-adv-x="1837" 
d="M40 0l496 1440h357v-141h-315l81 57l-466 -1356h-153zM261 349v138h678v-138h-678zM837 0v1440h900v-141h-754v-498h634v-141h-634v-519h754v-141h-900z" />
    <glyph glyph-name="Ccedilla" unicode="&#xc7;" horiz-adv-x="1431" 
d="M709 -480c-24 0 -46.668 3 -68.001 9s-41.333 13.333 -60 22l38 102c31.333 -12 57.333 -18 78 -18c26 0 46 8.16699 60 24.5s21 34.166 21 53.499c0 30.667 -13.667 52.834 -41 66.501s-58 25.5 -92 35.5l74 206h109l-51 -140c36 -16 65.167 -37.833 87.5 -65.5
s33.5 -63.167 33.5 -106.5c0 -54 -18.667 -99 -56 -135s-81.666 -54 -132.999 -54zM722.999 -30c-143.333 0 -264.333 31.8311 -363 95.498s-173.334 151.834 -224.001 264.501s-76 242.667 -76 390s25.333 277.333 76 390s125.334 200.834 224.001 264.501
s219.667 95.5 363 95.5c167.333 0 304 -42.833 410 -128.5s178.667 -200.5 218 -344.5l-150 -39c-30.667 114 -85.667 204.333 -165 271s-183.666 100 -312.999 100c-112.667 0 -206.334 -25.667 -281.001 -77s-130.834 -122.833 -168.501 -214.5
s-57.167 -197.5 -58.5 -317.5c-0.666992 -120 17.833 -225.667 55.5 -317s94.334 -162.833 170.001 -214.5s169.834 -77.5 282.501 -77.5c129.333 0 233.666 33.5 312.999 100.5s134.333 157.167 165 270.5l150 -39c-39.333 -144 -112 -258.833 -218 -344.5
s-242.667 -128.5 -410 -128.5z" />
    <glyph glyph-name="Egrave" unicode="&#xc8;" horiz-adv-x="1140" 
d="M558 1610l-119 310h126l119 -310h-126zM140 0v1440h900v-141h-753v-498h633v-141h-633v-519h753v-141h-900z" />
    <glyph glyph-name="Eacute" unicode="&#xc9;" horiz-adv-x="1140" 
d="M677 1610h-126l119 310h126zM140 0v1440h900v-141h-753v-498h633v-141h-633v-519h753v-141h-900z" />
    <glyph glyph-name="Ecircumflex" unicode="&#xca;" horiz-adv-x="1140" 
d="M281 1610l230 270h136l229 -270h-150l-147 173l-148 -173h-150zM140 0v1440h900v-141h-753v-498h633v-141h-633v-519h753v-141h-900z" />
    <glyph glyph-name="Edieresis" unicode="&#xcb;" horiz-adv-x="1140" 
d="M680 1651v160h160v-160h-160zM299 1651v160h160v-160h-160zM140 0v1440h900v-141h-753v-498h633v-141h-633v-519h753v-141h-900z" />
    <glyph glyph-name="Igrave" unicode="&#xcc;" horiz-adv-x="467" 
d="M168 1610l-120 310h126l120 -310h-126zM160 0v1440h147v-1440h-147z" />
    <glyph glyph-name="Iacute" unicode="&#xcd;" horiz-adv-x="467" 
d="M299 1610h-126l119 310h126zM160 0v1440h147v-1440h-147z" />
    <glyph glyph-name="Icircumflex" unicode="&#xce;" horiz-adv-x="467" 
d="M-65 1610l229 270h136l229 -270h-150l-147 173l-147 -173h-150zM160 0v1440h147v-1440h-147z" />
    <glyph glyph-name="Idieresis" unicode="&#xcf;" horiz-adv-x="467" 
d="M344 1651v160h160v-160h-160zM-37 1651v160h160v-160h-160zM160 0v1440h147v-1440h-147z" />
    <glyph glyph-name="Eth" unicode="&#xd0;" horiz-adv-x="1331" 
d="M20 657v126h630v-126h-630zM128 0v1440h437c15.333 0 41.5 -0.333008 78.5 -1s72.5 -3.33398 106.5 -8.00098c109.333 -15.333 200.666 -56 273.999 -122s128.333 -150 165 -252s55 -214.333 55 -337s-18.333 -235 -55 -337s-91.667 -186 -165 -252
s-164.666 -106.667 -273.999 -122c-33.333 -4 -69 -6.5 -107 -7.5s-64 -1.5 -78 -1.5h-437zM280 141.001l284.999 -0.00390625c27.333 0 56.833 0.833008 88.5 2.5s58.834 4.83398 81.501 9.50098c84 14.667 151.833 48.667 203.5 102s89.5 120.166 113.5 200.499
s36 168.5 36 264.5c0 96.667 -12 185.334 -36 266.001s-62 147.334 -114 200.001s-119.667 86.334 -203 101.001c-22.667 4.66699 -50.167 7.83398 -82.5 9.50098s-61.5 2.5 -87.5 2.5h-285v-1158z" />
    <glyph glyph-name="Ntilde" unicode="&#xd1;" horiz-adv-x="1369" 
d="M861 1612c-28.667 0 -56.167 5.66602 -82.5 16.999s-52 24.5 -77 39.5s-48.833 28.167 -71.5 39.5s-43.667 17 -63 17c-26 0 -42.667 -10.167 -50 -30.5s-7.33301 -42.166 0 -65.499h-104c-14.667 59.333 -8.66699 109.833 18 151.5s69.334 62.5 128.001 62.5
c28.667 0 56.5 -5.66699 83.5 -17s53 -24.5 78 -39.5s48.667 -28.167 71 -39.5s43.5 -17 63.5 -17c23.333 0 39.5 10 48.5 30s9.16699 43 0.5 69h104c15.333 -58.667 9.66602 -109.5 -17.001 -152.5s-70 -64.5 -130 -64.5zM140 -0.000976562v1440h148l793 -1180v1180h148
v-1440h-148l-793 1181v-1181h-148z" />
    <glyph glyph-name="Ograve" unicode="&#xd2;" horiz-adv-x="1447" 
d="M656 1610l-119 310h126l119 -310h-126zM723 -30c-143.333 0 -264.333 31.833 -363 95.5s-173.334 151.834 -224.001 264.501s-76 242.667 -76 390s25.333 277.333 76 390s125.334 200.834 224.001 264.501s219.667 95.5 363 95.5c144 0 265.167 -31.833 363.5 -95.5
s173 -151.834 224 -264.501s76.5 -242.667 76.5 -390s-25.5 -277.333 -76.5 -390s-125.667 -200.834 -224 -264.501s-219.5 -95.5 -363.5 -95.5zM723 111c112.667 0 206.67 25.6689 282.003 77.002s131.833 122.833 169.5 214.5s56.5 197.5 56.5 317.5
s-18.833 225.667 -56.5 317s-94.167 162.666 -169.5 213.999s-169.333 77.333 -282 78c-112.667 0 -206.334 -25.667 -281.001 -77s-130.834 -122.833 -168.501 -214.5s-56.834 -197.5 -57.501 -317.5s17.833 -225.5 55.5 -316.5s94.167 -162.333 169.5 -214
s169.333 -77.834 282 -78.501z" />
    <glyph glyph-name="Oacute" unicode="&#xd3;" horiz-adv-x="1447" 
d="M804 1610h-126l119 310h126zM723 -30c-143.333 0 -264.333 31.833 -363 95.5s-173.334 151.834 -224.001 264.501s-76 242.667 -76 390s25.333 277.333 76 390s125.334 200.834 224.001 264.501s219.667 95.5 363 95.5c144 0 265.167 -31.833 363.5 -95.5
s173 -151.834 224 -264.501s76.5 -242.667 76.5 -390s-25.5 -277.333 -76.5 -390s-125.667 -200.834 -224 -264.501s-219.5 -95.5 -363.5 -95.5zM723 111c112.667 0 206.67 25.6689 282.003 77.002s131.833 122.833 169.5 214.5s56.5 197.5 56.5 317.5
s-18.833 225.667 -56.5 317s-94.167 162.666 -169.5 213.999s-169.333 77.333 -282 78c-112.667 0 -206.334 -25.667 -281.001 -77s-130.834 -122.833 -168.501 -214.5s-56.834 -197.5 -57.501 -317.5s17.833 -225.5 55.5 -316.5s94.167 -162.333 169.5 -214
s169.333 -77.834 282 -78.501z" />
    <glyph glyph-name="Ocircumflex" unicode="&#xd4;" horiz-adv-x="1447" 
d="M425 1610l229 270h136l229 -270h-150l-147 173l-147 -173h-150zM723 -30c-143.333 0 -264.333 31.833 -363 95.5s-173.334 151.834 -224.001 264.501s-76 242.667 -76 390s25.333 277.333 76 390s125.334 200.834 224.001 264.501s219.667 95.5 363 95.5
c144 0 265.167 -31.833 363.5 -95.5s173 -151.834 224 -264.501s76.5 -242.667 76.5 -390s-25.5 -277.333 -76.5 -390s-125.667 -200.834 -224 -264.501s-219.5 -95.5 -363.5 -95.5zM723 111c112.667 0 206.67 25.6689 282.003 77.002s131.833 122.833 169.5 214.5
s56.5 197.5 56.5 317.5s-18.833 225.667 -56.5 317s-94.167 162.666 -169.5 213.999s-169.333 77.333 -282 78c-112.667 0 -206.334 -25.667 -281.001 -77s-130.834 -122.833 -168.501 -214.5s-56.834 -197.5 -57.501 -317.5s17.833 -225.5 55.5 -316.5
s94.167 -162.333 169.5 -214s169.333 -77.834 282 -78.501z" />
    <glyph glyph-name="Otilde" unicode="&#xd5;" horiz-adv-x="1447" 
d="M723 -30c-143.333 0 -264.333 31.833 -363 95.5s-173.334 151.834 -224.001 264.501s-76 242.667 -76 390s25.333 277.333 76 390s125.334 200.834 224.001 264.501s219.667 95.5 363 95.5c144 0 265.167 -31.833 363.5 -95.5s173 -151.834 224 -264.501
s76.5 -242.667 76.5 -390s-25.5 -277.333 -76.5 -390s-125.667 -200.834 -224 -264.501s-219.5 -95.5 -363.5 -95.5zM723 111c112.667 0 206.67 25.6689 282.003 77.002s131.833 122.833 169.5 214.5s56.5 197.5 56.5 317.5s-18.833 225.667 -56.5 317
s-94.167 162.666 -169.5 213.999s-169.333 77.333 -282 78c-112.667 0 -206.334 -25.667 -281.001 -77s-130.834 -122.833 -168.501 -214.5s-56.834 -197.5 -57.501 -317.5s17.833 -225.5 55.5 -316.5s94.167 -162.333 169.5 -214s169.333 -77.834 282 -78.501z
M888.003 1612c-28 0 -55.333 5.66602 -82 16.999s-52.5 24.5 -77.5 39.5s-48.667 28.167 -71 39.5s-43.5 17 -63.5 17c-26 0 -42.5 -10.167 -49.5 -30.5s-6.83301 -42.166 0.5 -65.499h-104c-15.333 59.333 -9.5 109.833 17.5 151.5s69.833 62.5 128.5 62.5
c28.667 0 56.334 -5.66699 83.001 -17s52.5 -24.5 77.5 -39.5s48.667 -28.167 71 -39.5s43.5 -17 63.5 -17c23.333 0 39.5 10 48.5 30s9.16699 43 0.5 69h104c15.333 -58.667 9.66602 -109.5 -17.001 -152.5s-70 -64.5 -130 -64.5z" />
    <glyph glyph-name="Odieresis" unicode="&#xd6;" horiz-adv-x="1447" 
d="M834 1651v160h160v-160h-160zM453 1651v160h160v-160h-160zM723 -30c-143.333 0 -264.333 31.833 -363 95.5s-173.334 151.834 -224.001 264.501s-76 242.667 -76 390s25.333 277.333 76 390s125.334 200.834 224.001 264.501s219.667 95.5 363 95.5
c144 0 265.167 -31.833 363.5 -95.5s173 -151.834 224 -264.501s76.5 -242.667 76.5 -390s-25.5 -277.333 -76.5 -390s-125.667 -200.834 -224 -264.501s-219.5 -95.5 -363.5 -95.5zM723 111c112.667 0 206.67 25.6689 282.003 77.002s131.833 122.833 169.5 214.5
s56.5 197.5 56.5 317.5s-18.833 225.667 -56.5 317s-94.167 162.666 -169.5 213.999s-169.333 77.333 -282 78c-112.667 0 -206.334 -25.667 -281.001 -77s-130.834 -122.833 -168.501 -214.5s-56.834 -197.5 -57.501 -317.5s17.833 -225.5 55.5 -316.5
s94.167 -162.333 169.5 -214s169.333 -77.834 282 -78.501z" />
    <glyph glyph-name="multiply" unicode="&#xd7;" horiz-adv-x="975" 
d="M767 352l-279 279l-279 -279l-89 90l279 278l-279 278l89 89l279 -278l278 278l89 -89l-279 -278l279 -278z" />
    <glyph glyph-name="Oslash" unicode="&#xd8;" horiz-adv-x="1447" 
d="M143 -26l-105 95l186 203l26 26l866 941l17 20l185 202l105 -94l-200 -220l-19 -16l-865 -942l-22 -27zM723 -30c-143.333 0 -264.333 31.833 -363 95.5s-173.334 151.834 -224.001 264.501s-76 242.667 -76 390s25.333 277.333 76 390s125.334 200.834 224.001 264.501
s219.667 95.5 363 95.5c144 0 265.167 -31.833 363.5 -95.5s173 -151.834 224 -264.501s76.5 -242.667 76.5 -390s-25.5 -277.333 -76.5 -390s-125.667 -200.834 -224 -264.501s-219.5 -95.5 -363.5 -95.5zM723 111c112.667 0 206.67 25.6689 282.003 77.002
s131.833 122.833 169.5 214.5s56.5 197.5 56.5 317.5s-18.833 225.667 -56.5 317s-94.167 162.666 -169.5 213.999s-169.333 77.333 -282 78c-112.667 0 -206.334 -25.667 -281.001 -77s-130.834 -122.833 -168.501 -214.5s-56.834 -197.5 -57.501 -317.5
s17.833 -225.5 55.5 -316.5s94.167 -162.333 169.5 -214s169.333 -77.834 282 -78.501z" />
    <glyph glyph-name="Ugrave" unicode="&#xd9;" horiz-adv-x="1404" 
d="M660 1610l-119 310h126l119 -310h-126zM702 -30c-110 0 -207.169 22.666 -291.502 67.999s-150.5 109.333 -198.5 192s-72 179.334 -72 290.001v919l148 1v-901c0 -74.667 12.667 -139.167 38 -193.5s58.5 -99 99.5 -134s85.833 -60.833 134.5 -77.5s96 -25 142 -25
c46.667 0 94.334 8.33301 143.001 25s93.334 42.5 134.001 77.5s73.667 79.667 99 134s38 118.833 38 193.5v901h148v-920c0 -110.667 -24 -207.167 -72 -289.5s-114.167 -146.333 -198.5 -192s-181.5 -68.5 -291.5 -68.5z" />
    <glyph glyph-name="Uacute" unicode="&#xda;" horiz-adv-x="1404" 
d="M749 1610h-126l119 310h126zM702 -30c-110 0 -207.169 22.666 -291.502 67.999s-150.5 109.333 -198.5 192s-72 179.334 -72 290.001v919l148 1v-901c0 -74.667 12.667 -139.167 38 -193.5s58.5 -99 99.5 -134s85.833 -60.833 134.5 -77.5s96 -25 142 -25
c46.667 0 94.334 8.33301 143.001 25s93.334 42.5 134.001 77.5s73.667 79.667 99 134s38 118.833 38 193.5v901h148v-920c0 -110.667 -24 -207.167 -72 -289.5s-114.167 -146.333 -198.5 -192s-181.5 -68.5 -291.5 -68.5z" />
    <glyph glyph-name="Ucircumflex" unicode="&#xdb;" horiz-adv-x="1404" 
d="M403 1610l230 270h136l229 -270h-150l-147 173l-148 -173h-150zM702 -30c-110 0 -207.169 22.666 -291.502 67.999s-150.5 109.333 -198.5 192s-72 179.334 -72 290.001v919l148 1v-901c0 -74.667 12.667 -139.167 38 -193.5s58.5 -99 99.5 -134
s85.833 -60.833 134.5 -77.5s96 -25 142 -25c46.667 0 94.334 8.33301 143.001 25s93.334 42.5 134.001 77.5s73.667 79.667 99 134s38 118.833 38 193.5v901h148v-920c0 -110.667 -24 -207.167 -72 -289.5s-114.167 -146.333 -198.5 -192s-181.5 -68.5 -291.5 -68.5z" />
    <glyph glyph-name="Udieresis" unicode="&#xdc;" horiz-adv-x="1404" 
d="M813 1651v160h160v-160h-160zM431 1651v160h160v-160h-160zM702 -30c-110 0 -207.169 22.666 -291.502 67.999s-150.5 109.333 -198.5 192s-72 179.334 -72 290.001v919l148 1v-901c0 -74.667 12.667 -139.167 38 -193.5s58.5 -99 99.5 -134s85.833 -60.833 134.5 -77.5
s96 -25 142 -25c46.667 0 94.334 8.33301 143.001 25s93.334 42.5 134.001 77.5s73.667 79.667 99 134s38 118.833 38 193.5v901h148v-920c0 -110.667 -24 -207.167 -72 -289.5s-114.167 -146.333 -198.5 -192s-181.5 -68.5 -291.5 -68.5z" />
    <glyph glyph-name="Yacute" unicode="&#xdd;" horiz-adv-x="1112" 
d="M600 1610h-126l119 310h126zM483 0v603l-483 837h170l387 -669l385 669h170l-481 -837v-603h-148z" />
    <glyph glyph-name="Thorn" unicode="&#xde;" horiz-adv-x="1189" 
d="M140 0v1440h148v-273h393c51.333 0 101.666 -9.33301 150.999 -28c33.333 -11.333 65 -27 95 -47s56.667 -43.333 80 -70c38.667 -40 68.667 -86.5 90 -139.5s32 -107.167 32 -162.5c0.666992 -52.667 -8.66602 -103.834 -27.999 -153.501s-46 -94.167 -80 -133.5
c-39.333 -48.667 -89.333 -87.334 -150 -116.001s-124 -43 -190 -43h-393v-274h-148zM288 415.002h391.999c42 0 83.5 10 124.5 30s75.5 47.333 103.5 82c22 27.333 39.333 57.5 52 90.5s18.334 67.167 17.001 102.5c-0.666992 40 -8.5 78.667 -23.5 116s-36.5 70 -64.5 98
c-26 27.333 -57.833 49.333 -95.5 66s-75.5 25 -113.5 25h-392v-610z" />
    <glyph glyph-name="germandbls" unicode="&#xdf;" horiz-adv-x="1197" 
d="M625 -29c-34.667 0 -67.168 2.00098 -97.501 6.00098s-59.166 11.667 -86.499 23v145c27.333 -9.33301 54.333 -16.333 81 -21s56.334 -7 89.001 -7c94 0 170.167 25.5 228.5 76.5s87.5 123.833 87.5 218.5c0 90 -35 160 -105 210s-162 76 -276 78v135
c46 4.66699 88.333 16.667 127 36s69.5 46.5 92.5 81.5s34.5 78.833 34.5 131.5c0 77.333 -23.333 137.5 -70 180.5s-107.667 64.5 -183 64.5c-52 0 -99.333 -11.333 -142 -34s-73 -59.334 -91 -110.001c-8 -22.667 -13.667 -48 -17 -76s-5 -56.667 -5 -86v-1023h-153v1063
c0 33.333 2.16699 64.333 6.5 93s10.833 54.334 19.5 77.001c19.333 53.333 47 97.5 83 132.5s79.167 61.167 129.5 78.5s106.166 26 167.499 26c79.333 0 149.5 -15.333 210.5 -46s108.833 -74.834 143.5 -132.501s52 -126.5 52 -206.5c0 -68 -14.667 -128.667 -44 -182
s-72.333 -91.333 -129 -114c32 -6 65.333 -18.5 100 -37.5s67 -44.5 97 -76.5s54.5 -70 73.5 -114s28.5 -94 28.5 -150c0 -133.333 -38.667 -240 -116 -320s-189.333 -120 -336 -120z" />
    <glyph glyph-name="agrave" unicode="&#xe0;" horiz-adv-x="1111" 
d="M509 1250l-120 310h126l120 -310h-126zM449 -30c-81.333 0 -149.502 14.667 -204.502 44s-96.167 68.333 -123.5 117s-41 101.667 -41 159c0 58.667 11.833 108.834 35.5 150.501s56 75.834 97 102.501s88.5 47 142.5 61c54.667 13.333 115.167 25.166 181.5 35.499
s131.333 19.333 195 27s119.5 15.167 167.5 22.5l-52 -32c2 106.667 -18.667 185.667 -62 237s-118.666 77 -225.999 77c-74 0 -136.5 -16.667 -187.5 -50s-86.833 -86 -107.5 -158l-143 42c24.667 96.667 74.334 171.667 149.001 225s171.667 80 291 80
c98.667 0 182.5 -18.5 251.5 -55.5s117.833 -90.5 146.5 -160.5c13.333 -31.333 22 -66.333 26 -105s6 -78 6 -118v-671h-131v271l38 -16c-36.667 -92.667 -93.667 -163.334 -171 -212.001s-170 -73 -278 -73zM465.998 97c68.667 0 128.668 12.332 180.001 36.999
s92.666 58.5 123.999 101.5s51.666 91.5 60.999 145.5c8 34.667 12.333 72.834 13 114.501s1 72.834 1 93.501l56 -29c-50 -6.66699 -104.167 -13.334 -162.5 -20.001s-115.666 -14.334 -171.999 -23.001s-107.166 -19 -152.499 -31
c-30.667 -8.66699 -60.334 -20.834 -89.001 -36.501s-52.167 -36.5 -70.5 -62.5s-27.5 -58.333 -27.5 -97c0 -31.333 7.83301 -61.666 23.5 -90.999s41 -53.666 76 -72.999s81.5 -29 139.5 -29z" />
    <glyph glyph-name="aacute" unicode="&#xe1;" horiz-adv-x="1111" 
d="M630 1250h-126l120 310h126zM449 -30c-81.333 0 -149.502 14.667 -204.502 44s-96.167 68.333 -123.5 117s-41 101.667 -41 159c0 58.667 11.833 108.834 35.5 150.501s56 75.834 97 102.501s88.5 47 142.5 61c54.667 13.333 115.167 25.166 181.5 35.499
s131.333 19.333 195 27s119.5 15.167 167.5 22.5l-52 -32c2 106.667 -18.667 185.667 -62 237s-118.666 77 -225.999 77c-74 0 -136.5 -16.667 -187.5 -50s-86.833 -86 -107.5 -158l-143 42c24.667 96.667 74.334 171.667 149.001 225s171.667 80 291 80
c98.667 0 182.5 -18.5 251.5 -55.5s117.833 -90.5 146.5 -160.5c13.333 -31.333 22 -66.333 26 -105s6 -78 6 -118v-671h-131v271l38 -16c-36.667 -92.667 -93.667 -163.334 -171 -212.001s-170 -73 -278 -73zM465.998 97c68.667 0 128.668 12.332 180.001 36.999
s92.666 58.5 123.999 101.5s51.666 91.5 60.999 145.5c8 34.667 12.333 72.834 13 114.501s1 72.834 1 93.501l56 -29c-50 -6.66699 -104.167 -13.334 -162.5 -20.001s-115.666 -14.334 -171.999 -23.001s-107.166 -19 -152.499 -31
c-30.667 -8.66699 -60.334 -20.834 -89.001 -36.501s-52.167 -36.5 -70.5 -62.5s-27.5 -58.333 -27.5 -97c0 -31.333 7.83301 -61.666 23.5 -90.999s41 -53.666 76 -72.999s81.5 -29 139.5 -29z" />
    <glyph glyph-name="acircumflex" unicode="&#xe2;" horiz-adv-x="1111" 
d="M273 1250l230 270h136l229 -270h-150l-147 173l-148 -173h-150zM449 -30c-81.333 0 -149.502 14.667 -204.502 44s-96.167 68.333 -123.5 117s-41 101.667 -41 159c0 58.667 11.833 108.834 35.5 150.501s56 75.834 97 102.501s88.5 47 142.5 61
c54.667 13.333 115.167 25.166 181.5 35.499s131.333 19.333 195 27s119.5 15.167 167.5 22.5l-52 -32c2 106.667 -18.667 185.667 -62 237s-118.666 77 -225.999 77c-74 0 -136.5 -16.667 -187.5 -50s-86.833 -86 -107.5 -158l-143 42
c24.667 96.667 74.334 171.667 149.001 225s171.667 80 291 80c98.667 0 182.5 -18.5 251.5 -55.5s117.833 -90.5 146.5 -160.5c13.333 -31.333 22 -66.333 26 -105s6 -78 6 -118v-671h-131v271l38 -16c-36.667 -92.667 -93.667 -163.334 -171 -212.001s-170 -73 -278 -73z
M465.998 97c68.667 0 128.668 12.332 180.001 36.999s92.666 58.5 123.999 101.5s51.666 91.5 60.999 145.5c8 34.667 12.333 72.834 13 114.501s1 72.834 1 93.501l56 -29c-50 -6.66699 -104.167 -13.334 -162.5 -20.001s-115.666 -14.334 -171.999 -23.001
s-107.166 -19 -152.499 -31c-30.667 -8.66699 -60.334 -20.834 -89.001 -36.501s-52.167 -36.5 -70.5 -62.5s-27.5 -58.333 -27.5 -97c0 -31.333 7.83301 -61.666 23.5 -90.999s41 -53.666 76 -72.999s81.5 -29 139.5 -29z" />
    <glyph glyph-name="atilde" unicode="&#xe3;" horiz-adv-x="1111" 
d="M731 1252c-28 0 -55.3359 5.66602 -82.0029 16.999s-52.5 24.5 -77.5 39.5s-48.667 28.167 -71 39.5s-43.5 17 -63.5 17c-25.333 0 -41.666 -10.167 -48.999 -30.5s-7.33301 -42.166 0 -65.499h-104c-14.667 59.333 -8.66699 109.833 18 151.5s69.334 62.5 128.001 62.5
c28.667 0 56.334 -5.66699 83.001 -17s52.5 -24.5 77.5 -39.5s48.833 -28.167 71.5 -39.5s43.667 -17 63 -17c24 0 40.333 10 49 30s9 43 1 69h104c14.667 -58.667 8.66699 -109.5 -18 -152.5s-70 -64.5 -130 -64.5zM448.997 -30.001c-81.333 0 -149.502 14.667 -204.502 44
s-96.167 68.333 -123.5 117s-41 101.667 -41 159c0 58.667 11.833 108.834 35.5 150.501s56 75.834 97 102.501s88.5 47 142.5 61c54.667 13.333 115.167 25.166 181.5 35.499s131.333 19.333 195 27s119.5 15.167 167.5 22.5l-52 -32c2 106.667 -18.667 185.667 -62 237
s-118.666 77 -225.999 77c-74 0 -136.5 -16.667 -187.5 -50s-86.833 -86 -107.5 -158l-143 42c24.667 96.667 74.334 171.667 149.001 225s171.667 80 291 80c98.667 0 182.5 -18.5 251.5 -55.5s117.833 -90.5 146.5 -160.5c13.333 -31.333 22 -66.333 26 -105s6 -78 6 -118
v-671h-131v271l38 -16c-36.667 -92.667 -93.667 -163.334 -171 -212.001s-170 -73 -278 -73zM465.995 96.999c68.667 0 128.668 12.332 180.001 36.999s92.666 58.5 123.999 101.5s51.666 91.5 60.999 145.5c8 34.667 12.333 72.834 13 114.501s1 72.834 1 93.501l56 -29
c-50 -6.66699 -104.167 -13.334 -162.5 -20.001s-115.666 -14.334 -171.999 -23.001s-107.166 -19 -152.499 -31c-30.667 -8.66699 -60.334 -20.834 -89.001 -36.501s-52.167 -36.5 -70.5 -62.5s-27.5 -58.333 -27.5 -97c0 -31.333 7.83301 -61.666 23.5 -90.999
s41 -53.666 76 -72.999s81.5 -29 139.5 -29z" />
    <glyph glyph-name="adieresis" unicode="&#xe4;" horiz-adv-x="1111" 
d="M689 1291v160h160v-160h-160zM308 1291v160h160v-160h-160zM449 -30c-81.333 0 -149.502 14.667 -204.502 44s-96.167 68.333 -123.5 117s-41 101.667 -41 159c0 58.667 11.833 108.834 35.5 150.501s56 75.834 97 102.501s88.5 47 142.5 61
c54.667 13.333 115.167 25.166 181.5 35.499s131.333 19.333 195 27s119.5 15.167 167.5 22.5l-52 -32c2 106.667 -18.667 185.667 -62 237s-118.666 77 -225.999 77c-74 0 -136.5 -16.667 -187.5 -50s-86.833 -86 -107.5 -158l-143 42
c24.667 96.667 74.334 171.667 149.001 225s171.667 80 291 80c98.667 0 182.5 -18.5 251.5 -55.5s117.833 -90.5 146.5 -160.5c13.333 -31.333 22 -66.333 26 -105s6 -78 6 -118v-671h-131v271l38 -16c-36.667 -92.667 -93.667 -163.334 -171 -212.001s-170 -73 -278 -73z
M465.998 97c68.667 0 128.668 12.332 180.001 36.999s92.666 58.5 123.999 101.5s51.666 91.5 60.999 145.5c8 34.667 12.333 72.834 13 114.501s1 72.834 1 93.501l56 -29c-50 -6.66699 -104.167 -13.334 -162.5 -20.001s-115.666 -14.334 -171.999 -23.001
s-107.166 -19 -152.499 -31c-30.667 -8.66699 -60.334 -20.834 -89.001 -36.501s-52.167 -36.5 -70.5 -62.5s-27.5 -58.333 -27.5 -97c0 -31.333 7.83301 -61.666 23.5 -90.999s41 -53.666 76 -72.999s81.5 -29 139.5 -29z" />
    <glyph glyph-name="aring" unicode="&#xe5;" horiz-adv-x="1111" 
d="M570 1197c-40 0 -76.667 9.83301 -110 29.5s-59.833 46 -79.5 79s-29.5 69.833 -29.5 110.5c0 40 9.83301 76.667 29.5 110s46.167 59.833 79.5 79.5s70 29.5 110 29.5c40.667 0 77.5 -9.83301 110.5 -29.5s59.333 -46.167 79 -79.5s29.5 -70 29.5 -110
c0 -40.667 -9.83301 -77.5 -29.5 -110.5s-46 -59.333 -79 -79s-69.833 -29.5 -110.5 -29.5zM570 1306c31.333 0 57.5 10.833 78.5 32.5s31.5 47.5 31.5 77.5c0 30.667 -10.5 56.667 -31.5 78s-47.167 32 -78.5 32c-30 0 -55.833 -10.667 -77.5 -32s-32.5 -47.333 -32.5 -78
c0 -30 10.833 -55.833 32.5 -77.5s47.5 -32.5 77.5 -32.5zM449 -30c-81.333 0 -149.502 14.667 -204.502 44s-96.167 68.333 -123.5 117s-41 101.667 -41 159c0 58.667 11.833 108.834 35.5 150.501s56 75.834 97 102.501s88.5 47 142.5 61
c54.667 13.333 115.167 25.166 181.5 35.499s131.333 19.333 195 27s119.5 15.167 167.5 22.5l-52 -32c2 106.667 -18.667 185.667 -62 237s-118.666 77 -225.999 77c-74 0 -136.5 -16.667 -187.5 -50s-86.833 -86 -107.5 -158l-143 42
c24.667 96.667 74.334 171.667 149.001 225s171.667 80 291 80c98.667 0 182.5 -18.5 251.5 -55.5s117.833 -90.5 146.5 -160.5c13.333 -31.333 22 -66.333 26 -105s6 -78 6 -118v-671h-131v271l38 -16c-36.667 -92.667 -93.667 -163.334 -171 -212.001s-170 -73 -278 -73z
M465.998 97c68.667 0 128.668 12.332 180.001 36.999s92.666 58.5 123.999 101.5s51.666 91.5 60.999 145.5c8 34.667 12.333 72.834 13 114.501s1 72.834 1 93.501l56 -29c-50 -6.66699 -104.167 -13.334 -162.5 -20.001s-115.666 -14.334 -171.999 -23.001
s-107.166 -19 -152.499 -31c-30.667 -8.66699 -60.334 -20.834 -89.001 -36.501s-52.167 -36.5 -70.5 -62.5s-27.5 -58.333 -27.5 -97c0 -31.333 7.83301 -61.666 23.5 -90.999s41 -53.666 76 -72.999s81.5 -29 139.5 -29z" />
    <glyph glyph-name="ae" unicode="&#xe6;" horiz-adv-x="1884" 
d="M1339 -30c-103.333 0 -191.502 24.333 -264.502 73s-128.667 115.667 -167 201s-57.5 183 -57.5 293c0 114 19.333 214 58 300s94.334 153 167.001 201s160 72 262 72c105.333 0 193 -25.833 263 -77.5s122 -123.334 156 -215.001s49.667 -197.834 47 -318.501h-143v52
c-2.66699 131.333 -29.167 234.833 -79.5 310.5s-132.5 113.5 -246.5 113.5c-77.333 0 -141 -18.5 -191 -55.5s-86.833 -88.167 -110.5 -153.5s-35.5 -140.666 -35.5 -225.999c0 -129.333 28.333 -233.166 85 -311.499s140.667 -117.5 252 -117.5
c70 0 132.667 17.167 188 51.5s98.666 86.5 129.999 156.5l130 -53c-26.667 -63.333 -62.167 -117 -106.5 -161s-95.166 -77.5 -152.499 -100.5s-118.666 -34.5 -183.999 -34.5zM465.998 97c77.333 0 145.999 17.501 205.999 52.501s103 79.5 129 133.5
c16 31.333 27.167 65.333 33.5 102s10 70.167 11 100.5s1.16699 52.166 0.5 65.499l35 -38l-309 -10c-29.333 -0.666992 -63.666 -3 -102.999 -7s-77.333 -12.5 -114 -25.5s-67.167 -33.5 -91.5 -61.5s-36.5 -66.667 -36.5 -116c0 -62 21.333 -110.167 64 -144.5
s101 -51.5 175 -51.5zM458.997 -29.999c-119.333 0 -212.331 29.167 -278.998 87.5s-100 136.166 -100 233.499c0 60 11.5 109.667 34.5 149s53 70.5 90 93.5s77 40.167 120 51.5s84.667 19 125 23s74.833 7 103.5 9l314 10l-22 -25c4.66699 82 -2.5 150.5 -21.5 205.5
s-50.167 96 -93.5 123s-99 40.5 -167 40.5c-70.667 0 -133.5 -15 -188.5 -45s-92.833 -81 -113.5 -153l-140 43c17.333 62 47.166 114.833 89.499 158.5s93.666 77.167 153.999 100.5s126.833 35 199.5 35c112 0 202 -24.167 270 -72.5s113.667 -115.5 137 -201.5
c9.33301 -30 15 -59.667 17 -89s3 -56.666 3 -81.999l-63 -394c-29.333 -76 -68.5 -136 -117.5 -180s-103.833 -75.167 -164.5 -93.5s-123 -27.5 -187 -27.5zM946.999 499.001v126h781v-126h-781z" />
    <glyph glyph-name="ccedilla" unicode="&#xe7;" horiz-adv-x="1107" 
d="M539 -480c-24 0 -46.501 3 -67.501 9s-40.833 13.333 -59.5 22l38 102c30.667 -12 56.334 -18 77.001 -18c26 0 46.167 8.16699 60.5 24.5s21.5 34.166 21.5 53.499c0 30.667 -13.667 52.834 -41 66.501s-58 25.5 -92 35.5l74 206h109l-51 -140
c36 -16 65.167 -37.833 87.5 -65.5s33.5 -63.167 33.5 -106.5c0 -54 -18.833 -99 -56.5 -135s-82.167 -54 -133.5 -54zM587.999 -30c-108.667 0 -200.668 24.3281 -276.001 72.9951s-132.5 115.834 -171.5 201.501s-59.167 184.167 -60.5 295.5
c1.33301 113.333 22 212.833 62 298.5s97.667 152.334 173 200.001s166.666 71.5 273.999 71.5c109.333 0 204.5 -26.667 285.5 -80s136.5 -126.333 166.5 -219l-144 -46c-25.333 64.667 -65.5 114.834 -120.5 150.501s-117.833 53.5 -188.5 53.5
c-79.333 0 -145 -18.167 -197 -54.5s-90.667 -86.833 -116 -151.5s-38.333 -139 -39 -223c1.33301 -129.333 31.333 -233.166 90 -311.499s146 -117.5 262 -117.5c73.333 0 135.833 16.833 187.5 50.5s90.834 82.834 117.501 147.501l148 -44
c-40 -96 -98.667 -169.167 -176 -219.5s-169.666 -75.5 -276.999 -75.5z" />
    <glyph glyph-name="egrave" unicode="&#xe8;" horiz-adv-x="1169" 
d="M542 1250l-119 310h126l119 -310h-126zM597 -30c-105.333 0 -196.499 23.3311 -273.499 69.998s-136.833 112.334 -179.5 197.001s-64 184 -64 298c0 118 21 220 63 306s101.167 152.333 177.5 199s166.5 70 270.5 70c106.667 0 197.667 -24.5 273 -73.5
s132.333 -119.167 171 -210.5s56.334 -200.333 53.001 -327h-150v52c-2.66699 140 -32.834 245.667 -90.501 317s-141.834 107 -252.501 107c-116 0 -204.833 -37.667 -266.5 -113s-92.5 -182.666 -92.5 -321.999c0 -136 30.833 -241.5 92.5 -316.5
s149.167 -112.5 262.5 -112.5c77.333 0 144.833 17.833 202.5 53.5s103.167 87.167 136.5 154.5l137 -53c-42.667 -94 -105.5 -166.833 -188.5 -218.5s-176.833 -77.5 -281.5 -77.5zM184.001 498.998v123h825v-123h-825z" />
    <glyph glyph-name="eacute" unicode="&#xe9;" horiz-adv-x="1169" 
d="M676 1250h-126l119 310h126zM597 -30c-105.333 0 -196.499 23.3311 -273.499 69.998s-136.833 112.334 -179.5 197.001s-64 184 -64 298c0 118 21 220 63 306s101.167 152.333 177.5 199s166.5 70 270.5 70c106.667 0 197.667 -24.5 273 -73.5
s132.333 -119.167 171 -210.5s56.334 -200.333 53.001 -327h-150v52c-2.66699 140 -32.834 245.667 -90.501 317s-141.834 107 -252.501 107c-116 0 -204.833 -37.667 -266.5 -113s-92.5 -182.666 -92.5 -321.999c0 -136 30.833 -241.5 92.5 -316.5
s149.167 -112.5 262.5 -112.5c77.333 0 144.833 17.833 202.5 53.5s103.167 87.167 136.5 154.5l137 -53c-42.667 -94 -105.5 -166.833 -188.5 -218.5s-176.833 -77.5 -281.5 -77.5zM184.001 498.998v123h825v-123h-825z" />
    <glyph glyph-name="ecircumflex" unicode="&#xea;" horiz-adv-x="1169" 
d="M293 1250l229 270h136l229 -270h-150l-147 173l-147 -173h-150zM597 -30c-105.333 0 -196.499 23.3311 -273.499 69.998s-136.833 112.334 -179.5 197.001s-64 184 -64 298c0 118 21 220 63 306s101.167 152.333 177.5 199s166.5 70 270.5 70
c106.667 0 197.667 -24.5 273 -73.5s132.333 -119.167 171 -210.5s56.334 -200.333 53.001 -327h-150v52c-2.66699 140 -32.834 245.667 -90.501 317s-141.834 107 -252.501 107c-116 0 -204.833 -37.667 -266.5 -113s-92.5 -182.666 -92.5 -321.999
c0 -136 30.833 -241.5 92.5 -316.5s149.167 -112.5 262.5 -112.5c77.333 0 144.833 17.833 202.5 53.5s103.167 87.167 136.5 154.5l137 -53c-42.667 -94 -105.5 -166.833 -188.5 -218.5s-176.833 -77.5 -281.5 -77.5zM184.001 498.998v123h825v-123h-825z" />
    <glyph glyph-name="edieresis" unicode="&#xeb;" horiz-adv-x="1169" 
d="M702 1291v160h160v-160h-160zM321 1291v160h160v-160h-160zM597 -30c-105.333 0 -196.499 23.3311 -273.499 69.998s-136.833 112.334 -179.5 197.001s-64 184 -64 298c0 118 21 220 63 306s101.167 152.333 177.5 199s166.5 70 270.5 70
c106.667 0 197.667 -24.5 273 -73.5s132.333 -119.167 171 -210.5s56.334 -200.333 53.001 -327h-150v52c-2.66699 140 -32.834 245.667 -90.501 317s-141.834 107 -252.501 107c-116 0 -204.833 -37.667 -266.5 -113s-92.5 -182.666 -92.5 -321.999
c0 -136 30.833 -241.5 92.5 -316.5s149.167 -112.5 262.5 -112.5c77.333 0 144.833 17.833 202.5 53.5s103.167 87.167 136.5 154.5l137 -53c-42.667 -94 -105.5 -166.833 -188.5 -218.5s-176.833 -77.5 -281.5 -77.5zM184.001 498.998v123h825v-123h-825z" />
    <glyph glyph-name="igrave" unicode="&#xec;" horiz-adv-x="467" 
d="M168 1250l-120 310h126l120 -310h-126zM160 0v1080h147v-1080h-147z" />
    <glyph glyph-name="iacute" unicode="&#xed;" horiz-adv-x="467" 
d="M299 1250h-126l119 310h126zM160 0v1080h147v-1080h-147z" />
    <glyph glyph-name="icircumflex" unicode="&#xee;" horiz-adv-x="467" 
d="M-59 1250l230 270h136l229 -270h-150l-147 173l-148 -173h-150zM160 0v1080h147v-1080h-147z" />
    <glyph glyph-name="idieresis" unicode="&#xef;" horiz-adv-x="467" 
d="M344 1291v160h160v-160h-160zM-37 1291v160h160v-160h-160zM160 0v1080h147v-1080h-147z" />
    <glyph glyph-name="eth" unicode="&#xf0;" horiz-adv-x="1165" 
d="M583 -30c-103.333 -0.666992 -192.334 21.1689 -267.001 65.502s-132.5 106.666 -173.5 186.999s-61.833 173.833 -62.5 280.5c0.666992 108 21.5 202.167 62.5 282.5s99 142.666 174 186.999s163.833 65.833 266.5 64.5c66.667 1.33301 130.667 -10.334 192 -35.001
s114.666 -62.334 159.999 -113.001c-10.667 90 -37.667 169.167 -81 237.5s-100.166 122.833 -170.499 163.5s-151.166 64.334 -242.499 71.001l20 123c112.667 -5.33301 211 -32.5 295 -81.5s151 -117.5 201 -205.5c33.333 -52.667 59.333 -109.667 78 -171
s31.667 -133.666 39 -216.999s11 -184 11 -302c0 -108.667 -20.333 -203.5 -61 -284.5s-98.5 -143.5 -173.5 -187.5s-164.167 -65.667 -267.5 -65zM582.999 106.003c114 0 200.999 35.833 260.999 107.5s90 168.834 90 291.501c0 124 -30.667 221.333 -92 292
s-147.666 105.334 -258.999 104.001c-114 1.33301 -201.167 -33.834 -261.5 -105.501s-90.5 -168.834 -90.5 -291.501c0 -125.333 30.333 -223 91 -293s147.667 -105 261 -105zM616.998 1125l-93 78l295 362l94 -79z" />
    <glyph glyph-name="ntilde" unicode="&#xf1;" 
d="M745 1252c-28.667 0 -56.167 5.66602 -82.5 16.999s-52 24.5 -77 39.5s-48.833 28.167 -71.5 39.5s-43.667 17 -63 17c-26 0 -42.667 -10.167 -50 -30.5s-7.33301 -42.166 0 -65.499h-104c-14.667 59.333 -8.66699 109.833 18 151.5s69.334 62.5 128.001 62.5
c28.667 0 56.5 -5.66699 83.5 -17s53 -24.5 78 -39.5s48.667 -28.167 71 -39.5s43.5 -17 63.5 -17c23.333 0 39.5 10 48.5 30s9.16699 43 0.5 69h104c15.333 -58.667 9.66602 -109.5 -17.001 -152.5s-70 -64.5 -130 -64.5zM920 -0.000976562v550.999
c0 60 -5.66699 115.167 -17 165.5s-29.5 94.333 -54.5 132s-57.333 66.834 -97 87.501s-87.834 31 -144.501 31c-52 0 -97.833 -9 -137.5 -27s-73 -43.833 -100 -77.5s-47.5 -74.5 -61.5 -122.5s-21 -102.667 -21 -164l-104 23c0 110.667 19.333 203.667 58 279
s92 132.333 160 171s146 58 234 58c64.667 0 121.167 -10 169.5 -30s89.333 -47 123 -81s60.834 -72.833 81.501 -116.5s35.667 -90 45 -139s14 -97.833 14 -146.5v-594h-148zM139 -0.00195312v1080h133v-266h15v-814h-148z" />
    <glyph glyph-name="ograve" unicode="&#xf2;" horiz-adv-x="1183" 
d="M520 1250l-120 310h126l120 -310h-126zM591 -30c-107.333 0 -198.995 24.334 -274.995 73.001s-134.333 116 -175 202s-61 184.667 -61 296c0 113.333 20.667 212.666 62 297.999s100.166 151.833 176.499 199.5s167.166 71.5 272.499 71.5
c108 0 200.167 -24.167 276.5 -72.5s134.666 -115.333 174.999 -201s60.5 -184.167 60.5 -295.5c0 -113.333 -20.333 -212.833 -61 -298.5s-99.334 -152.5 -176.001 -200.5s-168.334 -72 -275.001 -72zM591.005 111.001c120 0 209.333 39.832 268 119.499
s88 183.167 88 310.5c0 130.667 -29.5 234.667 -88.5 312s-148.167 116 -267.5 116c-80.667 0 -147.167 -18.167 -199.5 -54.5s-91.333 -86.666 -117 -150.999s-38.5 -138.5 -38.5 -222.5c0 -130 30 -234.167 90 -312.5s148.333 -117.5 265 -117.5z" />
    <glyph glyph-name="oacute" unicode="&#xf3;" horiz-adv-x="1183" 
d="M654 1250h-126l119 310h126zM591 -30c-107.333 0 -198.995 24.334 -274.995 73.001s-134.333 116 -175 202s-61 184.667 -61 296c0 113.333 20.667 212.666 62 297.999s100.166 151.833 176.499 199.5s167.166 71.5 272.499 71.5c108 0 200.167 -24.167 276.5 -72.5
s134.666 -115.333 174.999 -201s60.5 -184.167 60.5 -295.5c0 -113.333 -20.333 -212.833 -61 -298.5s-99.334 -152.5 -176.001 -200.5s-168.334 -72 -275.001 -72zM591.005 111.001c120 0 209.333 39.832 268 119.499s88 183.167 88 310.5
c0 130.667 -29.5 234.667 -88.5 312s-148.167 116 -267.5 116c-80.667 0 -147.167 -18.167 -199.5 -54.5s-91.333 -86.666 -117 -150.999s-38.5 -138.5 -38.5 -222.5c0 -130 30 -234.167 90 -312.5s148.333 -117.5 265 -117.5z" />
    <glyph glyph-name="ocircumflex" unicode="&#xf4;" horiz-adv-x="1183" 
d="M293 1250l230 270h136l229 -270h-150l-147 173l-148 -173h-150zM591 -30c-107.333 0 -198.995 24.334 -274.995 73.001s-134.333 116 -175 202s-61 184.667 -61 296c0 113.333 20.667 212.666 62 297.999s100.166 151.833 176.499 199.5s167.166 71.5 272.499 71.5
c108 0 200.167 -24.167 276.5 -72.5s134.666 -115.333 174.999 -201s60.5 -184.167 60.5 -295.5c0 -113.333 -20.333 -212.833 -61 -298.5s-99.334 -152.5 -176.001 -200.5s-168.334 -72 -275.001 -72zM591.005 111.001c120 0 209.333 39.832 268 119.499
s88 183.167 88 310.5c0 130.667 -29.5 234.667 -88.5 312s-148.167 116 -267.5 116c-80.667 0 -147.167 -18.167 -199.5 -54.5s-91.333 -86.666 -117 -150.999s-38.5 -138.5 -38.5 -222.5c0 -130 30 -234.167 90 -312.5s148.333 -117.5 265 -117.5z" />
    <glyph glyph-name="otilde" unicode="&#xf5;" horiz-adv-x="1183" 
d="M743 1252c-28.667 0 -56.167 5.66602 -82.5 16.999s-52 24.5 -77 39.5s-48.833 28.167 -71.5 39.5s-43.667 17 -63 17c-26 0 -42.667 -10.167 -50 -30.5s-7.33301 -42.166 0 -65.499h-104c-14.667 59.333 -8.66699 109.833 18 151.5s69.334 62.5 128.001 62.5
c28.667 0 56.5 -5.66699 83.5 -17s53 -24.5 78 -39.5s48.667 -28.167 71 -39.5s43.5 -17 63.5 -17c23.333 0 39.5 10 48.5 30s9.16699 43 0.5 69h104c15.333 -58.667 9.66602 -109.5 -17.001 -152.5s-70 -64.5 -130 -64.5zM591 -30.001
c-107.333 0 -198.995 24.334 -274.995 73.001s-134.333 116 -175 202s-61 184.667 -61 296c0 113.333 20.667 212.666 62 297.999s100.166 151.833 176.499 199.5s167.166 71.5 272.499 71.5c108 0 200.167 -24.167 276.5 -72.5s134.666 -115.333 174.999 -201
s60.5 -184.167 60.5 -295.5c0 -113.333 -20.333 -212.833 -61 -298.5s-99.334 -152.5 -176.001 -200.5s-168.334 -72 -275.001 -72zM591.005 111c120 0 209.333 39.832 268 119.499s88 183.167 88 310.5c0 130.667 -29.5 234.667 -88.5 312s-148.167 116 -267.5 116
c-80.667 0 -147.167 -18.167 -199.5 -54.5s-91.333 -86.666 -117 -150.999s-38.5 -138.5 -38.5 -222.5c0 -130 30 -234.167 90 -312.5s148.333 -117.5 265 -117.5z" />
    <glyph glyph-name="odieresis" unicode="&#xf6;" horiz-adv-x="1183" 
d="M703 1291v160h160v-160h-160zM321 1291v160h160v-160h-160zM591 -30c-107.333 0 -198.995 24.334 -274.995 73.001s-134.333 116 -175 202s-61 184.667 -61 296c0 113.333 20.667 212.666 62 297.999s100.166 151.833 176.499 199.5s167.166 71.5 272.499 71.5
c108 0 200.167 -24.167 276.5 -72.5s134.666 -115.333 174.999 -201s60.5 -184.167 60.5 -295.5c0 -113.333 -20.333 -212.833 -61 -298.5s-99.334 -152.5 -176.001 -200.5s-168.334 -72 -275.001 -72zM591.005 111.001c120 0 209.333 39.832 268 119.499
s88 183.167 88 310.5c0 130.667 -29.5 234.667 -88.5 312s-148.167 116 -267.5 116c-80.667 0 -147.167 -18.167 -199.5 -54.5s-91.333 -86.666 -117 -150.999s-38.5 -138.5 -38.5 -222.5c0 -130 30 -234.167 90 -312.5s148.333 -117.5 265 -117.5z" />
    <glyph glyph-name="divide" unicode="&#xf7;" horiz-adv-x="1080" 
d="M120 657v126h840v-126h-840zM488 902v171h171v-171h-171zM488 418v171h171v-171h-171z" />
    <glyph glyph-name="oslash" unicode="&#xf8;" horiz-adv-x="1183" 
d="M140 -10l-100 100l170 170l42 28l621 619l24 38l146 145l100 -99l-164 -163l-37 -23l-609 -609l-31 -44zM591 -30c-107.333 0 -198.995 24.334 -274.995 73.001s-134.333 116 -175 202s-61 184.667 -61 296c0 113.333 20.667 212.666 62 297.999
s100.166 151.833 176.499 199.5s167.166 71.5 272.499 71.5c108 0 200.167 -24.167 276.5 -72.5s134.666 -115.333 174.999 -201s60.5 -184.167 60.5 -295.5c0 -113.333 -20.333 -212.833 -61 -298.5s-99.334 -152.5 -176.001 -200.5s-168.334 -72 -275.001 -72z
M591.005 111.001c120 0 209.333 39.832 268 119.499s88 183.167 88 310.5c0 130.667 -29.5 234.667 -88.5 312s-148.167 116 -267.5 116c-80.667 0 -147.167 -18.167 -199.5 -54.5s-91.333 -86.666 -117 -150.999s-38.5 -138.5 -38.5 -222.5c0 -130 30 -234.167 90 -312.5
s148.333 -117.5 265 -117.5z" />
    <glyph glyph-name="ugrave" unicode="&#xf9;" 
d="M539 1250l-120 310h126l120 -310h-126zM553 -27c-64.667 0 -121.167 10.002 -169.5 30.002s-89.333 47 -123 81s-60.834 72.833 -81.501 116.5s-35.667 90 -45 139s-14 97.833 -14 146.5v594h148v-551c0 -59.333 5.66699 -114.333 17 -165s29.5 -94.834 54.5 -132.501
s57.333 -66.834 97 -87.501s87.834 -31 144.501 -31c52 0 97.833 9 137.5 27s73 43.833 100 77.5s47.5 74.667 61.5 123s21 102.833 21 163.5l104 -23c0 -110.667 -19.333 -203.667 -58 -279s-92 -132.333 -160 -171s-146 -58 -234 -58zM916 0.00195312v266h-15v814h147
v-1080h-132z" />
    <glyph glyph-name="uacute" unicode="&#xfa;" 
d="M641 1250h-126l119 310h126zM553 -27c-64.667 0 -121.167 10.002 -169.5 30.002s-89.333 47 -123 81s-60.834 72.833 -81.501 116.5s-35.667 90 -45 139s-14 97.833 -14 146.5v594h148v-551c0 -59.333 5.66699 -114.333 17 -165s29.5 -94.834 54.5 -132.501
s57.333 -66.834 97 -87.501s87.834 -31 144.501 -31c52 0 97.833 9 137.5 27s73 43.833 100 77.5s47.5 74.667 61.5 123s21 102.833 21 163.5l104 -23c0 -110.667 -19.333 -203.667 -58 -279s-92 -132.333 -160 -171s-146 -58 -234 -58zM916 0.00195312v266h-15v814h147
v-1080h-132z" />
    <glyph glyph-name="ucircumflex" unicode="&#xfb;" 
d="M285 1250l229 270h136l229 -270h-150l-147 173l-147 -173h-150zM553 -27c-64.667 0 -121.167 10.002 -169.5 30.002s-89.333 47 -123 81s-60.834 72.833 -81.501 116.5s-35.667 90 -45 139s-14 97.833 -14 146.5v594h148v-551c0 -59.333 5.66699 -114.333 17 -165
s29.5 -94.834 54.5 -132.501s57.333 -66.834 97 -87.501s87.834 -31 144.501 -31c52 0 97.833 9 137.5 27s73 43.833 100 77.5s47.5 74.667 61.5 123s21 102.833 21 163.5l104 -23c0 -110.667 -19.333 -203.667 -58 -279s-92 -132.333 -160 -171s-146 -58 -234 -58z
M916 0.00195312v266h-15v814h147v-1080h-132z" />
    <glyph glyph-name="udieresis" unicode="&#xfc;" 
d="M694 1291v160h160v-160h-160zM313 1291v160h160v-160h-160zM553 -27c-64.667 0 -121.167 10.002 -169.5 30.002s-89.333 47 -123 81s-60.834 72.833 -81.501 116.5s-35.667 90 -45 139s-14 97.833 -14 146.5v594h148v-551c0 -59.333 5.66699 -114.333 17 -165
s29.5 -94.834 54.5 -132.501s57.333 -66.834 97 -87.501s87.834 -31 144.501 -31c52 0 97.833 9 137.5 27s73 43.833 100 77.5s47.5 74.667 61.5 123s21 102.833 21 163.5l104 -23c0 -110.667 -19.333 -203.667 -58 -279s-92 -132.333 -160 -171s-146 -58 -234 -58z
M916 0.00195312v266h-15v814h147v-1080h-132z" />
    <glyph glyph-name="yacute" unicode="&#xfd;" horiz-adv-x="1055" 
d="M590 1250h-126l119 310h126zM294 -480l209 567l3 -168l-473 1161h156l388 -971h-64l358 971h150l-580 -1560h-147z" />
    <glyph glyph-name="thorn" unicode="&#xfe;" horiz-adv-x="1184" 
d="M140 809v631h147v-631h-147zM625 -30c-99.333 0 -183.334 25.1689 -252.001 75.502s-120.667 118.666 -156 204.999s-53 183.166 -53 290.499c0 109.333 17.833 206.833 53.5 292.5s88.167 153.167 157.5 202.5s154.666 74 255.999 74c98.667 0 183.334 -25 254.001 -75
s124.834 -118 162.501 -204s56.5 -182.667 56.5 -290c0 -108 -19 -205 -57 -291s-92.667 -154.167 -164 -204.5s-157.333 -75.5 -258 -75.5zM138.999 -479.998v1560h132v-813h16v-747h-148zM609.999 107.002c75.333 0 138 19.001 188 57.001s87.5 89.833 112.5 155.5
s37.5 139.5 37.5 221.5c0 81.333 -12.333 154.666 -37 219.999s-62.167 117 -112.5 155s-114.166 57 -191.499 57c-75.333 0 -137.833 -18.333 -187.5 -55s-86.834 -87.5 -111.501 -152.5s-37 -139.833 -37 -224.5c0 -83.333 12.333 -157.833 37 -223.5
s62 -117.167 112 -154.5s113.333 -56 190 -56z" />
    <glyph glyph-name="ydieresis" unicode="&#xff;" horiz-adv-x="1055" 
d="M648 1291v160h160v-160h-160zM267 1291v160h160v-160h-160zM294 -480l209 567l3 -168l-473 1161h156l388 -971h-64l358 971h150l-580 -1560h-147z" />
    <glyph glyph-name="Amacron" unicode="&#x100;" horiz-adv-x="1267" 
d="M384 1680v125h501v-125h-501zM40 0l496 1440h195l496 -1440h-153l-471 1358h58l-468 -1358h-153zM261 349v138h744v-138h-744z" />
    <glyph glyph-name="amacron" unicode="&#x101;" horiz-adv-x="1111" 
d="M349 1320v125h501v-125h-501zM449 -30c-81.333 0 -149.502 14.667 -204.502 44s-96.167 68.333 -123.5 117s-41 101.667 -41 159c0 58.667 11.833 108.834 35.5 150.501s56 75.834 97 102.501s88.5 47 142.5 61c54.667 13.333 115.167 25.166 181.5 35.499
s131.333 19.333 195 27s119.5 15.167 167.5 22.5l-52 -32c2 106.667 -18.667 185.667 -62 237s-118.666 77 -225.999 77c-74 0 -136.5 -16.667 -187.5 -50s-86.833 -86 -107.5 -158l-143 42c24.667 96.667 74.334 171.667 149.001 225s171.667 80 291 80
c98.667 0 182.5 -18.5 251.5 -55.5s117.833 -90.5 146.5 -160.5c13.333 -31.333 22 -66.333 26 -105s6 -78 6 -118v-671h-131v271l38 -16c-36.667 -92.667 -93.667 -163.334 -171 -212.001s-170 -73 -278 -73zM465.998 97c68.667 0 128.668 12.332 180.001 36.999
s92.666 58.5 123.999 101.5s51.666 91.5 60.999 145.5c8 34.667 12.333 72.834 13 114.501s1 72.834 1 93.501l56 -29c-50 -6.66699 -104.167 -13.334 -162.5 -20.001s-115.666 -14.334 -171.999 -23.001s-107.166 -19 -152.499 -31
c-30.667 -8.66699 -60.334 -20.834 -89.001 -36.501s-52.167 -36.5 -70.5 -62.5s-27.5 -58.333 -27.5 -97c0 -31.333 7.83301 -61.666 23.5 -90.999s41 -53.666 76 -72.999s81.5 -29 139.5 -29z" />
    <glyph glyph-name="Abreve" unicode="&#x102;" horiz-adv-x="1267" 
d="M635 1568c-48 0 -91.5 11.667 -130.5 35s-70 54.5 -93 93.5s-34.5 82.167 -34.5 129.5h122c0 -37.333 13.333 -69.333 40 -96s58.667 -40 96 -40c38 0 70.167 13.333 96.5 40s39.5 58.667 39.5 96h122c0 -47.333 -11.667 -90.5 -35 -129.5s-54.5 -70.167 -93.5 -93.5
s-82.167 -35 -129.5 -35zM40 0l496 1440h195l496 -1440h-153l-471 1358h58l-468 -1358h-153zM261 349v138h744v-138h-744z" />
    <glyph glyph-name="abreve" unicode="&#x103;" horiz-adv-x="1111" 
d="M571 1208c-48 0 -91.5 11.667 -130.5 35s-70 54.5 -93 93.5s-34.5 82.167 -34.5 129.5h122c0 -37.333 13.333 -69.333 40 -96s58.667 -40 96 -40c38 0 70.167 13.333 96.5 40s39.5 58.667 39.5 96h122c0 -47.333 -11.667 -90.5 -35 -129.5s-54.5 -70.167 -93.5 -93.5
s-82.167 -35 -129.5 -35zM449 -30c-81.333 0 -149.502 14.667 -204.502 44s-96.167 68.333 -123.5 117s-41 101.667 -41 159c0 58.667 11.833 108.834 35.5 150.501s56 75.834 97 102.501s88.5 47 142.5 61c54.667 13.333 115.167 25.166 181.5 35.499
s131.333 19.333 195 27s119.5 15.167 167.5 22.5l-52 -32c2 106.667 -18.667 185.667 -62 237s-118.666 77 -225.999 77c-74 0 -136.5 -16.667 -187.5 -50s-86.833 -86 -107.5 -158l-143 42c24.667 96.667 74.334 171.667 149.001 225s171.667 80 291 80
c98.667 0 182.5 -18.5 251.5 -55.5s117.833 -90.5 146.5 -160.5c13.333 -31.333 22 -66.333 26 -105s6 -78 6 -118v-671h-131v271l38 -16c-36.667 -92.667 -93.667 -163.334 -171 -212.001s-170 -73 -278 -73zM465.998 97c68.667 0 128.668 12.332 180.001 36.999
s92.666 58.5 123.999 101.5s51.666 91.5 60.999 145.5c8 34.667 12.333 72.834 13 114.501s1 72.834 1 93.501l56 -29c-50 -6.66699 -104.167 -13.334 -162.5 -20.001s-115.666 -14.334 -171.999 -23.001s-107.166 -19 -152.499 -31
c-30.667 -8.66699 -60.334 -20.834 -89.001 -36.501s-52.167 -36.5 -70.5 -62.5s-27.5 -58.333 -27.5 -97c0 -31.333 7.83301 -61.666 23.5 -90.999s41 -53.666 76 -72.999s81.5 -29 139.5 -29z" />
    <glyph glyph-name="Aogonek" unicode="&#x104;" horiz-adv-x="1267" 
d="M1064 -482c-35.333 0 -67.5 9.16797 -96.5 27.501s-52 42.333 -69 72s-25.5 61.5 -25.5 95.5c0 43.333 12.333 87.5 37 132.5s57.834 88.5 99.501 130.5s87.834 79.333 138.501 112l79 -88c-40.667 -24.667 -78.167 -53.167 -112.5 -85.5s-61.833 -65.5 -82.5 -99.5
s-31 -65.333 -31 -94c0 -24.667 7.66699 -44.834 23 -60.501s33 -23.5 53 -23.5c15.333 0 31 4.5 47 13.5s31 20.833 45 35.5l64 -79c-22.667 -29.333 -48.834 -51.5 -78.501 -66.5s-59.834 -22.5 -90.501 -22.5zM40 0.000976562l496 1440h195l496 -1440h-153l-471 1358h58
l-468 -1358h-153zM261 349.001v138h744v-138h-744z" />
    <glyph glyph-name="aogonek" unicode="&#x105;" horiz-adv-x="1111" 
d="M828 -482c-35.333 0 -67.5 9.16797 -96.5 27.501s-52 42.333 -69 72s-25.5 61.5 -25.5 95.5c0 43.333 12.333 87.5 37 132.5s57.834 88.5 99.501 130.5s87.834 79.333 138.501 112l79 -88c-40.667 -24.667 -78.167 -53.167 -112.5 -85.5s-61.833 -65.5 -82.5 -99.5
s-31 -65.333 -31 -94c0 -24.667 7.66699 -44.834 23 -60.501s33 -23.5 53 -23.5c15.333 0 31 4.5 47 13.5s31 20.833 45 35.5l64 -79c-22.667 -29.333 -48.834 -51.5 -78.501 -66.5s-59.834 -22.5 -90.501 -22.5zM449 -29.999c-81.333 0 -149.502 14.667 -204.502 44
s-96.167 68.333 -123.5 117s-41 101.667 -41 159c0 58.667 11.833 108.834 35.5 150.501s56 75.834 97 102.501s88.5 47 142.5 61c54.667 13.333 115.167 25.166 181.5 35.499s131.333 19.333 195 27s119.5 15.167 167.5 22.5l-52 -32c2 106.667 -18.667 185.667 -62 237
s-118.666 77 -225.999 77c-74 0 -136.5 -16.667 -187.5 -50s-86.833 -86 -107.5 -158l-143 42c24.667 96.667 74.334 171.667 149.001 225s171.667 80 291 80c98.667 0 182.5 -18.5 251.5 -55.5s117.833 -90.5 146.5 -160.5c13.333 -31.333 22 -66.333 26 -105s6 -78 6 -118
v-671h-131v271l38 -16c-36.667 -92.667 -93.667 -163.334 -171 -212.001s-170 -73 -278 -73zM465.998 97.001c68.667 0 128.668 12.332 180.001 36.999s92.666 58.5 123.999 101.5s51.666 91.5 60.999 145.5c8 34.667 12.333 72.834 13 114.501s1 72.834 1 93.501l56 -29
c-50 -6.66699 -104.167 -13.334 -162.5 -20.001s-115.666 -14.334 -171.999 -23.001s-107.166 -19 -152.499 -31c-30.667 -8.66699 -60.334 -20.834 -89.001 -36.501s-52.167 -36.5 -70.5 -62.5s-27.5 -58.333 -27.5 -97c0 -31.333 7.83301 -61.666 23.5 -90.999
s41 -53.666 76 -72.999s81.5 -29 139.5 -29z" />
    <glyph glyph-name="Cacute" unicode="&#x106;" horiz-adv-x="1431" 
d="M800 1610h-126l119 310h126zM723 -30c-143.333 0 -264.333 31.8311 -363 95.498s-173.334 151.834 -224.001 264.501s-76 242.667 -76 390s25.333 277.333 76 390s125.334 200.834 224.001 264.501s219.667 95.5 363 95.5c167.333 0 304 -42.833 410 -128.5
s178.667 -200.5 218 -344.5l-150 -39c-30.667 114 -85.667 204.333 -165 271s-183.666 100 -312.999 100c-112.667 0 -206.334 -25.667 -281.001 -77s-130.834 -122.833 -168.501 -214.5s-57.167 -197.5 -58.5 -317.5c-0.666992 -120 17.833 -225.667 55.5 -317
s94.334 -162.833 170.001 -214.5s169.834 -77.5 282.501 -77.5c129.333 0 233.666 33.5 312.999 100.5s134.333 157.167 165 270.5l150 -39c-39.333 -144 -112 -258.833 -218 -344.5s-242.667 -128.5 -410 -128.5z" />
    <glyph glyph-name="cacute" unicode="&#x107;" horiz-adv-x="1107" 
d="M666 1250h-126l119 310h126zM588 -30c-108.667 0 -200.668 24.3281 -276.001 72.9951s-132.5 115.834 -171.5 201.501s-59.167 184.167 -60.5 295.5c1.33301 113.333 22 212.833 62 298.5s97.667 152.334 173 200.001s166.666 71.5 273.999 71.5
c109.333 0 204.5 -26.667 285.5 -80s136.5 -126.333 166.5 -219l-144 -46c-25.333 64.667 -65.5 114.834 -120.5 150.501s-117.833 53.5 -188.5 53.5c-79.333 0 -145 -18.167 -197 -54.5s-90.667 -86.833 -116 -151.5s-38.333 -139 -39 -223
c1.33301 -129.333 31.333 -233.166 90 -311.499s146 -117.5 262 -117.5c73.333 0 135.833 16.833 187.5 50.5s90.834 82.834 117.501 147.501l148 -44c-40 -96 -98.667 -169.167 -176 -219.5s-169.666 -75.5 -276.999 -75.5z" />
    <glyph glyph-name="Ccircumflex" unicode="&#x108;" horiz-adv-x="1431" 
d="M425 1610l230 270h136l229 -270h-150l-147 173l-148 -173h-150zM723 -30c-143.333 0 -264.333 31.8311 -363 95.498s-173.334 151.834 -224.001 264.501s-76 242.667 -76 390s25.333 277.333 76 390s125.334 200.834 224.001 264.501s219.667 95.5 363 95.5
c167.333 0 304 -42.833 410 -128.5s178.667 -200.5 218 -344.5l-150 -39c-30.667 114 -85.667 204.333 -165 271s-183.666 100 -312.999 100c-112.667 0 -206.334 -25.667 -281.001 -77s-130.834 -122.833 -168.501 -214.5s-57.167 -197.5 -58.5 -317.5
c-0.666992 -120 17.833 -225.667 55.5 -317s94.334 -162.833 170.001 -214.5s169.834 -77.5 282.501 -77.5c129.333 0 233.666 33.5 312.999 100.5s134.333 157.167 165 270.5l150 -39c-39.333 -144 -112 -258.833 -218 -344.5s-242.667 -128.5 -410 -128.5z" />
    <glyph glyph-name="ccircumflex" unicode="&#x109;" horiz-adv-x="1107" 
d="M293 1250l230 270h136l229 -270h-150l-147 173l-148 -173h-150zM588 -30c-108.667 0 -200.668 24.3281 -276.001 72.9951s-132.5 115.834 -171.5 201.501s-59.167 184.167 -60.5 295.5c1.33301 113.333 22 212.833 62 298.5s97.667 152.334 173 200.001
s166.666 71.5 273.999 71.5c109.333 0 204.5 -26.667 285.5 -80s136.5 -126.333 166.5 -219l-144 -46c-25.333 64.667 -65.5 114.834 -120.5 150.501s-117.833 53.5 -188.5 53.5c-79.333 0 -145 -18.167 -197 -54.5s-90.667 -86.833 -116 -151.5s-38.333 -139 -39 -223
c1.33301 -129.333 31.333 -233.166 90 -311.499s146 -117.5 262 -117.5c73.333 0 135.833 16.833 187.5 50.5s90.834 82.834 117.501 147.501l148 -44c-40 -96 -98.667 -169.167 -176 -219.5s-169.666 -75.5 -276.999 -75.5z" />
    <glyph glyph-name="Cdotaccent" unicode="&#x10a;" horiz-adv-x="1431" 
d="M654 1669v171h171v-171h-171zM723 -30c-143.333 0 -264.333 31.8311 -363 95.498s-173.334 151.834 -224.001 264.501s-76 242.667 -76 390s25.333 277.333 76 390s125.334 200.834 224.001 264.501s219.667 95.5 363 95.5c167.333 0 304 -42.833 410 -128.5
s178.667 -200.5 218 -344.5l-150 -39c-30.667 114 -85.667 204.333 -165 271s-183.666 100 -312.999 100c-112.667 0 -206.334 -25.667 -281.001 -77s-130.834 -122.833 -168.501 -214.5s-57.167 -197.5 -58.5 -317.5c-0.666992 -120 17.833 -225.667 55.5 -317
s94.334 -162.833 170.001 -214.5s169.834 -77.5 282.501 -77.5c129.333 0 233.666 33.5 312.999 100.5s134.333 157.167 165 270.5l150 -39c-39.333 -144 -112 -258.833 -218 -344.5s-242.667 -128.5 -410 -128.5z" />
    <glyph glyph-name="cdotaccent" unicode="&#x10b;" horiz-adv-x="1107" 
d="M521 1309v171h171v-171h-171zM588 -30c-108.667 0 -200.668 24.3281 -276.001 72.9951s-132.5 115.834 -171.5 201.501s-59.167 184.167 -60.5 295.5c1.33301 113.333 22 212.833 62 298.5s97.667 152.334 173 200.001s166.666 71.5 273.999 71.5
c109.333 0 204.5 -26.667 285.5 -80s136.5 -126.333 166.5 -219l-144 -46c-25.333 64.667 -65.5 114.834 -120.5 150.501s-117.833 53.5 -188.5 53.5c-79.333 0 -145 -18.167 -197 -54.5s-90.667 -86.833 -116 -151.5s-38.333 -139 -39 -223
c1.33301 -129.333 31.333 -233.166 90 -311.499s146 -117.5 262 -117.5c73.333 0 135.833 16.833 187.5 50.5s90.834 82.834 117.501 147.501l148 -44c-40 -96 -98.667 -169.167 -176 -219.5s-169.666 -75.5 -276.999 -75.5z" />
    <glyph glyph-name="Ccaron" unicode="&#x10c;" horiz-adv-x="1431" 
d="M463 1880h150l148 -173l147 173h150l-229 -270h-136zM723 -30c-143.333 0 -264.333 31.8311 -363 95.498s-173.334 151.834 -224.001 264.501s-76 242.667 -76 390s25.333 277.333 76 390s125.334 200.834 224.001 264.501s219.667 95.5 363 95.5
c167.333 0 304 -42.833 410 -128.5s178.667 -200.5 218 -344.5l-150 -39c-30.667 114 -85.667 204.333 -165 271s-183.666 100 -312.999 100c-112.667 0 -206.334 -25.667 -281.001 -77s-130.834 -122.833 -168.501 -214.5s-57.167 -197.5 -58.5 -317.5
c-0.666992 -120 17.833 -225.667 55.5 -317s94.334 -162.833 170.001 -214.5s169.834 -77.5 282.501 -77.5c129.333 0 233.666 33.5 312.999 100.5s134.333 157.167 165 270.5l150 -39c-39.333 -144 -112 -258.833 -218 -344.5s-242.667 -128.5 -410 -128.5z" />
    <glyph glyph-name="ccaron" unicode="&#x10d;" horiz-adv-x="1107" 
d="M291 1520h150l147 -173l147 173h150l-229 -270h-136zM588 -30c-108.667 0 -200.668 24.3281 -276.001 72.9951s-132.5 115.834 -171.5 201.501s-59.167 184.167 -60.5 295.5c1.33301 113.333 22 212.833 62 298.5s97.667 152.334 173 200.001s166.666 71.5 273.999 71.5
c109.333 0 204.5 -26.667 285.5 -80s136.5 -126.333 166.5 -219l-144 -46c-25.333 64.667 -65.5 114.834 -120.5 150.501s-117.833 53.5 -188.5 53.5c-79.333 0 -145 -18.167 -197 -54.5s-90.667 -86.833 -116 -151.5s-38.333 -139 -39 -223
c1.33301 -129.333 31.333 -233.166 90 -311.499s146 -117.5 262 -117.5c73.333 0 135.833 16.833 187.5 50.5s90.834 82.834 117.501 147.501l148 -44c-40 -96 -98.667 -169.167 -176 -219.5s-169.666 -75.5 -276.999 -75.5z" />
    <glyph glyph-name="Dcaron" unicode="&#x10e;" horiz-adv-x="1343" 
d="M292 1880h150l147 -173l148 173h150l-230 -270h-136zM140 0v1440h437c15.333 0 41.5 -0.333008 78.5 -1s72.5 -3.33398 106.5 -8.00098c109.333 -15.333 200.666 -56 273.999 -122s128.333 -150 165 -252s55 -214.333 55 -337s-18.333 -235 -55 -337
s-91.667 -186 -165 -252s-164.666 -106.667 -273.999 -122c-33.333 -4 -69 -6.5 -107 -7.5s-64 -1.5 -78 -1.5h-437zM292 141.001l284.999 -0.00390625c27.333 0 56.833 0.833008 88.5 2.5s58.834 4.83398 81.501 9.50098c84 14.667 151.833 48.667 203.5 102
s89.5 120.166 113.5 200.499s36 168.5 36 264.5c0 96.667 -12 185.334 -36 266.001s-62 147.334 -114 200.001s-119.667 86.334 -203 101.001c-22.667 4.66699 -50.167 7.83398 -82.5 9.50098s-61.5 2.5 -87.5 2.5h-285v-1158z" />
    <glyph glyph-name="dcaron" unicode="&#x10f;" horiz-adv-x="1436" 
d="M559 -30c-100.667 0 -186.668 25.165 -258.001 75.498s-126 118.5 -164 204.5s-57 183 -57 291c0 107.333 18.833 204 56.5 290s91.834 154 162.501 204s155.334 75 254.001 75c101.333 0 186.666 -24.667 255.999 -74s121.833 -116.833 157.5 -202.5
s53.5 -183.167 53.5 -292.5c0 -107.333 -17.667 -204.166 -53 -290.499s-87.333 -154.666 -156 -204.999s-152.667 -75.5 -252 -75.5zM573.999 106.998c76.667 0 140.001 18.666 190.001 55.999s87.333 88.833 112 154.5s37 140.167 37 223.5
c0 84.667 -12.333 159.5 -37 224.5s-61.834 115.833 -111.501 152.5s-112.167 55 -187.5 55c-77.333 0 -141.333 -19 -192 -57s-88.167 -89.667 -112.5 -155s-36.5 -138.666 -36.5 -219.999c0 -82 12.5 -155.833 37.5 -221.5s62.5 -117.5 112.5 -155.5s112.667 -57 188 -57z
M913 -0.00292969v813h-16v627h148v-1440h-132zM1247 1034l8.99902 73c26.667 -2 46 3.33301 58 16s19.333 29.667 22 51s3.33398 44.333 2.00098 69h-91v211h171v-251c0 -61.333 -15.5 -107.333 -46.5 -138s-72.5 -41 -124.5 -31z" />
    <glyph glyph-name="Dcroat" unicode="&#x110;" horiz-adv-x="1331" 
d="M20 657v126h630v-126h-630zM128 0v1440h437c15.333 0 41.5 -0.333008 78.5 -1s72.5 -3.33398 106.5 -8.00098c109.333 -15.333 200.666 -56 273.999 -122s128.333 -150 165 -252s55 -214.333 55 -337s-18.333 -235 -55 -337s-91.667 -186 -165 -252
s-164.666 -106.667 -273.999 -122c-33.333 -4 -69 -6.5 -107 -7.5s-64 -1.5 -78 -1.5h-437zM280 141.001l284.999 -0.00390625c27.333 0 56.833 0.833008 88.5 2.5s58.834 4.83398 81.501 9.50098c84 14.667 151.833 48.667 203.5 102s89.5 120.166 113.5 200.499
s36 168.5 36 264.5c0 96.667 -12 185.334 -36 266.001s-62 147.334 -114 200.001s-119.667 86.334 -203 101.001c-22.667 4.66699 -50.167 7.83398 -82.5 9.50098s-61.5 2.5 -87.5 2.5h-285v-1158z" />
    <glyph glyph-name="dcroat" unicode="&#x111;" horiz-adv-x="1185" 
d="M683 1187v125h502v-125h-502zM559 -30c-100.667 0 -186.668 25.165 -258.001 75.498s-126 118.5 -164 204.5s-57 183 -57 291c0 107.333 18.833 204 56.5 290s91.834 154 162.501 204s155.334 75 254.001 75c101.333 0 186.666 -24.667 255.999 -74
s121.833 -116.833 157.5 -202.5s53.5 -183.167 53.5 -292.5c0 -107.333 -17.667 -204.166 -53 -290.499s-87.333 -154.666 -156 -204.999s-152.667 -75.5 -252 -75.5zM573.999 106.998c76.667 0 140.001 18.666 190.001 55.999s87.333 88.833 112 154.5s37 140.167 37 223.5
c0 84.667 -12.333 159.5 -37 224.5s-61.834 115.833 -111.501 152.5s-112.167 55 -187.5 55c-77.333 0 -141.333 -19 -192 -57s-88.167 -89.667 -112.5 -155s-36.5 -138.666 -36.5 -219.999c0 -82 12.5 -155.833 37.5 -221.5s62.5 -117.5 112.5 -155.5s112.667 -57 188 -57z
M913 -0.00292969v813h-16v627h148v-1440h-132z" />
    <glyph glyph-name="Emacron" unicode="&#x112;" horiz-adv-x="1140" 
d="M343 1680v125h501v-125h-501zM140 0v1440h900v-141h-753v-498h633v-141h-633v-519h753v-141h-900z" />
    <glyph glyph-name="emacron" unicode="&#x113;" horiz-adv-x="1169" 
d="M361 1320v125h501v-125h-501zM597 -30c-105.333 0 -196.499 23.3311 -273.499 69.998s-136.833 112.334 -179.5 197.001s-64 184 -64 298c0 118 21 220 63 306s101.167 152.333 177.5 199s166.5 70 270.5 70c106.667 0 197.667 -24.5 273 -73.5
s132.333 -119.167 171 -210.5s56.334 -200.333 53.001 -327h-150v52c-2.66699 140 -32.834 245.667 -90.501 317s-141.834 107 -252.501 107c-116 0 -204.833 -37.667 -266.5 -113s-92.5 -182.666 -92.5 -321.999c0 -136 30.833 -241.5 92.5 -316.5
s149.167 -112.5 262.5 -112.5c77.333 0 144.833 17.833 202.5 53.5s103.167 87.167 136.5 154.5l137 -53c-42.667 -94 -105.5 -166.833 -188.5 -218.5s-176.833 -77.5 -281.5 -77.5zM184.001 498.998v123h825v-123h-825z" />
    <glyph glyph-name="Edotaccent" unicode="&#x116;" horiz-adv-x="1140" 
d="M511 1669v171h170v-171h-170zM140 0v1440h900v-141h-753v-498h633v-141h-633v-519h753v-141h-900z" />
    <glyph glyph-name="edotaccent" unicode="&#x117;" horiz-adv-x="1169" 
d="M507 1309v171h170v-171h-170zM597 -30c-105.333 0 -196.499 23.3311 -273.499 69.998s-136.833 112.334 -179.5 197.001s-64 184 -64 298c0 118 21 220 63 306s101.167 152.333 177.5 199s166.5 70 270.5 70c106.667 0 197.667 -24.5 273 -73.5
s132.333 -119.167 171 -210.5s56.334 -200.333 53.001 -327h-150v52c-2.66699 140 -32.834 245.667 -90.501 317s-141.834 107 -252.501 107c-116 0 -204.833 -37.667 -266.5 -113s-92.5 -182.666 -92.5 -321.999c0 -136 30.833 -241.5 92.5 -316.5
s149.167 -112.5 262.5 -112.5c77.333 0 144.833 17.833 202.5 53.5s103.167 87.167 136.5 154.5l137 -53c-42.667 -94 -105.5 -166.833 -188.5 -218.5s-176.833 -77.5 -281.5 -77.5zM184.001 498.998v123h825v-123h-825z" />
    <glyph glyph-name="Eogonek" unicode="&#x118;" horiz-adv-x="1140" 
d="M877 -482c-36 0 -68.3281 9.16797 -96.9951 27.501s-51.667 42.333 -69 72s-26 61.5 -26 95.5c0 43.333 12.5 87.5 37.5 132.5s58.167 88.5 99.5 130.5s87.666 79.333 138.999 112l79 -88c-40.667 -24.667 -78.167 -53.167 -112.5 -85.5s-62 -65.5 -83 -99.5
s-31.5 -65.333 -31.5 -94c0 -24.667 7.66699 -44.834 23 -60.501s33 -23.5 53 -23.5c15.333 0 31.166 4.5 47.499 13.5s31.166 20.833 44.499 35.5l65 -79c-22.667 -29.333 -48.834 -51.5 -78.501 -66.5s-59.834 -22.5 -90.501 -22.5zM140.005 0.000976562v1440h900v-141
h-753v-498h633v-141h-633v-519h753v-141h-900z" />
    <glyph glyph-name="eogonek" unicode="&#x119;" horiz-adv-x="1169" 
d="M894 -463c-39.333 -16.667 -79.167 -20.1621 -119.5 -10.4951s-73.5 28.5 -99.5 56.5c-24.667 27.333 -40 59.666 -46 96.999s-2.33301 75.666 11 114.999c10 29.333 23.333 58.5 40 87.5s34 55.833 52 80.5c12 16.667 30.667 39.667 56 69s51.666 61.666 78.999 96.999
s50 70.666 68 105.999l113 -6c-14.667 -28.667 -32.334 -58.667 -53.001 -90l-63 -91.5l-58.5 -79.5c-17.667 -23.333 -30.5 -41.666 -38.5 -54.999c-17.333 -26.667 -33.166 -53.5 -47.499 -80.5s-24.833 -52.167 -31.5 -75.5c-4 -14.667 -5.83301 -30.334 -5.5 -47.001
s6.5 -31.334 18.5 -44.001c22.667 -22.667 48.167 -29.5 76.5 -20.5s53.166 22.833 74.499 41.5l66 -80c-11.333 -14 -24.666 -27 -39.999 -39s-32.666 -22.333 -51.999 -31zM596.999 -29.9951c-105.333 0 -196.499 23.3311 -273.499 69.998
s-136.833 112.334 -179.5 197.001s-64 184 -64 298c0 118 21 220 63 306s101.167 152.333 177.5 199s166.5 70 270.5 70c106.667 0 197.667 -24.5 273 -73.5s132.333 -119.167 171 -210.5s56.334 -200.333 53.001 -327h-150v52c-2.66699 140 -32.834 245.667 -90.501 317
s-141.834 107 -252.501 107c-116 0 -204.833 -37.667 -266.5 -113s-92.5 -182.666 -92.5 -321.999c0 -136 30.833 -241.5 92.5 -316.5s149.167 -112.5 262.5 -112.5c77.333 0 144.833 17.833 202.5 53.5s103.167 87.167 136.5 154.5l137 -53
c-42.667 -94 -105.5 -166.833 -188.5 -218.5s-176.833 -77.5 -281.5 -77.5zM184 499.003v123h825v-123h-825z" />
    <glyph glyph-name="Ecaron" unicode="&#x11a;" horiz-adv-x="1140" 
d="M299 1880h150l147 -173l147 173h150l-229 -270h-136zM140 0v1440h900v-141h-753v-498h633v-141h-633v-519h753v-141h-900z" />
    <glyph glyph-name="ecaron" unicode="&#x11b;" horiz-adv-x="1169" 
d="M293 1520h150l147 -173l147 173h150l-229 -270h-136zM597 -30c-105.333 0 -196.499 23.3311 -273.499 69.998s-136.833 112.334 -179.5 197.001s-64 184 -64 298c0 118 21 220 63 306s101.167 152.333 177.5 199s166.5 70 270.5 70c106.667 0 197.667 -24.5 273 -73.5
s132.333 -119.167 171 -210.5s56.334 -200.333 53.001 -327h-150v52c-2.66699 140 -32.834 245.667 -90.501 317s-141.834 107 -252.501 107c-116 0 -204.833 -37.667 -266.5 -113s-92.5 -182.666 -92.5 -321.999c0 -136 30.833 -241.5 92.5 -316.5
s149.167 -112.5 262.5 -112.5c77.333 0 144.833 17.833 202.5 53.5s103.167 87.167 136.5 154.5l137 -53c-42.667 -94 -105.5 -166.833 -188.5 -218.5s-176.833 -77.5 -281.5 -77.5zM184.001 498.998v123h825v-123h-825z" />
    <glyph glyph-name="Gcircumflex" unicode="&#x11c;" horiz-adv-x="1410" 
d="M405 1610l229 270h136l229 -270h-150l-147 173l-147 -173h-150zM717 -30c-101.333 0 -192.66 17.6709 -273.993 53.0039s-150.5 85.666 -207.5 150.999s-100.5 144.166 -130.5 236.499s-45 195.5 -45 309.5c0 150.667 26.167 282.167 78.5 394.5s127.5 199.5 225.5 261.5
s215.667 93 353 93c153.333 0 278.166 -35.833 374.499 -107.5s163.5 -167.834 201.5 -288.501l-148 -36c-31.333 88 -82.833 158.333 -154.5 211s-160.834 79 -267.501 79c-112.667 0.666992 -206.334 -24.5 -281.001 -75.5s-130.834 -122.333 -168.501 -214
s-56.834 -197.5 -57.501 -317.5s17.833 -225.5 55.5 -316.5s94.167 -162.333 169.5 -214s169.333 -77.834 282 -78.501c103.333 0 188.666 20 255.999 60s118.5 97.333 153.5 172s54.833 163 59.5 265h-332v126h486c2 -15.333 3.16699 -31.5 3.5 -48.5
s0.5 -29.167 0.5 -36.5c0 -130 -23.333 -246.167 -70 -348.5s-116.834 -183 -210.501 -242s-211.167 -88.5 -352.5 -88.5z" />
    <glyph glyph-name="gcircumflex" unicode="&#x11d;" horiz-adv-x="1184" 
d="M278 1250l230 270h136l229 -270h-150l-147 173l-148 -173h-150zM569 -510c-55.333 0 -109.831 8.16504 -163.498 24.498s-103.167 42 -148.5 77s-83.333 80.5 -114 136.5l133 74c30 -60 72.167 -103.167 126.5 -129.5s109.833 -39.5 166.5 -39.5
c78 0 141.167 14.5 189.5 43.5s83.5 71.833 105.5 128.5s32.667 127.334 32 212.001v288h17v775h131v-1065c0 -30.667 -0.833008 -60.167 -2.5 -88.5s-4.83398 -56.166 -9.50098 -83.499c-12.667 -80.667 -38.834 -147 -78.501 -199s-91.667 -90.667 -156 -116
s-140.5 -38 -228.5 -38zM559.002 -30.002c-100.667 0 -186.668 25.165 -258.001 75.498s-126 118.5 -164 204.5s-57 183 -57 291c0 107.333 18.833 204 56.5 290s91.834 154 162.501 204s155.334 75 254.001 75c101.333 0 186.666 -24.667 255.999 -74
s121.833 -116.833 157.5 -202.5s53.5 -183.167 53.5 -292.5c0 -107.333 -17.667 -204.166 -53 -290.499s-87.333 -154.666 -156 -204.999s-152.667 -75.5 -252 -75.5zM574.001 106.996c76.667 0 140.001 18.666 190.001 55.999s87.333 88.833 112 154.5s37 140.167 37 223.5
c0 84.667 -12.333 159.5 -37 224.5s-61.834 115.833 -111.501 152.5s-112.167 55 -187.5 55c-77.333 0 -141.333 -19 -192 -57s-88.167 -89.667 -112.5 -155s-36.5 -138.666 -36.5 -219.999c0 -82 12.5 -155.833 37.5 -221.5s62.5 -117.5 112.5 -155.5s112.667 -57 188 -57z
" />
    <glyph glyph-name="Gbreve" unicode="&#x11e;" horiz-adv-x="1410" 
d="M723 1568c-48 0 -91.333 11.667 -130 35s-69.667 54.5 -93 93.5s-35 82.167 -35 129.5h122c0 -37.333 13.333 -69.333 40 -96s58.667 -40 96 -40c38 0 70.167 13.333 96.5 40s39.5 58.667 39.5 96h122c0 -47.333 -11.667 -90.5 -35 -129.5s-54.5 -70.167 -93.5 -93.5
s-82.167 -35 -129.5 -35zM717 -30c-101.333 0 -192.66 17.6709 -273.993 53.0039s-150.5 85.666 -207.5 150.999s-100.5 144.166 -130.5 236.499s-45 195.5 -45 309.5c0 150.667 26.167 282.167 78.5 394.5s127.5 199.5 225.5 261.5s215.667 93 353 93
c153.333 0 278.166 -35.833 374.499 -107.5s163.5 -167.834 201.5 -288.501l-148 -36c-31.333 88 -82.833 158.333 -154.5 211s-160.834 79 -267.501 79c-112.667 0.666992 -206.334 -24.5 -281.001 -75.5s-130.834 -122.333 -168.501 -214s-56.834 -197.5 -57.501 -317.5
s17.833 -225.5 55.5 -316.5s94.167 -162.333 169.5 -214s169.333 -77.834 282 -78.501c103.333 0 188.666 20 255.999 60s118.5 97.333 153.5 172s54.833 163 59.5 265h-332v126h486c2 -15.333 3.16699 -31.5 3.5 -48.5s0.5 -29.167 0.5 -36.5
c0 -130 -23.333 -246.167 -70 -348.5s-116.834 -183 -210.501 -242s-211.167 -88.5 -352.5 -88.5z" />
    <glyph glyph-name="gbreve" unicode="&#x11f;" horiz-adv-x="1184" 
d="M633 1208c-48 0 -91.5 11.667 -130.5 35s-70 54.5 -93 93.5s-34.5 82.167 -34.5 129.5h122c0 -37.333 13.333 -69.333 40 -96s58.667 -40 96 -40c38 0 70.167 13.333 96.5 40s39.5 58.667 39.5 96h122c0 -47.333 -11.667 -90.5 -35 -129.5s-54.5 -70.167 -93.5 -93.5
s-82.167 -35 -129.5 -35zM569 -510c-55.333 0 -109.831 8.16504 -163.498 24.498s-103.167 42 -148.5 77s-83.333 80.5 -114 136.5l133 74c30 -60 72.167 -103.167 126.5 -129.5s109.833 -39.5 166.5 -39.5c78 0 141.167 14.5 189.5 43.5s83.5 71.833 105.5 128.5
s32.667 127.334 32 212.001v288h17v775h131v-1065c0 -30.667 -0.833008 -60.167 -2.5 -88.5s-4.83398 -56.166 -9.50098 -83.499c-12.667 -80.667 -38.834 -147 -78.501 -199s-91.667 -90.667 -156 -116s-140.5 -38 -228.5 -38zM559.002 -30.002
c-100.667 0 -186.668 25.165 -258.001 75.498s-126 118.5 -164 204.5s-57 183 -57 291c0 107.333 18.833 204 56.5 290s91.834 154 162.501 204s155.334 75 254.001 75c101.333 0 186.666 -24.667 255.999 -74s121.833 -116.833 157.5 -202.5s53.5 -183.167 53.5 -292.5
c0 -107.333 -17.667 -204.166 -53 -290.499s-87.333 -154.666 -156 -204.999s-152.667 -75.5 -252 -75.5zM574.001 106.996c76.667 0 140.001 18.666 190.001 55.999s87.333 88.833 112 154.5s37 140.167 37 223.5c0 84.667 -12.333 159.5 -37 224.5
s-61.834 115.833 -111.501 152.5s-112.167 55 -187.5 55c-77.333 0 -141.333 -19 -192 -57s-88.167 -89.667 -112.5 -155s-36.5 -138.666 -36.5 -219.999c0 -82 12.5 -155.833 37.5 -221.5s62.5 -117.5 112.5 -155.5s112.667 -57 188 -57z" />
    <glyph glyph-name="Gdotaccent" unicode="&#x120;" horiz-adv-x="1410" 
d="M653 1669v171h170v-171h-170zM717 -30c-101.333 0 -192.66 17.6709 -273.993 53.0039s-150.5 85.666 -207.5 150.999s-100.5 144.166 -130.5 236.499s-45 195.5 -45 309.5c0 150.667 26.167 282.167 78.5 394.5s127.5 199.5 225.5 261.5s215.667 93 353 93
c153.333 0 278.166 -35.833 374.499 -107.5s163.5 -167.834 201.5 -288.501l-148 -36c-31.333 88 -82.833 158.333 -154.5 211s-160.834 79 -267.501 79c-112.667 0.666992 -206.334 -24.5 -281.001 -75.5s-130.834 -122.333 -168.501 -214s-56.834 -197.5 -57.501 -317.5
s17.833 -225.5 55.5 -316.5s94.167 -162.333 169.5 -214s169.333 -77.834 282 -78.501c103.333 0 188.666 20 255.999 60s118.5 97.333 153.5 172s54.833 163 59.5 265h-332v126h486c2 -15.333 3.16699 -31.5 3.5 -48.5s0.5 -29.167 0.5 -36.5
c0 -130 -23.333 -246.167 -70 -348.5s-116.834 -183 -210.501 -242s-211.167 -88.5 -352.5 -88.5z" />
    <glyph glyph-name="gdotaccent" unicode="&#x121;" horiz-adv-x="1184" 
d="M543 1309v171h170v-171h-170zM569 -510c-55.333 0 -109.831 8.16504 -163.498 24.498s-103.167 42 -148.5 77s-83.333 80.5 -114 136.5l133 74c30 -60 72.167 -103.167 126.5 -129.5s109.833 -39.5 166.5 -39.5c78 0 141.167 14.5 189.5 43.5s83.5 71.833 105.5 128.5
s32.667 127.334 32 212.001v288h17v775h131v-1065c0 -30.667 -0.833008 -60.167 -2.5 -88.5s-4.83398 -56.166 -9.50098 -83.499c-12.667 -80.667 -38.834 -147 -78.501 -199s-91.667 -90.667 -156 -116s-140.5 -38 -228.5 -38zM559.002 -30.002
c-100.667 0 -186.668 25.165 -258.001 75.498s-126 118.5 -164 204.5s-57 183 -57 291c0 107.333 18.833 204 56.5 290s91.834 154 162.501 204s155.334 75 254.001 75c101.333 0 186.666 -24.667 255.999 -74s121.833 -116.833 157.5 -202.5s53.5 -183.167 53.5 -292.5
c0 -107.333 -17.667 -204.166 -53 -290.499s-87.333 -154.666 -156 -204.999s-152.667 -75.5 -252 -75.5zM574.001 106.996c76.667 0 140.001 18.666 190.001 55.999s87.333 88.833 112 154.5s37 140.167 37 223.5c0 84.667 -12.333 159.5 -37 224.5
s-61.834 115.833 -111.501 152.5s-112.167 55 -187.5 55c-77.333 0 -141.333 -19 -192 -57s-88.167 -89.667 -112.5 -155s-36.5 -138.666 -36.5 -219.999c0 -82 12.5 -155.833 37.5 -221.5s62.5 -117.5 112.5 -155.5s112.667 -57 188 -57z" />
    <glyph glyph-name="uni0122" unicode="&#x122;" horiz-adv-x="1410" 
d="M649 -550l-0.00195312 78c8 0 19.333 2.33301 34 7s27.834 13.5 39.501 26.5s16.834 31.5 15.501 55.5h-89v165h166v-165c0 -56 -17.333 -97.833 -52 -125.5s-72.667 -41.5 -114 -41.5zM716.998 -30c-101.333 0 -192.66 17.6709 -273.993 53.0039
s-150.5 85.666 -207.5 150.999s-100.5 144.166 -130.5 236.499s-45 195.5 -45 309.5c0 150.667 26.167 282.167 78.5 394.5s127.5 199.5 225.5 261.5s215.667 93 353 93c153.333 0 278.166 -35.833 374.499 -107.5s163.5 -167.834 201.5 -288.501l-148 -36
c-31.333 88 -82.833 158.333 -154.5 211s-160.834 79 -267.501 79c-112.667 0.666992 -206.334 -24.5 -281.001 -75.5s-130.834 -122.333 -168.501 -214s-56.834 -197.5 -57.501 -317.5s17.833 -225.5 55.5 -316.5s94.167 -162.333 169.5 -214s169.333 -77.834 282 -78.501
c103.333 0 188.666 20 255.999 60s118.5 97.333 153.5 172s54.833 163 59.5 265h-332v126h486c2 -15.333 3.16699 -31.5 3.5 -48.5s0.5 -29.167 0.5 -36.5c0 -130 -23.333 -246.167 -70 -348.5s-116.834 -183 -210.501 -242s-211.167 -88.5 -352.5 -88.5z" />
    <glyph glyph-name="uni0123" unicode="&#x123;" horiz-adv-x="1184" 
d="M689 1641l0.00195312 -77.999c-8 0 -19.333 -2.33301 -34 -7s-27.834 -13.334 -39.501 -26.001s-16.834 -31 -15.501 -55h89v-166h-166v166c0 56 17.333 97.667 52 125s72.667 41 114 41zM569.002 -509.999c-55.333 0 -109.831 8.16504 -163.498 24.498
s-103.167 42 -148.5 77s-83.333 80.5 -114 136.5l133 74c30 -60 72.167 -103.167 126.5 -129.5s109.833 -39.5 166.5 -39.5c78 0 141.167 14.5 189.5 43.5s83.5 71.833 105.5 128.5s32.667 127.334 32 212.001v288h17v775h131v-1065c0 -30.667 -0.833008 -60.167 -2.5 -88.5
s-4.83398 -56.166 -9.50098 -83.499c-12.667 -80.667 -38.834 -147 -78.501 -199s-91.667 -90.667 -156 -116s-140.5 -38 -228.5 -38zM559.004 -30.001c-100.667 0 -186.668 25.165 -258.001 75.498s-126 118.5 -164 204.5s-57 183 -57 291c0 107.333 18.833 204 56.5 290
s91.834 154 162.501 204s155.334 75 254.001 75c101.333 0 186.666 -24.667 255.999 -74s121.833 -116.833 157.5 -202.5s53.5 -183.167 53.5 -292.5c0 -107.333 -17.667 -204.166 -53 -290.499s-87.333 -154.666 -156 -204.999s-152.667 -75.5 -252 -75.5zM574.003 106.997
c76.667 0 140.001 18.666 190.001 55.999s87.333 88.833 112 154.5s37 140.167 37 223.5c0 84.667 -12.333 159.5 -37 224.5s-61.834 115.833 -111.501 152.5s-112.167 55 -187.5 55c-77.333 0 -141.333 -19 -192 -57s-88.167 -89.667 -112.5 -155
s-36.5 -138.666 -36.5 -219.999c0 -82 12.5 -155.833 37.5 -221.5s62.5 -117.5 112.5 -155.5s112.667 -57 188 -57z" />
    <glyph glyph-name="Hcircumflex" unicode="&#x124;" horiz-adv-x="1369" 
d="M386 1610l229 270h136l230 -270h-150l-148 173l-147 -173h-150zM140 0v1440h147v-649h796v649h146v-1440h-146v650h-796v-650h-147z" />
    <glyph glyph-name="hcircumflex" unicode="&#x125;" 
d="M-93 1610l229 270h136l230 -270h-150l-148 173l-147 -173h-150zM920 0v550.999c0 60 -5.66699 115.167 -17 165.5s-29.5 94.333 -54.5 132s-57.333 66.834 -97 87.501s-87.834 31 -144.501 31c-52 0 -97.833 -9 -137.5 -27s-73 -43.833 -100 -77.5
s-47.5 -74.5 -61.5 -122.5s-21 -102.667 -21 -164l-104 23c0 110.667 19.333 203.667 58 279s92 132.333 160 171s146 58 234 58c64.667 0 121.167 -10 169.5 -30s89.333 -47 123 -81s60.834 -72.833 81.501 -116.5s35.667 -90 45 -139s14 -97.833 14 -146.5v-594h-148z
M139 -0.000976562v1440h133v-813h15v-627h-148z" />
    <glyph glyph-name="Hbar" unicode="&#x126;" horiz-adv-x="1409" 
d="M160 0v1440h147v-649h796v649h146v-1440h-146v650h-796v-650h-147zM20 993v141h1369v-141h-1369z" />
    <glyph glyph-name="hbar" unicode="&#x127;" 
d="M12 1187v125h501v-125h-501zM920 0v550.999c0 60 -5.66699 115.167 -17 165.5s-29.5 94.333 -54.5 132s-57.333 66.834 -97 87.501s-87.834 31 -144.501 31c-52 0 -97.833 -9 -137.5 -27s-73 -43.833 -100 -77.5s-47.5 -74.5 -61.5 -122.5s-21 -102.667 -21 -164l-104 23
c0 110.667 19.333 203.667 58 279s92 132.333 160 171s146 58 234 58c64.667 0 121.167 -10 169.5 -30s89.333 -47 123 -81s60.834 -72.833 81.501 -116.5s35.667 -90 45 -139s14 -97.833 14 -146.5v-594h-148zM139 -0.000976562v1440h133v-813h15v-627h-148z" />
    <glyph glyph-name="Itilde" unicode="&#x128;" horiz-adv-x="467" 
d="M383 1612c-28 0 -55.3359 5.66602 -82.0029 16.999s-52.5 24.5 -77.5 39.5s-48.667 28.167 -71 39.5s-43.5 17 -63.5 17c-25.333 0 -41.666 -10.167 -48.999 -30.5s-7.33301 -42.166 0 -65.499h-104c-14.667 59.333 -8.66699 109.833 18 151.5s69.334 62.5 128.001 62.5
c28.667 0 56.334 -5.66699 83.001 -17s52.5 -24.5 77.5 -39.5s48.833 -28.167 71.5 -39.5s43.667 -17 63 -17c24 0 40.333 10 49 30s9 43 1 69h104c14.667 -58.667 8.66699 -109.5 -18 -152.5s-70 -64.5 -130 -64.5zM159.997 -0.000976562v1440h147v-1440h-147z" />
    <glyph glyph-name="itilde" unicode="&#x129;" horiz-adv-x="467" 
d="M383 1252c-28 0 -55.3359 5.66602 -82.0029 16.999s-52.5 24.5 -77.5 39.5s-48.667 28.167 -71 39.5s-43.5 17 -63.5 17c-25.333 0 -41.666 -10.167 -48.999 -30.5s-7.33301 -42.166 0 -65.499h-104c-14.667 59.333 -8.66699 109.833 18 151.5s69.334 62.5 128.001 62.5
c28.667 0 56.334 -5.66699 83.001 -17s52.5 -24.5 77.5 -39.5s48.833 -28.167 71.5 -39.5s43.667 -17 63 -17c24 0 40.333 10 49 30s9 43 1 69h104c14.667 -58.667 8.66699 -109.5 -18 -152.5s-70 -64.5 -130 -64.5zM159.997 -0.000976562v1080h147v-1080h-147z" />
    <glyph glyph-name="Imacron" unicode="&#x12a;" horiz-adv-x="467" 
d="M-17 1680v125h501v-125h-501zM160 0v1440h147v-1440h-147z" />
    <glyph glyph-name="imacron" unicode="&#x12b;" horiz-adv-x="467" 
d="M-17 1320v125h501v-125h-501zM160 0v1080h147v-1080h-147z" />
    <glyph glyph-name="Iogonek" unicode="&#x12e;" horiz-adv-x="467" 
d="M143 -482c-35.333 0 -67.499 9.16797 -96.499 27.501s-52 42.333 -69 72s-25.5 61.5 -25.5 95.5c0 43.333 12.333 87.5 37 132.5s57.834 88.5 99.501 130.5s87.834 79.333 138.501 112l80 -88c-40.667 -24.667 -78.334 -53.167 -113.001 -85.5
s-62.334 -65.5 -83.001 -99.5s-31 -65.333 -31 -94c0 -24.667 7.66699 -44.834 23 -60.501s33 -23.5 53 -23.5c15.333 0 31 4.5 47 13.5s31 20.833 45 35.5l65 -79c-22.667 -29.333 -48.834 -51.5 -78.501 -66.5s-60.167 -22.5 -91.5 -22.5zM160.001 0.000976562v1440h147
v-1440h-147z" />
    <glyph glyph-name="iogonek" unicode="&#x12f;" horiz-adv-x="467" 
d="M143 -482c-35.333 0 -67.499 9.16797 -96.499 27.501s-52 42.333 -69 72s-25.5 61.5 -25.5 95.5c0 43.333 12.333 87.5 37 132.5s57.834 88.5 99.501 130.5s87.834 79.333 138.501 112l80 -88c-40.667 -24.667 -78.334 -53.167 -113.001 -85.5
s-62.334 -65.5 -83.001 -99.5s-31 -65.333 -31 -94c0 -24.667 7.66699 -44.834 23 -60.501s33 -23.5 53 -23.5c15.333 0 31 4.5 47 13.5s31 20.833 45 35.5l65 -79c-22.667 -29.333 -48.834 -51.5 -78.501 -66.5s-60.167 -22.5 -91.5 -22.5zM160.001 1285v165h147v-165h-147
zM160.001 0.000976562v1080h147v-1080h-147z" />
    <glyph glyph-name="Idotaccent" unicode="&#x130;" horiz-adv-x="467" 
d="M148 1669v171h171v-171h-171zM160 0v1440h147v-1440h-147z" />
    <glyph glyph-name="dotlessi" unicode="&#x131;" horiz-adv-x="467" 
d="M160 0v1080h147v-1080h-147z" />
    <glyph glyph-name="Jcircumflex" unicode="&#x134;" horiz-adv-x="927" 
d="M393 1610l230 270h136l229 -270h-150l-147 173l-148 -173h-150zM386 -29c-96 0 -178.333 26.667 -247 80s-115 124.666 -139 213.999l147 35c12 -52.667 39.833 -97.167 83.5 -133.5s95.167 -54.5 154.5 -54.5c37.333 0 75.166 9 113.499 27s68.5 47.667 90.5 89
c14.667 28.667 23.167 59.834 25.5 93.501s3.5 74.167 3.5 121.5v997h148v-997c0 -40 -0.333008 -76.167 -1 -108.5s-4.16699 -63.333 -10.5 -93s-18.166 -59.5 -35.499 -89.5c-34.667 -60.667 -81.167 -106 -139.5 -136s-122.833 -45 -193.5 -45z" />
    <glyph glyph-name="jcircumflex" unicode="&#x135;" horiz-adv-x="501" 
d="M-20 -480v142h61c48.667 0 87.5 12.5 116.5 37.5s43.5 66.833 43.5 125.5v1255h146v-1292c0 -90 -21.5 -157.167 -64.5 -201.5s-108.833 -66.5 -197.5 -66.5h-105zM-25 1250l229 270h136l230 -270h-150l-148 173l-147 -173h-150z" />
    <glyph glyph-name="uni0136" unicode="&#x136;" horiz-adv-x="1187" 
d="M545 -550l-0.000976562 78c8 0 19.333 2.33301 34 7s27.667 13.5 39 26.5s16.333 31.5 15 55.5h-88v165h165v-165c0 -56 -17.167 -97.833 -51.5 -125.5s-72.166 -41.5 -113.499 -41.5zM139.999 0v1440h147v-680l657 680h188l-671 -695l726 -745h-192l-708 720v-720h-147z
" />
    <glyph glyph-name="uni0137" unicode="&#x137;" horiz-adv-x="992" 
d="M461 -550l-0.00195312 78c8 0 19.333 2.33301 34 7s27.834 13.5 39.501 26.5s16.834 31.5 15.501 55.5h-89v165h166v-165c0 -56 -17.333 -97.833 -52 -125.5s-72.667 -41.5 -114 -41.5zM138.998 0l1 1440h148v-880l482 520h196l-506 -540l572 -540h-214l-530 520v-520
h-149z" />
    <glyph glyph-name="Lacute" unicode="&#x139;" horiz-adv-x="1021" 
d="M299 1610h-126l119 310h126zM160 0v1440h147v-1299h684v-141h-831z" />
    <glyph glyph-name="lacute" unicode="&#x13a;" horiz-adv-x="467" 
d="M299 1610h-126l119 310h126zM160 0v1470h147v-1470h-147z" />
    <glyph glyph-name="uni013B" unicode="&#x13b;" horiz-adv-x="1021" 
d="M493 -550l-0.000976562 78c8 0 19.333 2.33301 34 7s27.667 13.5 39 26.5s16.333 31.5 15 55.5h-88v165h165v-165c0 -56 -17.167 -97.833 -51.5 -125.5s-72.166 -41.5 -113.499 -41.5zM159.999 0v1440h147v-1299h684v-141h-831z" />
    <glyph glyph-name="uni013C" unicode="&#x13c;" horiz-adv-x="467" 
d="M151 -550l-0.000976562 78c8 0 19.333 2.33301 34 7s27.667 13.5 39 26.5s16.333 31.5 15 55.5h-88v165h165v-165c0 -56 -17.167 -97.833 -51.5 -125.5s-72.166 -41.5 -113.499 -41.5zM159.999 0v1470h147v-1470h-147z" />
    <glyph glyph-name="Lcaron" unicode="&#x13d;" horiz-adv-x="1021" 
d="M160 0v1440h147v-1299h684v-141h-831zM641 1034l8.99902 73c26.667 -2 46 3.33301 58 16s19.333 29.667 22 51s3.33398 44.333 2.00098 69h-91v211h171v-251c0 -61.333 -15.5 -107.333 -46.5 -138s-72.5 -41 -124.5 -31z" />
    <glyph glyph-name="lcaron" unicode="&#x13e;" horiz-adv-x="663" 
d="M160 0v1470h147v-1470h-147zM473 1034l8.99902 73c26.667 -2 46 3.33301 58 16s19.333 29.667 22 51s3.33398 44.333 2.00098 69h-91v211h171v-251c0 -61.333 -15.5 -107.333 -46.5 -138s-72.5 -41 -124.5 -31z" />
    <glyph glyph-name="Lslash" unicode="&#x141;" horiz-adv-x="1034" 
d="M84 407v165l591 339v-164zM173 0v1440h147v-1299h684v-141h-831z" />
    <glyph glyph-name="lslash" unicode="&#x142;" horiz-adv-x="752" 
d="M81 483v165l590 339v-164zM303 0v1470h147v-1470h-147z" />
    <glyph glyph-name="Nacute" unicode="&#x143;" horiz-adv-x="1369" 
d="M766 1610h-126l120 310h126zM140 0v1440h148l793 -1180v1180h148v-1440h-148l-793 1181v-1181h-148z" />
    <glyph glyph-name="nacute" unicode="&#x144;" 
d="M681 1250h-126l119 310h126zM920 0v550.999c0 60 -5.66699 115.167 -17 165.5s-29.5 94.333 -54.5 132s-57.333 66.834 -97 87.501s-87.834 31 -144.501 31c-52 0 -97.833 -9 -137.5 -27s-73 -43.833 -100 -77.5s-47.5 -74.5 -61.5 -122.5s-21 -102.667 -21 -164l-104 23
c0 110.667 19.333 203.667 58 279s92 132.333 160 171s146 58 234 58c64.667 0 121.167 -10 169.5 -30s89.333 -47 123 -81s60.834 -72.833 81.501 -116.5s35.667 -90 45 -139s14 -97.833 14 -146.5v-594h-148zM139 -0.000976562v1080h133v-266h15v-814h-148z" />
    <glyph glyph-name="uni0145" unicode="&#x145;" horiz-adv-x="1369" 
d="M622 -550l-0.00292969 78c8 0 19.333 2.33301 34 7s27.834 13.5 39.501 26.5s16.834 31.5 15.501 55.5h-89v165h165v-165c0 -56 -17.167 -97.833 -51.5 -125.5s-72.166 -41.5 -113.499 -41.5zM139.997 0v1440h148l793 -1180v1180h148v-1440h-148l-793 1181v-1181h-148z
" />
    <glyph glyph-name="uni0146" unicode="&#x146;" 
d="M524 -550l-0.00292969 78c8 0 19.333 2.33301 34 7s27.834 13.5 39.501 26.5s16.834 31.5 15.501 55.5h-89v165h165v-165c0 -56 -17.167 -97.833 -51.5 -125.5s-72.166 -41.5 -113.499 -41.5zM919.997 0v550.999c0 60 -5.66699 115.167 -17 165.5s-29.5 94.333 -54.5 132
s-57.333 66.834 -97 87.501s-87.834 31 -144.501 31c-52 0 -97.833 -9 -137.5 -27s-73 -43.833 -100 -77.5s-47.5 -74.5 -61.5 -122.5s-21 -102.667 -21 -164l-104 23c0 110.667 19.333 203.667 58 279s92 132.333 160 171s146 58 234 58c64.667 0 121.167 -10 169.5 -30
s89.333 -47 123 -81s60.834 -72.833 81.501 -116.5s35.667 -90 45 -139s14 -97.833 14 -146.5v-594h-148zM138.997 -0.000976562v1080h133v-266h15v-814h-148z" />
    <glyph glyph-name="Ncaron" unicode="&#x147;" horiz-adv-x="1369" 
d="M411 1880h150l148 -173l147 173h150l-229 -270h-136zM140 0v1440h148l793 -1180v1180h148v-1440h-148l-793 1181v-1181h-148z" />
    <glyph glyph-name="ncaron" unicode="&#x148;" 
d="M300 1520h150l147 -173l148 173h150l-230 -270h-136zM920 0v550.999c0 60 -5.66699 115.167 -17 165.5s-29.5 94.333 -54.5 132s-57.333 66.834 -97 87.501s-87.834 31 -144.501 31c-52 0 -97.833 -9 -137.5 -27s-73 -43.833 -100 -77.5s-47.5 -74.5 -61.5 -122.5
s-21 -102.667 -21 -164l-104 23c0 110.667 19.333 203.667 58 279s92 132.333 160 171s146 58 234 58c64.667 0 121.167 -10 169.5 -30s89.333 -47 123 -81s60.834 -72.833 81.501 -116.5s35.667 -90 45 -139s14 -97.833 14 -146.5v-594h-148zM139 -0.000976562v1080h133
v-266h15v-814h-148z" />
    <glyph glyph-name="Eng" unicode="&#x14a;" horiz-adv-x="1369" 
d="M1081 1440l147.999 0.000976562v-1625c0 -72.667 -16.333 -126.334 -49 -161.001s-83.667 -52 -153 -52c-17.333 0 -34.666 1 -51.999 3s-36 5.33301 -56 10v122c16 -2 29 -3.5 39 -4.5s19.333 -1.5 28 -1.5c40.667 0 69.5 10.333 86.5 31s25.5 58 25.5 112
c0 34 -5 66.5 -15 97.5s-27.333 65.5 -52 103.5l-743 1106v-1181h-148v1440h148l793 -1180v1180z" />
    <glyph glyph-name="eng" unicode="&#x14b;" 
d="M929 -393c-35.333 -5.33301 -66.1689 -6.83301 -92.502 -4.5s-52.166 6.5 -77.499 12.5v118c26.667 -3.33301 50 -4.33301 70 -3s36.833 7 50.5 17s23.834 25.833 30.501 47.5s10 51.167 10 88.5v120h148v-188c0 -64 -12.667 -112.667 -38 -146s-59 -54 -101 -62z
M919.997 0v550.999c0 60 -5.66699 115.167 -17 165.5s-29.5 94.333 -54.5 132s-57.333 66.834 -97 87.501s-87.834 31 -144.501 31c-52 0 -97.833 -9 -137.5 -27s-73 -43.833 -100 -77.5s-47.5 -74.5 -61.5 -122.5s-21 -102.667 -21 -164l-104 23
c0 110.667 19.333 203.667 58 279s92 132.333 160 171s146 58 234 58c64.667 0 121.167 -10 169.5 -30s89.333 -47 123 -81s60.834 -72.833 81.501 -116.5s35.667 -90 45 -139s14 -97.833 14 -146.5v-594h-148zM138.997 -0.000976562v1080h133v-266h15v-814h-148z" />
    <glyph glyph-name="Omacron" unicode="&#x14c;" horiz-adv-x="1447" 
d="M473 1680v125h501v-125h-501zM723 -30c-143.333 0 -264.333 31.833 -363 95.5s-173.334 151.834 -224.001 264.501s-76 242.667 -76 390s25.333 277.333 76 390s125.334 200.834 224.001 264.501s219.667 95.5 363 95.5c144 0 265.167 -31.833 363.5 -95.5
s173 -151.834 224 -264.501s76.5 -242.667 76.5 -390s-25.5 -277.333 -76.5 -390s-125.667 -200.834 -224 -264.501s-219.5 -95.5 -363.5 -95.5zM723 111c112.667 0 206.67 25.6689 282.003 77.002s131.833 122.833 169.5 214.5s56.5 197.5 56.5 317.5
s-18.833 225.667 -56.5 317s-94.167 162.666 -169.5 213.999s-169.333 77.333 -282 78c-112.667 0 -206.334 -25.667 -281.001 -77s-130.834 -122.833 -168.501 -214.5s-56.834 -197.5 -57.501 -317.5s17.833 -225.5 55.5 -316.5s94.167 -162.333 169.5 -214
s169.333 -77.834 282 -78.501z" />
    <glyph glyph-name="omacron" unicode="&#x14d;" horiz-adv-x="1183" 
d="M341 1320v125h502v-125h-502zM591 -30c-107.333 0 -198.995 24.334 -274.995 73.001s-134.333 116 -175 202s-61 184.667 -61 296c0 113.333 20.667 212.666 62 297.999s100.166 151.833 176.499 199.5s167.166 71.5 272.499 71.5c108 0 200.167 -24.167 276.5 -72.5
s134.666 -115.333 174.999 -201s60.5 -184.167 60.5 -295.5c0 -113.333 -20.333 -212.833 -61 -298.5s-99.334 -152.5 -176.001 -200.5s-168.334 -72 -275.001 -72zM591.005 111.001c120 0 209.333 39.832 268 119.499s88 183.167 88 310.5
c0 130.667 -29.5 234.667 -88.5 312s-148.167 116 -267.5 116c-80.667 0 -147.167 -18.167 -199.5 -54.5s-91.333 -86.666 -117 -150.999s-38.5 -138.5 -38.5 -222.5c0 -130 30 -234.167 90 -312.5s148.333 -117.5 265 -117.5z" />
    <glyph glyph-name="Ohungarumlaut" unicode="&#x150;" horiz-adv-x="1447" 
d="M969 1610h-126l119 310h126zM594 1610h-126l119 310h126zM723 -30c-143.333 0 -264.333 31.833 -363 95.5s-173.334 151.834 -224.001 264.501s-76 242.667 -76 390s25.333 277.333 76 390s125.334 200.834 224.001 264.501s219.667 95.5 363 95.5
c144 0 265.167 -31.833 363.5 -95.5s173 -151.834 224 -264.501s76.5 -242.667 76.5 -390s-25.5 -277.333 -76.5 -390s-125.667 -200.834 -224 -264.501s-219.5 -95.5 -363.5 -95.5zM723 111c112.667 0 206.67 25.6689 282.003 77.002s131.833 122.833 169.5 214.5
s56.5 197.5 56.5 317.5s-18.833 225.667 -56.5 317s-94.167 162.666 -169.5 213.999s-169.333 77.333 -282 78c-112.667 0 -206.334 -25.667 -281.001 -77s-130.834 -122.833 -168.501 -214.5s-56.834 -197.5 -57.501 -317.5s17.833 -225.5 55.5 -316.5
s94.167 -162.333 169.5 -214s169.333 -77.834 282 -78.501z" />
    <glyph glyph-name="ohungarumlaut" unicode="&#x151;" horiz-adv-x="1183" 
d="M838 1250h-126l119 310h126zM463 1250h-126l120 310h126zM591 -30c-107.333 0 -198.995 24.334 -274.995 73.001s-134.333 116 -175 202s-61 184.667 -61 296c0 113.333 20.667 212.666 62 297.999s100.166 151.833 176.499 199.5s167.166 71.5 272.499 71.5
c108 0 200.167 -24.167 276.5 -72.5s134.666 -115.333 174.999 -201s60.5 -184.167 60.5 -295.5c0 -113.333 -20.333 -212.833 -61 -298.5s-99.334 -152.5 -176.001 -200.5s-168.334 -72 -275.001 -72zM591.005 111.001c120 0 209.333 39.832 268 119.499
s88 183.167 88 310.5c0 130.667 -29.5 234.667 -88.5 312s-148.167 116 -267.5 116c-80.667 0 -147.167 -18.167 -199.5 -54.5s-91.333 -86.666 -117 -150.999s-38.5 -138.5 -38.5 -222.5c0 -130 30 -234.167 90 -312.5s148.333 -117.5 265 -117.5z" />
    <glyph glyph-name="OE" unicode="&#x152;" horiz-adv-x="2239" 
d="M723 -30c-143.333 0 -264.333 31.833 -363 95.5s-173.334 151.834 -224.001 264.501s-76 242.667 -76 390s25.333 277.333 76 390s125.334 200.834 224.001 264.501s219.667 95.5 363 95.5c144 0 265.167 -31.833 363.5 -95.5s173 -151.834 224 -264.501
s76.5 -242.667 76.5 -390s-25.5 -277.333 -76.5 -390s-125.667 -200.834 -224 -264.501s-219.5 -95.5 -363.5 -95.5zM723 111c112.667 0 206.67 25.6689 282.003 77.002s131.833 122.833 169.5 214.5s56.5 197.5 56.5 317.5s-18.833 225.667 -56.5 317
s-94.167 162.666 -169.5 213.999s-169.333 77.333 -282 78c-112.667 0 -206.334 -25.667 -281.001 -77s-130.834 -122.833 -168.501 -214.5s-56.834 -197.5 -57.501 -317.5s17.833 -225.5 55.5 -316.5s94.167 -162.333 169.5 -214s169.333 -77.834 282 -78.501z
M1239 0.00195312v1440h900v-141h-753v-498h633v-141h-633v-519h753v-141h-900z" />
    <glyph glyph-name="oe" unicode="&#x153;" horiz-adv-x="2038" 
d="M1466 -30c-105.333 0 -196.499 23.3311 -273.499 69.998s-136.833 112.334 -179.5 197.001s-64 184 -64 298c0 118 21 220 63 306s101.167 152.333 177.5 199s166.5 70 270.5 70c106.667 0 197.667 -24.5 273 -73.5s132.333 -119.167 171 -210.5
s56.334 -200.333 53.001 -327h-150v52c-2.66699 140 -32.834 245.667 -90.501 317s-141.834 107 -252.501 107c-116 0 -204.833 -37.667 -266.5 -113s-92.5 -182.666 -92.5 -321.999c0 -136 30.833 -241.5 92.5 -316.5s149.167 -112.5 262.5 -112.5
c77.333 0 144.833 17.833 202.5 53.5s103.167 87.167 136.5 154.5l137 -53c-42.667 -94 -105.5 -166.833 -188.5 -218.5s-176.833 -77.5 -281.5 -77.5zM1053 498.998v123h825v-123h-825zM591.001 -30.002c-107.333 0 -198.995 24.334 -274.995 73.001s-134.333 116 -175 202
s-61 184.667 -61 296c0 113.333 20.667 212.666 62 297.999s100.166 151.833 176.499 199.5s167.166 71.5 272.499 71.5c108 0 200.167 -24.167 276.5 -72.5s134.666 -115.333 174.999 -201s60.5 -184.167 60.5 -295.5c0 -113.333 -20.333 -212.833 -61 -298.5
s-99.334 -152.5 -176.001 -200.5s-168.334 -72 -275.001 -72zM591.006 110.999c120 0 209.333 39.832 268 119.499s88 183.167 88 310.5c0 130.667 -29.5 234.667 -88.5 312s-148.167 116 -267.5 116c-80.667 0 -147.167 -18.167 -199.5 -54.5
s-91.333 -86.666 -117 -150.999s-38.5 -138.5 -38.5 -222.5c0 -130 30 -234.167 90 -312.5s148.333 -117.5 265 -117.5z" />
    <glyph glyph-name="Racute" unicode="&#x154;" horiz-adv-x="1261" 
d="M644 1610h-126l119 310h126zM140 0l0.000976562 1440h556c14 0 29.833 -0.5 47.5 -1.5s35.5 -3.16699 53.5 -6.5c75.333 -11.333 139.166 -37.5 191.499 -78.5s92 -92.5 119 -154.5s40.5 -130.667 40.5 -206c0 -108.667 -28.667 -203 -86 -283
s-139.333 -130.333 -246 -151l-51 -12h-478v-547h-147zM1012 0l-284 586l141 54l312 -640h-169zM287.001 687h405c12 0 26 0.666992 42 2s31.667 3.66602 47 6.99902c49.333 10.667 89.833 31 121.5 61s55.334 65.667 71.001 107s23.5 84.333 23.5 129
s-7.83301 87.834 -23.5 129.501s-39.334 77.5 -71.001 107.5s-72.167 50.333 -121.5 61c-15.333 3.33301 -31 5.5 -47 6.5s-30 1.5 -42 1.5h-405v-612z" />
    <glyph glyph-name="racute" unicode="&#x155;" horiz-adv-x="721" 
d="M399 1250h-126l119 310h126zM140 0v1080h132v-260l-26 34c12 32 27.667 61.5 47 88.5s40.333 49.167 63 66.5c28 24.667 60.667 43.5 98 56.5s75 20.667 113 23s72.667 -0.5 104 -8.5v-138c-39.333 10 -82.333 12.333 -129 7s-89.667 -24 -129 -56
c-36 -28 -63 -61.5 -81 -100.5s-30 -80.333 -36 -124s-9 -86.834 -9 -129.501v-539h-147z" />
    <glyph glyph-name="uni0156" unicode="&#x156;" horiz-adv-x="1261" 
d="M534 -550l-0.00292969 78c8 0 19.333 2.33301 34 7s27.834 13.5 39.501 26.5s16.834 31.5 15.501 55.5h-89v165h165v-165c0 -56 -17.167 -97.833 -51.5 -125.5s-72.166 -41.5 -113.499 -41.5zM139.997 0l0.000976562 1440h556c14 0 29.833 -0.5 47.5 -1.5
s35.5 -3.16699 53.5 -6.5c75.333 -11.333 139.166 -37.5 191.499 -78.5s92 -92.5 119 -154.5s40.5 -130.667 40.5 -206c0 -108.667 -28.667 -203 -86 -283s-139.333 -130.333 -246 -151l-51 -12h-478v-547h-147zM1012 0l-284 586l141 54l312 -640h-169zM286.998 687h405
c12 0 26 0.666992 42 2s31.667 3.66602 47 6.99902c49.333 10.667 89.833 31 121.5 61s55.334 65.667 71.001 107s23.5 84.333 23.5 129s-7.83301 87.834 -23.5 129.501s-39.334 77.5 -71.001 107.5s-72.167 50.333 -121.5 61c-15.333 3.33301 -31 5.5 -47 6.5
s-30 1.5 -42 1.5h-405v-612z" />
    <glyph glyph-name="uni0157" unicode="&#x157;" horiz-adv-x="721" 
d="M131 -550l-0.00195312 78c8 0 19.333 2.33301 34 7s27.834 13.5 39.501 26.5s16.834 31.5 15.501 55.5h-89v165h166v-165c0 -56 -17.333 -97.833 -52 -125.5s-72.667 -41.5 -114 -41.5zM139.998 0v1080h132v-260l-26 34c12 32 27.667 61.5 47 88.5s40.333 49.167 63 66.5
c28 24.667 60.667 43.5 98 56.5s75 20.667 113 23s72.667 -0.5 104 -8.5v-138c-39.333 10 -82.333 12.333 -129 7s-89.667 -24 -129 -56c-36 -28 -63 -61.5 -81 -100.5s-30 -80.333 -36 -124s-9 -86.834 -9 -129.501v-539h-147z" />
    <glyph glyph-name="Rcaron" unicode="&#x158;" horiz-adv-x="1261" 
d="M278 1880h150l147 -173l148 173h150l-230 -270h-136zM140 0l0.000976562 1440h556c14 0 29.833 -0.5 47.5 -1.5s35.5 -3.16699 53.5 -6.5c75.333 -11.333 139.166 -37.5 191.499 -78.5s92 -92.5 119 -154.5s40.5 -130.667 40.5 -206c0 -108.667 -28.667 -203 -86 -283
s-139.333 -130.333 -246 -151l-51 -12h-478v-547h-147zM1012 0l-284 586l141 54l312 -640h-169zM287.001 687h405c12 0 26 0.666992 42 2s31.667 3.66602 47 6.99902c49.333 10.667 89.833 31 121.5 61s55.334 65.667 71.001 107s23.5 84.333 23.5 129
s-7.83301 87.834 -23.5 129.501s-39.334 77.5 -71.001 107.5s-72.167 50.333 -121.5 61c-15.333 3.33301 -31 5.5 -47 6.5s-30 1.5 -42 1.5h-405v-612z" />
    <glyph glyph-name="rcaron" unicode="&#x159;" horiz-adv-x="721" 
d="M107 1520h150l148 -173l147 173h150l-229 -270h-136zM140 0v1080h132v-260l-26 34c12 32 27.667 61.5 47 88.5s40.333 49.167 63 66.5c28 24.667 60.667 43.5 98 56.5s75 20.667 113 23s72.667 -0.5 104 -8.5v-138c-39.333 10 -82.333 12.333 -129 7
s-89.667 -24 -129 -56c-36 -28 -63 -61.5 -81 -100.5s-30 -80.333 -36 -124s-9 -86.834 -9 -129.501v-539h-147z" />
    <glyph glyph-name="Sacute" unicode="&#x15a;" horiz-adv-x="1233" 
d="M688 1610h-126l120 310h126zM640 -30c-100.667 0 -191.168 16.8389 -271.501 50.5059s-146.666 81.5 -198.999 143.5s-86.5 135.667 -102.5 221l150 25c24 -93.333 74.667 -166.5 152 -219.5s169.666 -79.5 276.999 -79.5c70.667 0 134 11.167 190 33.5
s100 54.166 132 95.499s48 90.333 48 147c0 37.333 -6.66699 69.166 -20 95.499s-31 48.166 -53 65.499s-46 31.833 -72 43.5s-51.333 21.167 -76 28.5l-365 109c-44 12.667 -84.667 28.834 -122 48.501s-69.833 43.334 -97.5 71.001s-49.167 60.167 -64.5 97.5
s-23 80 -23 128c0 81.333 21.333 151.666 64 210.999s101 105 175 137s158.333 47.667 253 47c96 0 181.833 -17 257.5 -51s138.167 -82.5 187.5 -145.5s82 -137.5 98 -223.5l-154 -28c-10 62.667 -33 117 -69 163s-81.833 81.5 -137.5 106.5s-116.834 37.833 -183.501 38.5
c-64.667 0 -122.167 -10.833 -172.5 -32.5s-90.166 -51.167 -119.499 -88.5s-44 -80 -44 -128c0 -48.667 13.5 -87.667 40.5 -117s60.333 -52.333 100 -69s78.167 -30.334 115.5 -41.001l282 -83c29.333 -8 63.833 -19.5 103.5 -34.5s78.334 -36.333 116.001 -64
s68.834 -63.834 93.501 -108.501s37 -101.334 37 -170.001c0 -66.667 -13.167 -126.334 -39.5 -179.001s-63.333 -97 -111 -133s-103.334 -63.5 -167.001 -82.5s-133.167 -28.5 -208.5 -28.5z" />
    <glyph glyph-name="sacute" unicode="&#x15b;" horiz-adv-x="1050" 
d="M592 1250h-126l119 310h126zM543 -29c-126.667 0 -230.829 27.332 -312.496 81.999s-131.834 130.667 -150.501 228l150 25c16 -61.333 52.5 -110.166 109.5 -146.499s127.5 -54.5 211.5 -54.5c82 0 146.667 17.167 194 51.5s71 81.166 71 140.499
c0 33.333 -7.5 60.5 -22.5 81.5s-45.5 40.5 -91.5 58.5s-114.667 39.333 -206 64c-98 26.667 -174.667 53.334 -230 80.001s-94.666 57.5 -117.999 92.5s-35 77.833 -35 128.5c0 61.333 17.333 115.166 52 161.499s82.667 82.333 144 108s132.666 38.5 213.999 38.5
s154.166 -13.167 218.499 -39.5s116.166 -63.166 155.499 -110.499s62.666 -102.333 69.999 -165l-150 -27c-10 63.333 -41.5 113.5 -94.5 150.5s-120.167 56.167 -201.5 57.5c-76.667 2 -139 -12.5 -187 -43.5s-72 -72.167 -72 -123.5c0 -28.667 8.66699 -53.167 26 -73.5
s48.833 -39.5 94.5 -57.5s110.834 -37.667 195.501 -59c99.333 -25.333 177.333 -52 234 -80s97 -61 121 -99s36 -85 36 -141c0 -102 -37.833 -182.167 -113.5 -240.5s-179.834 -87.5 -312.501 -87.5z" />
    <glyph glyph-name="Scircumflex" unicode="&#x15c;" horiz-adv-x="1233" 
d="M334 1610l230 270h136l229 -270h-150l-147 173l-148 -173h-150zM640 -30c-100.667 0 -191.168 16.8389 -271.501 50.5059s-146.666 81.5 -198.999 143.5s-86.5 135.667 -102.5 221l150 25c24 -93.333 74.667 -166.5 152 -219.5s169.666 -79.5 276.999 -79.5
c70.667 0 134 11.167 190 33.5s100 54.166 132 95.499s48 90.333 48 147c0 37.333 -6.66699 69.166 -20 95.499s-31 48.166 -53 65.499s-46 31.833 -72 43.5s-51.333 21.167 -76 28.5l-365 109c-44 12.667 -84.667 28.834 -122 48.501s-69.833 43.334 -97.5 71.001
s-49.167 60.167 -64.5 97.5s-23 80 -23 128c0 81.333 21.333 151.666 64 210.999s101 105 175 137s158.333 47.667 253 47c96 0 181.833 -17 257.5 -51s138.167 -82.5 187.5 -145.5s82 -137.5 98 -223.5l-154 -28c-10 62.667 -33 117 -69 163s-81.833 81.5 -137.5 106.5
s-116.834 37.833 -183.501 38.5c-64.667 0 -122.167 -10.833 -172.5 -32.5s-90.166 -51.167 -119.499 -88.5s-44 -80 -44 -128c0 -48.667 13.5 -87.667 40.5 -117s60.333 -52.333 100 -69s78.167 -30.334 115.5 -41.001l282 -83c29.333 -8 63.833 -19.5 103.5 -34.5
s78.334 -36.333 116.001 -64s68.834 -63.834 93.501 -108.501s37 -101.334 37 -170.001c0 -66.667 -13.167 -126.334 -39.5 -179.001s-63.333 -97 -111 -133s-103.334 -63.5 -167.001 -82.5s-133.167 -28.5 -208.5 -28.5z" />
    <glyph glyph-name="scircumflex" unicode="&#x15d;" horiz-adv-x="1050" 
d="M246 1250l230 270h136l229 -270h-150l-147 173l-148 -173h-150zM543 -29c-126.667 0 -230.829 27.332 -312.496 81.999s-131.834 130.667 -150.501 228l150 25c16 -61.333 52.5 -110.166 109.5 -146.499s127.5 -54.5 211.5 -54.5c82 0 146.667 17.167 194 51.5
s71 81.166 71 140.499c0 33.333 -7.5 60.5 -22.5 81.5s-45.5 40.5 -91.5 58.5s-114.667 39.333 -206 64c-98 26.667 -174.667 53.334 -230 80.001s-94.666 57.5 -117.999 92.5s-35 77.833 -35 128.5c0 61.333 17.333 115.166 52 161.499s82.667 82.333 144 108
s132.666 38.5 213.999 38.5s154.166 -13.167 218.499 -39.5s116.166 -63.166 155.499 -110.499s62.666 -102.333 69.999 -165l-150 -27c-10 63.333 -41.5 113.5 -94.5 150.5s-120.167 56.167 -201.5 57.5c-76.667 2 -139 -12.5 -187 -43.5s-72 -72.167 -72 -123.5
c0 -28.667 8.66699 -53.167 26 -73.5s48.833 -39.5 94.5 -57.5s110.834 -37.667 195.501 -59c99.333 -25.333 177.333 -52 234 -80s97 -61 121 -99s36 -85 36 -141c0 -102 -37.833 -182.167 -113.5 -240.5s-179.834 -87.5 -312.501 -87.5z" />
    <glyph glyph-name="Scedilla" unicode="&#x15e;" horiz-adv-x="1233" 
d="M611 -480c-24 0 -46.501 3 -67.501 9s-40.833 13.333 -59.5 22l38 102c30.667 -12 56.334 -18 77.001 -18c26 0 46.167 8.16699 60.5 24.5s21.5 34.166 21.5 53.499c0 30.667 -13.667 52.834 -41 66.501s-58 25.5 -92 35.5l74 206h109l-51 -140
c36 -16 65.167 -37.833 87.5 -65.5s33.5 -63.167 33.5 -106.5c0 -54 -18.833 -99 -56.5 -135s-82.167 -54 -133.5 -54zM639.999 -30c-100.667 0 -191.168 16.8389 -271.501 50.5059s-146.666 81.5 -198.999 143.5s-86.5 135.667 -102.5 221l150 25
c24 -93.333 74.667 -166.5 152 -219.5s169.666 -79.5 276.999 -79.5c70.667 0 134 11.167 190 33.5s100 54.166 132 95.499s48 90.333 48 147c0 37.333 -6.66699 69.166 -20 95.499s-31 48.166 -53 65.499s-46 31.833 -72 43.5s-51.333 21.167 -76 28.5l-365 109
c-44 12.667 -84.667 28.834 -122 48.501s-69.833 43.334 -97.5 71.001s-49.167 60.167 -64.5 97.5s-23 80 -23 128c0 81.333 21.333 151.666 64 210.999s101 105 175 137s158.333 47.667 253 47c96 0 181.833 -17 257.5 -51s138.167 -82.5 187.5 -145.5s82 -137.5 98 -223.5
l-154 -28c-10 62.667 -33 117 -69 163s-81.833 81.5 -137.5 106.5s-116.834 37.833 -183.501 38.5c-64.667 0 -122.167 -10.833 -172.5 -32.5s-90.166 -51.167 -119.499 -88.5s-44 -80 -44 -128c0 -48.667 13.5 -87.667 40.5 -117s60.333 -52.333 100 -69
s78.167 -30.334 115.5 -41.001l282 -83c29.333 -8 63.833 -19.5 103.5 -34.5s78.334 -36.333 116.001 -64s68.834 -63.834 93.501 -108.501s37 -101.334 37 -170.001c0 -66.667 -13.167 -126.334 -39.5 -179.001s-63.333 -97 -111 -133s-103.334 -63.5 -167.001 -82.5
s-133.167 -28.5 -208.5 -28.5z" />
    <glyph glyph-name="scedilla" unicode="&#x15f;" horiz-adv-x="1050" 
d="M512 -480c-24 0 -46.501 3 -67.501 9s-40.833 13.333 -59.5 22l38 102c30.667 -12 56.334 -18 77.001 -18c26 0 46 8.16699 60 24.5s21 34.166 21 53.499c0 30.667 -13.5 52.834 -40.5 66.501s-57.5 25.5 -91.5 35.5l74 206h108l-50 -140
c35.333 -16 64.166 -37.833 86.499 -65.5s33.5 -63.167 33.5 -106.5c0 -54 -18.667 -99 -56 -135s-81.666 -54 -132.999 -54zM542.999 -29c-126.667 0 -230.829 27.332 -312.496 81.999s-131.834 130.667 -150.501 228l150 25c16 -61.333 52.5 -110.166 109.5 -146.499
s127.5 -54.5 211.5 -54.5c82 0 146.667 17.167 194 51.5s71 81.166 71 140.499c0 33.333 -7.5 60.5 -22.5 81.5s-45.5 40.5 -91.5 58.5s-114.667 39.333 -206 64c-98 26.667 -174.667 53.334 -230 80.001s-94.666 57.5 -117.999 92.5s-35 77.833 -35 128.5
c0 61.333 17.333 115.166 52 161.499s82.667 82.333 144 108s132.666 38.5 213.999 38.5s154.166 -13.167 218.499 -39.5s116.166 -63.166 155.499 -110.499s62.666 -102.333 69.999 -165l-150 -27c-10 63.333 -41.5 113.5 -94.5 150.5s-120.167 56.167 -201.5 57.5
c-76.667 2 -139 -12.5 -187 -43.5s-72 -72.167 -72 -123.5c0 -28.667 8.66699 -53.167 26 -73.5s48.833 -39.5 94.5 -57.5s110.834 -37.667 195.501 -59c99.333 -25.333 177.333 -52 234 -80s97 -61 121 -99s36 -85 36 -141c0 -102 -37.833 -182.167 -113.5 -240.5
s-179.834 -87.5 -312.501 -87.5z" />
    <glyph glyph-name="Scaron" unicode="&#x160;" horiz-adv-x="1233" 
d="M345 1880h150l147 -173l147 173h150l-229 -270h-136zM640 -30c-100.667 0 -191.168 16.8389 -271.501 50.5059s-146.666 81.5 -198.999 143.5s-86.5 135.667 -102.5 221l150 25c24 -93.333 74.667 -166.5 152 -219.5s169.666 -79.5 276.999 -79.5
c70.667 0 134 11.167 190 33.5s100 54.166 132 95.499s48 90.333 48 147c0 37.333 -6.66699 69.166 -20 95.499s-31 48.166 -53 65.499s-46 31.833 -72 43.5s-51.333 21.167 -76 28.5l-365 109c-44 12.667 -84.667 28.834 -122 48.501s-69.833 43.334 -97.5 71.001
s-49.167 60.167 -64.5 97.5s-23 80 -23 128c0 81.333 21.333 151.666 64 210.999s101 105 175 137s158.333 47.667 253 47c96 0 181.833 -17 257.5 -51s138.167 -82.5 187.5 -145.5s82 -137.5 98 -223.5l-154 -28c-10 62.667 -33 117 -69 163s-81.833 81.5 -137.5 106.5
s-116.834 37.833 -183.501 38.5c-64.667 0 -122.167 -10.833 -172.5 -32.5s-90.166 -51.167 -119.499 -88.5s-44 -80 -44 -128c0 -48.667 13.5 -87.667 40.5 -117s60.333 -52.333 100 -69s78.167 -30.334 115.5 -41.001l282 -83c29.333 -8 63.833 -19.5 103.5 -34.5
s78.334 -36.333 116.001 -64s68.834 -63.834 93.501 -108.501s37 -101.334 37 -170.001c0 -66.667 -13.167 -126.334 -39.5 -179.001s-63.333 -97 -111 -133s-103.334 -63.5 -167.001 -82.5s-133.167 -28.5 -208.5 -28.5z" />
    <glyph glyph-name="scaron" unicode="&#x161;" horiz-adv-x="1050" 
d="M249 1520h150l147 -173l147 173h150l-229 -270h-136zM543 -29c-126.667 0 -230.829 27.332 -312.496 81.999s-131.834 130.667 -150.501 228l150 25c16 -61.333 52.5 -110.166 109.5 -146.499s127.5 -54.5 211.5 -54.5c82 0 146.667 17.167 194 51.5
s71 81.166 71 140.499c0 33.333 -7.5 60.5 -22.5 81.5s-45.5 40.5 -91.5 58.5s-114.667 39.333 -206 64c-98 26.667 -174.667 53.334 -230 80.001s-94.666 57.5 -117.999 92.5s-35 77.833 -35 128.5c0 61.333 17.333 115.166 52 161.499s82.667 82.333 144 108
s132.666 38.5 213.999 38.5s154.166 -13.167 218.499 -39.5s116.166 -63.166 155.499 -110.499s62.666 -102.333 69.999 -165l-150 -27c-10 63.333 -41.5 113.5 -94.5 150.5s-120.167 56.167 -201.5 57.5c-76.667 2 -139 -12.5 -187 -43.5s-72 -72.167 -72 -123.5
c0 -28.667 8.66699 -53.167 26 -73.5s48.833 -39.5 94.5 -57.5s110.834 -37.667 195.501 -59c99.333 -25.333 177.333 -52 234 -80s97 -61 121 -99s36 -85 36 -141c0 -102 -37.833 -182.167 -113.5 -240.5s-179.834 -87.5 -312.501 -87.5z" />
    <glyph glyph-name="uni0162" unicode="&#x162;" horiz-adv-x="1193" 
d="M523 0v1299h-503v141h1153v-141h-503v-1299h-147zM534 -489c-24 0 -46.501 3 -67.501 9s-40.833 13.333 -59.5 22l38 102c30.667 -12 56.334 -18 77.001 -18c26 0 46.167 8.16699 60.5 24.5s21.5 34.166 21.5 53.499c0 30.667 -13.667 52.834 -41 66.501
s-58 25.5 -92 35.5l74 206h109l-51 -140c36 -16 65.167 -37.833 87.5 -65.5s33.5 -63.167 33.5 -106.5c0 -54 -18.833 -99 -56.5 -135s-82.167 -54 -133.5 -54z" />
    <glyph glyph-name="uni0163" unicode="&#x163;" horiz-adv-x="801" 
d="M428 -480c-24 0 -46.501 3 -67.501 9s-40.833 13.333 -59.5 22l38 102c30.667 -12 56.334 -18 77.001 -18c26 0 46 8.16699 60 24.5s21 34.166 21 53.499c0 30.667 -13.5 52.834 -40.5 66.501s-57.5 25.5 -91.5 35.5l74 206h108l-50 -140
c35.333 -16 64.166 -37.833 86.499 -65.5s33.5 -63.167 33.5 -106.5c0 -54 -18.667 -99 -56 -135s-81.666 -54 -132.999 -54zM727.999 0c-60.667 -12.667 -120.499 -17.6689 -179.499 -15.002s-111.667 15.334 -158 38.001s-81.5 58 -105.5 106
c-19.333 40 -29.833 80.5 -31.5 121.5s-2.5 87.833 -2.5 140.5v989h146v-983c0 -45.333 0.5 -83.166 1.5 -113.499s7.83301 -57.166 20.5 -80.499c24 -44.667 62.167 -71.334 114.5 -80.001s117.166 -6.66699 194.499 6v-129zM20 953.998v126h708v-126h-708z" />
    <glyph glyph-name="Tcaron" unicode="&#x164;" horiz-adv-x="1193" 
d="M298 1880h150l147 -173l148 173h150l-230 -270h-136zM523 0v1299h-503v141h1153v-141h-503v-1299h-147z" />
    <glyph glyph-name="tcaron" unicode="&#x165;" horiz-adv-x="801" 
d="M728 0c-60.667 -12.667 -120.499 -17.6689 -179.499 -15.002s-111.667 15.334 -158 38.001s-81.5 58 -105.5 106c-19.333 40 -29.833 80.5 -31.5 121.5s-2.5 87.833 -2.5 140.5v989h146v-983c0 -45.333 0.5 -83.166 1.5 -113.499s7.83301 -57.166 20.5 -80.499
c24 -44.667 62.167 -71.334 114.5 -80.001s117.166 -6.66699 194.499 6v-129zM20.001 953.998v126h708v-126h-708zM619.001 1228l8.99902 73c26.667 -2 46 3.33301 58 16s19.333 29.667 22 51s3.33398 44.333 2.00098 69h-91v211h171v-251
c0 -61.333 -15.5 -107.333 -46.5 -138s-72.5 -41 -124.5 -31z" />
    <glyph glyph-name="Tbar" unicode="&#x166;" horiz-adv-x="1193" 
d="M157 647v146h880v-146h-880zM523 0v1299h-503v141h1153v-141h-503v-1299h-147z" />
    <glyph glyph-name="tbar" unicode="&#x167;" horiz-adv-x="841" 
d="M20 484v126h721v-126h-721zM728 0c-60.667 -12.667 -120.499 -17.6689 -179.499 -15.002s-111.667 15.334 -158 38.001s-81.5 58 -105.5 106c-19.333 40 -29.833 80.5 -31.5 121.5s-2.5 87.833 -2.5 140.5v989h146v-983c0 -45.333 0.5 -83.166 1.5 -113.499
s7.83301 -57.166 20.5 -80.499c24 -44.667 62.167 -71.334 114.5 -80.001s117.166 -6.66699 194.499 6v-129zM20.001 953.998v126h708v-126h-708z" />
    <glyph glyph-name="Utilde" unicode="&#x168;" horiz-adv-x="1404" 
d="M702 -30c-110 0 -207.169 22.666 -291.502 67.999s-150.5 109.333 -198.5 192s-72 179.334 -72 290.001v919l148 1v-901c0 -74.667 12.667 -139.167 38 -193.5s58.5 -99 99.5 -134s85.833 -60.833 134.5 -77.5s96 -25 142 -25c46.667 0 94.334 8.33301 143.001 25
s93.334 42.5 134.001 77.5s73.667 79.667 99 134s38 118.833 38 193.5v901h148v-920c0 -110.667 -24 -207.167 -72 -289.5s-114.167 -146.333 -198.5 -192s-181.5 -68.5 -291.5 -68.5zM861.998 1612c-28 0 -55.333 5.66602 -82 16.999s-52.5 24.5 -77.5 39.5
s-48.667 28.167 -71 39.5s-43.5 17 -63.5 17c-26 0 -42.5 -10.167 -49.5 -30.5s-6.83301 -42.166 0.5 -65.499h-104c-15.333 59.333 -9.5 109.833 17.5 151.5s69.833 62.5 128.5 62.5c28.667 0 56.334 -5.66699 83.001 -17s52.5 -24.5 77.5 -39.5s48.667 -28.167 71 -39.5
s43.5 -17 63.5 -17c23.333 0 39.5 10 48.5 30s9.16699 43 0.5 69h104c15.333 -58.667 9.66602 -109.5 -17.001 -152.5s-70 -64.5 -130 -64.5z" />
    <glyph glyph-name="utilde" unicode="&#x169;" 
d="M553 -27c-64.667 0 -121.167 10.002 -169.5 30.002s-89.333 47 -123 81s-60.834 72.833 -81.501 116.5s-35.667 90 -45 139s-14 97.833 -14 146.5v594h148v-551c0 -59.333 5.66699 -114.333 17 -165s29.5 -94.834 54.5 -132.501s57.333 -66.834 97 -87.501
s87.834 -31 144.501 -31c52 0 97.833 9 137.5 27s73 43.833 100 77.5s47.5 74.667 61.5 123s21 102.833 21 163.5l104 -23c0 -110.667 -19.333 -203.667 -58 -279s-92 -132.333 -160 -171s-146 -58 -234 -58zM916 0.00195312v266h-15v814h147v-1080h-132zM757 1252
c-28 0 -55.333 5.66602 -82 16.999s-52.5 24.5 -77.5 39.5s-48.667 28.167 -71 39.5s-43.5 17 -63.5 17c-26 0 -42.5 -10.167 -49.5 -30.5s-6.83301 -42.166 0.5 -65.499h-104c-15.333 59.333 -9.5 109.833 17.5 151.5s69.833 62.5 128.5 62.5
c28.667 0 56.334 -5.66699 83.001 -17s52.5 -24.5 77.5 -39.5s48.667 -28.167 71 -39.5s43.5 -17 63.5 -17c23.333 0 39.5 10 48.5 30s9.16699 43 0.5 69h104c15.333 -58.667 9.66602 -109.5 -17.001 -152.5s-70 -64.5 -130 -64.5z" />
    <glyph glyph-name="Umacron" unicode="&#x16a;" horiz-adv-x="1404" 
d="M451 1680v125h502v-125h-502zM702 -30c-110 0 -207.169 22.666 -291.502 67.999s-150.5 109.333 -198.5 192s-72 179.334 -72 290.001v919l148 1v-901c0 -74.667 12.667 -139.167 38 -193.5s58.5 -99 99.5 -134s85.833 -60.833 134.5 -77.5s96 -25 142 -25
c46.667 0 94.334 8.33301 143.001 25s93.334 42.5 134.001 77.5s73.667 79.667 99 134s38 118.833 38 193.5v901h148v-920c0 -110.667 -24 -207.167 -72 -289.5s-114.167 -146.333 -198.5 -192s-181.5 -68.5 -291.5 -68.5z" />
    <glyph glyph-name="umacron" unicode="&#x16b;" 
d="M333 1320v125h501v-125h-501zM553 -27c-64.667 0 -121.167 10.002 -169.5 30.002s-89.333 47 -123 81s-60.834 72.833 -81.501 116.5s-35.667 90 -45 139s-14 97.833 -14 146.5v594h148v-551c0 -59.333 5.66699 -114.333 17 -165s29.5 -94.834 54.5 -132.501
s57.333 -66.834 97 -87.501s87.834 -31 144.501 -31c52 0 97.833 9 137.5 27s73 43.833 100 77.5s47.5 74.667 61.5 123s21 102.833 21 163.5l104 -23c0 -110.667 -19.333 -203.667 -58 -279s-92 -132.333 -160 -171s-146 -58 -234 -58zM916 0.00195312v266h-15v814h147
v-1080h-132z" />
    <glyph glyph-name="Ubreve" unicode="&#x16c;" horiz-adv-x="1404" 
d="M702 1568c-47.333 0 -90.501 11.667 -129.501 35s-70.167 54.5 -93.5 93.5s-35 82.167 -35 129.5h122c0 -37.333 13.333 -69.333 40 -96s58.667 -40 96 -40c38 0 70.167 13.333 96.5 40s39.5 58.667 39.5 96h122c0 -47.333 -11.5 -90.5 -34.5 -129.5
s-54.167 -70.167 -93.5 -93.5s-82.666 -35 -129.999 -35zM701.999 -30c-110 0 -207.169 22.666 -291.502 67.999s-150.5 109.333 -198.5 192s-72 179.334 -72 290.001v919l148 1v-901c0 -74.667 12.667 -139.167 38 -193.5s58.5 -99 99.5 -134s85.833 -60.833 134.5 -77.5
s96 -25 142 -25c46.667 0 94.334 8.33301 143.001 25s93.334 42.5 134.001 77.5s73.667 79.667 99 134s38 118.833 38 193.5v901h148v-920c0 -110.667 -24 -207.167 -72 -289.5s-114.167 -146.333 -198.5 -192s-181.5 -68.5 -291.5 -68.5z" />
    <glyph glyph-name="ubreve" unicode="&#x16d;" 
d="M584 1208c-47.333 0 -90.668 11.667 -130.001 35s-70.5 54.5 -93.5 93.5s-34.5 82.167 -34.5 129.5h122c0 -37.333 13.333 -69.333 40 -96s58.667 -40 96 -40c38 0 70.167 13.333 96.5 40s39.5 58.667 39.5 96h122c0 -47.333 -11.5 -90.5 -34.5 -129.5
s-54.167 -70.167 -93.5 -93.5s-82.666 -35 -129.999 -35zM552.998 -27c-64.667 0 -121.167 10.002 -169.5 30.002s-89.333 47 -123 81s-60.834 72.833 -81.501 116.5s-35.667 90 -45 139s-14 97.833 -14 146.5v594h148v-551c0 -59.333 5.66699 -114.333 17 -165
s29.5 -94.834 54.5 -132.501s57.333 -66.834 97 -87.501s87.834 -31 144.501 -31c52 0 97.833 9 137.5 27s73 43.833 100 77.5s47.5 74.667 61.5 123s21 102.833 21 163.5l104 -23c0 -110.667 -19.333 -203.667 -58 -279s-92 -132.333 -160 -171s-146 -58 -234 -58z
M915.998 0.00195312v266h-15v814h147v-1080h-132z" />
    <glyph glyph-name="Uring" unicode="&#x16e;" horiz-adv-x="1404" 
d="M705 1557c-40 0 -76.667 9.83301 -110 29.5s-60 46 -80 79s-30 69.833 -30 110.5c0 40 10 76.667 30 110s46.667 59.833 80 79.5s70 29.5 110 29.5c40.667 0 77.5 -9.83301 110.5 -29.5s59.333 -46.167 79 -79.5s29.5 -70 29.5 -110
c0 -40.667 -9.83301 -77.5 -29.5 -110.5s-46 -59.333 -79 -79s-69.833 -29.5 -110.5 -29.5zM705 1666c30.667 0 56.667 10.833 78 32.5s32 47.5 32 77.5c0 30.667 -10.667 56.667 -32 78s-47.333 32 -78 32c-30 0 -55.833 -10.667 -77.5 -32s-32.5 -47.333 -32.5 -78
c0 -30 10.833 -55.833 32.5 -77.5s47.5 -32.5 77.5 -32.5zM702 -30c-110 0 -207.169 22.666 -291.502 67.999s-150.5 109.333 -198.5 192s-72 179.334 -72 290.001v919l148 1v-901c0 -74.667 12.667 -139.167 38 -193.5s58.5 -99 99.5 -134s85.833 -60.833 134.5 -77.5
s96 -25 142 -25c46.667 0 94.334 8.33301 143.001 25s93.334 42.5 134.001 77.5s73.667 79.667 99 134s38 118.833 38 193.5v901h148v-920c0 -110.667 -24 -207.167 -72 -289.5s-114.167 -146.333 -198.5 -192s-181.5 -68.5 -291.5 -68.5z" />
    <glyph glyph-name="uring" unicode="&#x16f;" 
d="M585 1197c-40 0 -76.667 9.83301 -110 29.5s-60 46 -80 79s-30 69.833 -30 110.5c0 40 10 76.667 30 110s46.667 59.833 80 79.5s70 29.5 110 29.5c40.667 0 77.5 -9.83301 110.5 -29.5s59.333 -46.167 79 -79.5s29.5 -70 29.5 -110
c0 -40.667 -9.83301 -77.5 -29.5 -110.5s-46 -59.333 -79 -79s-69.833 -29.5 -110.5 -29.5zM585 1306c30.667 0 56.667 10.833 78 32.5s32 47.5 32 77.5c0 30.667 -10.667 56.667 -32 78s-47.333 32 -78 32c-30 0 -55.833 -10.667 -77.5 -32s-32.5 -47.333 -32.5 -78
c0 -30 10.833 -55.833 32.5 -77.5s47.5 -32.5 77.5 -32.5zM553 -27c-64.667 0 -121.167 10.002 -169.5 30.002s-89.333 47 -123 81s-60.834 72.833 -81.501 116.5s-35.667 90 -45 139s-14 97.833 -14 146.5v594h148v-551c0 -59.333 5.66699 -114.333 17 -165
s29.5 -94.834 54.5 -132.501s57.333 -66.834 97 -87.501s87.834 -31 144.501 -31c52 0 97.833 9 137.5 27s73 43.833 100 77.5s47.5 74.667 61.5 123s21 102.833 21 163.5l104 -23c0 -110.667 -19.333 -203.667 -58 -279s-92 -132.333 -160 -171s-146 -58 -234 -58z
M916 0.00195312v266h-15v814h147v-1080h-132z" />
    <glyph glyph-name="Uhungarumlaut" unicode="&#x170;" horiz-adv-x="1404" 
d="M936 1610h-126l119 310h126zM561 1610h-126l119 310h126zM702 -30c-110 0 -207.169 22.666 -291.502 67.999s-150.5 109.333 -198.5 192s-72 179.334 -72 290.001v919l148 1v-901c0 -74.667 12.667 -139.167 38 -193.5s58.5 -99 99.5 -134s85.833 -60.833 134.5 -77.5
s96 -25 142 -25c46.667 0 94.334 8.33301 143.001 25s93.334 42.5 134.001 77.5s73.667 79.667 99 134s38 118.833 38 193.5v901h148v-920c0 -110.667 -24 -207.167 -72 -289.5s-114.167 -146.333 -198.5 -192s-181.5 -68.5 -291.5 -68.5z" />
    <glyph glyph-name="uhungarumlaut" unicode="&#x171;" 
d="M825 1250h-126l119 310h126zM450 1250h-126l120 310h126zM553 -27c-64.667 0 -121.167 10.002 -169.5 30.002s-89.333 47 -123 81s-60.834 72.833 -81.501 116.5s-35.667 90 -45 139s-14 97.833 -14 146.5v594h148v-551c0 -59.333 5.66699 -114.333 17 -165
s29.5 -94.834 54.5 -132.501s57.333 -66.834 97 -87.501s87.834 -31 144.501 -31c52 0 97.833 9 137.5 27s73 43.833 100 77.5s47.5 74.667 61.5 123s21 102.833 21 163.5l104 -23c0 -110.667 -19.333 -203.667 -58 -279s-92 -132.333 -160 -171s-146 -58 -234 -58z
M916 0.00195312v266h-15v814h147v-1080h-132z" />
    <glyph glyph-name="Uogonek" unicode="&#x172;" horiz-adv-x="1404" 
d="M702 -30c-110 0 -207.169 22.666 -291.502 67.999s-150.5 109.333 -198.5 192s-72 179.334 -72 290.001v919l148 1v-901c0 -74.667 12.667 -139.167 38 -193.5s58.5 -99 99.5 -134s85.833 -60.833 134.5 -77.5s96 -25 142 -25c46.667 0 94.334 8.33301 143.001 25
s93.334 42.5 134.001 77.5s73.667 79.667 99 134s38 118.833 38 193.5v901h148v-920c0 -110.667 -24 -207.167 -72 -289.5s-114.167 -146.333 -198.5 -192s-181.5 -68.5 -291.5 -68.5zM875.998 -415.001c-36 0 -68.3281 9.16797 -96.9951 27.501s-51.667 42.333 -69 72
s-26 61.5 -26 95.5c0 43.333 12.5 87.5 37.5 132.5s58.167 88.5 99.5 130.5s87.666 79.333 138.999 112l79 -88c-40.667 -24.667 -78.167 -53.167 -112.5 -85.5s-62 -65.5 -83 -99.5s-31.5 -65.333 -31.5 -94c0 -24.667 7.66699 -44.834 23 -60.501s33 -23.5 53 -23.5
c15.333 0 31.166 4.5 47.499 13.5s31.166 20.833 44.499 35.5l65 -79c-22.667 -29.333 -48.834 -51.5 -78.501 -66.5s-59.834 -22.5 -90.501 -22.5z" />
    <glyph glyph-name="uogonek" unicode="&#x173;" 
d="M885 -482c-36 0 -68.3281 9.16797 -96.9951 27.501s-51.667 42.333 -69 72s-26 61.5 -26 95.5c0 43.333 12.5 87.5 37.5 132.5s58.167 88.5 99.5 130.5s87.666 79.333 138.999 112l79 -88c-40.667 -24.667 -78.167 -53.167 -112.5 -85.5s-62 -65.5 -83 -99.5
s-31.5 -65.333 -31.5 -94c0 -24.667 7.66699 -44.834 23 -60.501s33 -23.5 53 -23.5c15.333 0 31.166 4.5 47.499 13.5s31.166 20.833 44.499 35.5l65 -79c-22.667 -29.333 -48.834 -51.5 -78.501 -66.5s-59.834 -22.5 -90.501 -22.5zM553.005 -26.999
c-64.667 0 -121.167 10.002 -169.5 30.002s-89.333 47 -123 81s-60.834 72.833 -81.501 116.5s-35.667 90 -45 139s-14 97.833 -14 146.5v594h148v-551c0 -59.333 5.66699 -114.333 17 -165s29.5 -94.834 54.5 -132.501s57.333 -66.834 97 -87.501s87.834 -31 144.501 -31
c52 0 97.833 9 137.5 27s73 43.833 100 77.5s47.5 74.667 61.5 123s21 102.833 21 163.5l104 -23c0 -110.667 -19.333 -203.667 -58 -279s-92 -132.333 -160 -171s-146 -58 -234 -58zM916.005 0.00292969v266h-15v814h147v-1080h-132z" />
    <glyph glyph-name="Wcircumflex" unicode="&#x174;" horiz-adv-x="1871" 
d="M638 1610l229 270h136l230 -270h-150l-148 173l-147 -173h-150zM449 0l-416 1440h153l337 -1189l335 1188l154 1l337 -1189l335 1189h154l-415 -1440h-148l-340 1181l-338 -1181h-148z" />
    <glyph glyph-name="wcircumflex" unicode="&#x175;" horiz-adv-x="1535" 
d="M469 1250l229 270h136l229 -270h-150l-147 173l-147 -173h-150zM370 0l-330 1081l147 -1l256 -839l257 839h134l257 -839l258 839h146l-330 -1080h-128l-270 860l-269 -860h-128z" />
    <glyph glyph-name="Ycircumflex" unicode="&#x176;" horiz-adv-x="1112" 
d="M258 1610l229 270h136l230 -270h-150l-148 173l-147 -173h-150zM483 0v603l-483 837h170l387 -669l385 669h170l-481 -837v-603h-148z" />
    <glyph glyph-name="ycircumflex" unicode="&#x177;" horiz-adv-x="1055" 
d="M245 1250l229 270h136l229 -270h-150l-147 173l-147 -173h-150zM294 -480l209 567l3 -168l-473 1161h156l388 -971h-64l358 971h150l-580 -1560h-147z" />
    <glyph glyph-name="Ydieresis" unicode="&#x178;" horiz-adv-x="1112" 
d="M667 1651v160h160v-160h-160zM286 1651v160h160v-160h-160zM483 0v603l-483 837h170l387 -669l385 669h170l-481 -837v-603h-148z" />
    <glyph glyph-name="Zacute" unicode="&#x179;" horiz-adv-x="1228" 
d="M669 1610h-126l120 310h126zM100 0v31l787 1268h-767v141h1008v-34l-783 -1266h776v-140h-1021z" />
    <glyph glyph-name="zacute" unicode="&#x17a;" horiz-adv-x="1059" 
d="M625 1250h-126l120 310h126zM40 0v31l697 912h-645v137h887v-34l-696 -909h658v-137h-901z" />
    <glyph glyph-name="Zdotaccent" unicode="&#x17b;" horiz-adv-x="1228" 
d="M574 1669v171h171v-171h-171zM100 0v31l787 1268h-767v141h1008v-34l-783 -1266h776v-140h-1021z" />
    <glyph glyph-name="zdotaccent" unicode="&#x17c;" horiz-adv-x="1059" 
d="M456 1309v171h171v-171h-171zM40 0v31l697 912h-645v137h887v-34l-696 -909h658v-137h-901z" />
    <glyph glyph-name="Zcaron" unicode="&#x17d;" horiz-adv-x="1228" 
d="M353 1880h150l147 -173l147 173h150l-229 -270h-136zM100 0v31l787 1268h-767v141h1008v-34l-783 -1266h776v-140h-1021z" />
    <glyph glyph-name="zcaron" unicode="&#x17e;" horiz-adv-x="1059" 
d="M254 1520h150l147 -173l148 173h150l-230 -270h-136zM40 0v31l697 912h-645v137h887v-34l-696 -909h658v-137h-901z" />
    <glyph glyph-name="florin" unicode="&#x192;" horiz-adv-x="1436" 
d="M321 -30c-38 0 -74.502 4 -109.502 12s-65.333 16.833 -91 26.5l-53.5 20.5l62 127c4.66699 -2 16.5 -6.66699 35.5 -14s41.667 -14.333 68 -21s53.5 -10 81.5 -10c26 0 52.333 4.83301 79 14.5s52 25.667 76 48s44.833 52 62.5 89s30.834 82.5 39.501 136.5l112 685
c8 51.333 21.667 97.5 41 138.5s43.166 77 71.499 108s59.5 56.833 93.5 77.5s70 36.167 108 46.5s76 15.5 114 15.5c40.667 0 79.167 -3.83301 115.5 -11.5s67 -16.5 92 -26.5s41.833 -17.667 50.5 -23l-69 -123c0.666992 0 -7.16602 3.5 -23.499 10.5
s-38.5 14.167 -66.5 21.5s-59 11 -93 11c-22.667 0 -48.167 -3 -76.5 -9s-56.666 -17 -84.999 -33s-53.166 -39.333 -74.499 -70s-36.333 -71 -45 -121l-118 -719c-13.333 -80.667 -34.333 -147.5 -63 -200.5s-61.834 -94.5 -99.501 -124.5s-77 -51.167 -118 -63.5
s-79.833 -18.5 -116.5 -18.5zM260.998 657v126h966v-126h-966z" />
    <glyph glyph-name="Ohorn" unicode="&#x1a0;" horiz-adv-x="1447" 
d="M1123 1623h122.997c8.66699 -54.667 7.83398 -103.334 -2.49902 -146.001s-35.166 -76.667 -74.499 -102c-31.333 -19.333 -71.666 -30.666 -120.999 -33.999s-96.333 8.66699 -141 36v72c33.333 -9.33301 61.333 -14.333 84 -15s44 4 64 14
c36 17.333 57.167 41.833 63.5 73.5s7.83301 65.5 4.5 101.5zM722.997 -30c-143.333 0 -264.333 31.833 -363 95.5s-173.334 151.834 -224.001 264.501s-76 242.667 -76 390s25.333 277.333 76 390s125.334 200.834 224.001 264.501s219.667 95.5 363 95.5
c144 0 265.167 -31.833 363.5 -95.5s173 -151.834 224 -264.501s76.5 -242.667 76.5 -390s-25.5 -277.333 -76.5 -390s-125.667 -200.834 -224 -264.501s-219.5 -95.5 -363.5 -95.5zM722.997 111c112.667 0 206.67 25.6689 282.003 77.002s131.833 122.833 169.5 214.5
s56.5 197.5 56.5 317.5s-18.833 225.667 -56.5 317s-94.167 162.666 -169.5 213.999s-169.333 77.333 -282 78c-112.667 0 -206.334 -25.667 -281.001 -77s-130.834 -122.833 -168.501 -214.5s-56.834 -197.5 -57.501 -317.5s17.833 -225.5 55.5 -316.5
s94.167 -162.333 169.5 -214s169.333 -77.834 282 -78.501z" />
    <glyph glyph-name="ohorn" unicode="&#x1a1;" horiz-adv-x="1183" 
d="M974 1260h122.999c8 -54.667 6.83301 -103.334 -3.5 -146.001s-34.833 -76.667 -73.5 -102c-31.333 -19.333 -71.666 -30.666 -120.999 -33.999s-96.333 8.66699 -141 36v72c33.333 -9.33301 61.333 -14.333 84 -15s44 4 64 14c36 17.333 57 41.833 63 73.5
s7.66699 65.5 5 101.5zM590.999 -30c-107.333 0 -198.995 24.334 -274.995 73.001s-134.333 116 -175 202s-61 184.667 -61 296c0 113.333 20.667 212.666 62 297.999s100.166 151.833 176.499 199.5s167.166 71.5 272.499 71.5c108 0 200.167 -24.167 276.5 -72.5
s134.666 -115.333 174.999 -201s60.5 -184.167 60.5 -295.5c0 -113.333 -20.333 -212.833 -61 -298.5s-99.334 -152.5 -176.001 -200.5s-168.334 -72 -275.001 -72zM591.004 111.001c120 0 209.333 39.832 268 119.499s88 183.167 88 310.5
c0 130.667 -29.5 234.667 -88.5 312s-148.167 116 -267.5 116c-80.667 0 -147.167 -18.167 -199.5 -54.5s-91.333 -86.666 -117 -150.999s-38.5 -138.5 -38.5 -222.5c0 -130 30 -234.167 90 -312.5s148.333 -117.5 265 -117.5z" />
    <glyph glyph-name="Uhorn" unicode="&#x1af;" horiz-adv-x="1404" 
d="M1337 1620l123.002 0.00195312c8 -54.667 6.83301 -103.167 -3.5 -145.5s-34.5 -76.166 -72.5 -101.499c-30.667 -20.667 -65.5 -31.834 -104.5 -33.501s-78.5 0.166016 -118.5 5.49902v95c14.667 0.666992 29.5 1 44.5 1s30.167 1.66699 45.5 5
c45.333 9.33301 71.666 31.166 78.999 65.499s9.66602 70.5 6.99902 108.5zM702.002 -29.998c-110 0 -207.169 22.666 -291.502 67.999s-150.5 109.333 -198.5 192s-72 179.334 -72 290.001v919l148 1v-901c0 -74.667 12.667 -139.167 38 -193.5s58.5 -99 99.5 -134
s85.833 -60.833 134.5 -77.5s96 -25 142 -25c46.667 0 94.334 8.33301 143.001 25s93.334 42.5 134.001 77.5s73.667 79.667 99 134s38 118.833 38 193.5v901h148v-920c0 -110.667 -24 -207.167 -72 -289.5s-114.167 -146.333 -198.5 -192s-181.5 -68.5 -291.5 -68.5z" />
    <glyph glyph-name="uhorn" unicode="&#x1b0;" 
d="M1101 1260l123.002 0.00195312c8 -54.667 6.83301 -103.167 -3.5 -145.5s-34.5 -76.166 -72.5 -101.499c-30.667 -20.667 -65.5 -31.834 -104.5 -33.501s-78.5 0.166016 -118.5 5.49902v95c14.667 0.666992 29.5 1 44.5 1s30.167 1.66699 45.5 5
c45.333 9.33301 71.666 31.166 78.999 65.499s9.66602 70.5 6.99902 108.5zM553.002 -26.998c-64.667 0 -121.167 10.002 -169.5 30.002s-89.333 47 -123 81s-60.834 72.833 -81.501 116.5s-35.667 90 -45 139s-14 97.833 -14 146.5v594h148v-551
c0 -59.333 5.66699 -114.333 17 -165s29.5 -94.834 54.5 -132.501s57.333 -66.834 97 -87.501s87.834 -31 144.501 -31c52 0 97.833 9 137.5 27s73 43.833 100 77.5s47.5 74.667 61.5 123s21 102.833 21 163.5l104 -23c0 -110.667 -19.333 -203.667 -58 -279
s-92 -132.333 -160 -171s-146 -58 -234 -58zM916.002 0.00390625v266h-15v814h147v-1080h-132z" />
    <glyph glyph-name="uni0218" unicode="&#x218;" horiz-adv-x="1233" 
d="M583 -550l-0.00195312 78c8 0 19.333 2.33301 34 7s27.834 13.5 39.501 26.5s16.834 31.5 15.501 55.5h-89v165h166v-165c0 -56 -17.333 -97.833 -52 -125.5s-72.667 -41.5 -114 -41.5zM639.998 -30c-100.667 0 -191.168 16.8389 -271.501 50.5059
s-146.666 81.5 -198.999 143.5s-86.5 135.667 -102.5 221l150 25c24 -93.333 74.667 -166.5 152 -219.5s169.666 -79.5 276.999 -79.5c70.667 0 134 11.167 190 33.5s100 54.166 132 95.499s48 90.333 48 147c0 37.333 -6.66699 69.166 -20 95.499s-31 48.166 -53 65.499
s-46 31.833 -72 43.5s-51.333 21.167 -76 28.5l-365 109c-44 12.667 -84.667 28.834 -122 48.501s-69.833 43.334 -97.5 71.001s-49.167 60.167 -64.5 97.5s-23 80 -23 128c0 81.333 21.333 151.666 64 210.999s101 105 175 137s158.333 47.667 253 47
c96 0 181.833 -17 257.5 -51s138.167 -82.5 187.5 -145.5s82 -137.5 98 -223.5l-154 -28c-10 62.667 -33 117 -69 163s-81.833 81.5 -137.5 106.5s-116.834 37.833 -183.501 38.5c-64.667 0 -122.167 -10.833 -172.5 -32.5s-90.166 -51.167 -119.499 -88.5s-44 -80 -44 -128
c0 -48.667 13.5 -87.667 40.5 -117s60.333 -52.333 100 -69s78.167 -30.334 115.5 -41.001l282 -83c29.333 -8 63.833 -19.5 103.5 -34.5s78.334 -36.333 116.001 -64s68.834 -63.834 93.501 -108.501s37 -101.334 37 -170.001c0 -66.667 -13.167 -126.334 -39.5 -179.001
s-63.333 -97 -111 -133s-103.334 -63.5 -167.001 -82.5s-133.167 -28.5 -208.5 -28.5z" />
    <glyph glyph-name="uni0219" unicode="&#x219;" horiz-adv-x="1050" 
d="M451 -550l-0.00195312 78c8 0 19.333 2.33301 34 7s27.834 13.5 39.501 26.5s16.834 31.5 15.501 55.5h-89v165h166v-165c0 -56 -17.333 -97.833 -52 -125.5s-72.667 -41.5 -114 -41.5zM542.998 -29c-126.667 0 -230.829 27.332 -312.496 81.999
s-131.834 130.667 -150.501 228l150 25c16 -61.333 52.5 -110.166 109.5 -146.499s127.5 -54.5 211.5 -54.5c82 0 146.667 17.167 194 51.5s71 81.166 71 140.499c0 33.333 -7.5 60.5 -22.5 81.5s-45.5 40.5 -91.5 58.5s-114.667 39.333 -206 64
c-98 26.667 -174.667 53.334 -230 80.001s-94.666 57.5 -117.999 92.5s-35 77.833 -35 128.5c0 61.333 17.333 115.166 52 161.499s82.667 82.333 144 108s132.666 38.5 213.999 38.5s154.166 -13.167 218.499 -39.5s116.166 -63.166 155.499 -110.499
s62.666 -102.333 69.999 -165l-150 -27c-10 63.333 -41.5 113.5 -94.5 150.5s-120.167 56.167 -201.5 57.5c-76.667 2 -139 -12.5 -187 -43.5s-72 -72.167 -72 -123.5c0 -28.667 8.66699 -53.167 26 -73.5s48.833 -39.5 94.5 -57.5s110.834 -37.667 195.501 -59
c99.333 -25.333 177.333 -52 234 -80s97 -61 121 -99s36 -85 36 -141c0 -102 -37.833 -182.167 -113.5 -240.5s-179.834 -87.5 -312.501 -87.5z" />
    <glyph glyph-name="uni021A" unicode="&#x21a;" horiz-adv-x="1193" 
d="M514 -550l-0.00292969 78c8 0 19.333 2.33301 34 7s27.834 13.5 39.501 26.5s16.834 31.5 15.501 55.5h-89v165h165v-165c0 -56 -17.167 -97.833 -51.5 -125.5s-72.166 -41.5 -113.499 -41.5zM522.997 0v1299h-503v141h1153v-141h-503v-1299h-147z" />
    <glyph glyph-name="uni021B" unicode="&#x21b;" horiz-adv-x="801" 
d="M335 -550l-0.000976562 78c8 0 19.333 2.33301 34 7s27.667 13.5 39 26.5s16.333 31.5 15 55.5h-88v165h165v-165c0 -56 -17.167 -97.833 -51.5 -125.5s-72.166 -41.5 -113.499 -41.5zM727.999 0c-60.667 -12.667 -120.499 -17.6689 -179.499 -15.002
s-111.667 15.334 -158 38.001s-81.5 58 -105.5 106c-19.333 40 -29.833 80.5 -31.5 121.5s-2.5 87.833 -2.5 140.5v989h146v-983c0 -45.333 0.5 -83.166 1.5 -113.499s7.83301 -57.166 20.5 -80.499c24 -44.667 62.167 -71.334 114.5 -80.001s117.166 -6.66699 194.499 6
v-129zM20 953.998v126h708v-126h-708z" />
    <glyph glyph-name="uni0259" unicode="&#x259;" horiz-adv-x="1169" 
d="M573 1110c104.667 0 195.668 -23.332 273.001 -69.999s137.166 -112.334 179.499 -197.001s63.5 -184 63.5 -298c0 -118 -21 -220 -63 -306s-101.167 -152.333 -177.5 -199s-166.5 -70 -270.5 -70c-106.667 0 -197.667 24.5 -273 73.5s-132.333 119.167 -171 210.5
s-56 200.333 -52 327h149v-52c2.66699 -139.333 33 -244.833 91 -316.5s142 -107.5 252 -107.5c116.667 0 205.667 37.667 267 113s92 182.666 92 321.999c0 136.667 -30.667 242.334 -92 317.001s-149 112 -263 112c-76.667 0 -144 -17.667 -202 -53
s-103.667 -87 -137 -155l-137 53c43.333 94.667 106.5 167.667 189.5 219s176.833 77 281.5 77zM985.001 581.001v-123h-825v123h825z" />
    <glyph glyph-name="circumflex" unicode="&#x2c6;" horiz-adv-x="1048" 
d="M225 1610l230 270h136l229 -270h-150l-147 173l-148 -173h-150z" />
    <glyph glyph-name="caron" unicode="&#x2c7;" horiz-adv-x="1032" 
d="M225 1880h150l148 -173l147 173h150l-229 -270h-136z" />
    <glyph glyph-name="breve" unicode="&#x2d8;" horiz-adv-x="996" 
d="M498 1568c-47.333 0 -90.668 11.667 -130.001 35s-70.5 54.5 -93.5 93.5s-34.5 82.167 -34.5 129.5h122c0 -37.333 13.333 -69.333 40 -96s58.667 -40 96 -40c38 0 70.167 13.333 96.5 40s39.5 58.667 39.5 96h122c0 -47.333 -11.5 -90.5 -34.5 -129.5
s-54.167 -70.167 -93.5 -93.5s-82.666 -35 -129.999 -35z" />
    <glyph glyph-name="dotaccent" unicode="&#x2d9;" horiz-adv-x="651" 
d="M240 1669v171h171v-171h-171z" />
    <glyph glyph-name="ring" unicode="&#x2da;" horiz-adv-x="964" 
d="M482 1557c-40 0 -76.667 9.83301 -110 29.5s-59.833 46 -79.5 79s-29.5 69.833 -29.5 110.5c0 40 9.83301 76.667 29.5 110s46.167 59.833 79.5 79.5s70 29.5 110 29.5c40.667 0 77.5 -9.83301 110.5 -29.5s59.333 -46.167 79 -79.5s29.5 -70 29.5 -110
c0 -40.667 -9.83301 -77.5 -29.5 -110.5s-46 -59.333 -79 -79s-69.833 -29.5 -110.5 -29.5zM482 1666c31.333 0 57.5 10.833 78.5 32.5s31.5 47.5 31.5 77.5c0 30.667 -10.5 56.667 -31.5 78s-47.167 32 -78.5 32c-30 0 -55.833 -10.667 -77.5 -32s-32.5 -47.333 -32.5 -78
c0 -30 10.833 -55.833 32.5 -77.5s47.5 -32.5 77.5 -32.5z" />
    <glyph glyph-name="ogonek" unicode="&#x2db;" horiz-adv-x="842" 
d="M431 -482c-36 0 -68.3281 9.16797 -96.9951 27.501s-51.667 42.333 -69 72s-26 61.5 -26 95.5c0 43.333 12.5 87.5 37.5 132.5s58.167 88.5 99.5 130.5s87.666 79.333 138.999 112l79 -88c-40.667 -24.667 -78.167 -53.167 -112.5 -85.5s-62 -65.5 -83 -99.5
s-31.5 -65.333 -31.5 -94c0 -24.667 7.66699 -44.834 23 -60.501s33 -23.5 53 -23.5c15.333 0 31.166 4.5 47.499 13.5s31.166 20.833 44.499 35.5l65 -79c-22.667 -29.333 -48.834 -51.5 -78.501 -66.5s-59.834 -22.5 -90.501 -22.5z" />
    <glyph glyph-name="tilde" unicode="&#x2dc;" horiz-adv-x="1080" 
d="M690 1612c-28 0 -55.333 5.66602 -82 16.999s-52.5 24.5 -77.5 39.5s-48.667 28.167 -71 39.5s-43.5 17 -63.5 17c-26 0 -42.5 -10.167 -49.5 -30.5s-6.83301 -42.166 0.5 -65.499h-104c-15.333 59.333 -9.5 109.833 17.5 151.5s69.833 62.5 128.5 62.5
c28.667 0 56.334 -5.66699 83.001 -17s52.5 -24.5 77.5 -39.5s48.667 -28.167 71 -39.5s43.5 -17 63.5 -17c23.333 0 39.5 10 48.5 30s9.16699 43 0.5 69h104c15.333 -58.667 9.66602 -109.5 -17.001 -152.5s-70 -64.5 -130 -64.5z" />
    <glyph glyph-name="hungarumlaut" unicode="&#x2dd;" horiz-adv-x="1061" 
d="M716 1610h-126l119 310h126zM341 1610h-126l120 310h126z" />
    <glyph glyph-name="uni0374" unicode="&#x374;" horiz-adv-x="525" 
d="M246 1130h-126l119 310h126z" />
    <glyph glyph-name="uni0375" unicode="&#x375;" horiz-adv-x="525" 
d="M246 -422h-126l119 310h126z" />
    <glyph glyph-name="uni037E" unicode="&#x37e;" horiz-adv-x="611" 
d="M220 -209l8.99902 73c26.667 -2 46 3.33301 58 16s19.333 29.667 22 51s3.33398 44.333 2.00098 69h-91v211h171v-251c0 -61.333 -15.5 -107.333 -46.5 -138s-72.5 -41 -124.5 -31zM219.999 909v171h171v-171h-171z" />
    <glyph glyph-name="tonos" unicode="&#x384;" horiz-adv-x="1200" 
d="M593 1130h-126l119 310h126z" />
    <glyph glyph-name="dieresistonos" unicode="&#x385;" horiz-adv-x="1200" 
d="M784 1290v160h150v-160h-150zM267 1290v160h150v-160h-150zM619 1250h-126l119 310h126z" />
    <glyph glyph-name="Alphatonos" unicode="&#x386;" horiz-adv-x="1279" 
d="M51 0l496 1440h195l496 -1440h-153l-471 1358h58l-468 -1358h-153zM272 349v138h744v-138h-744zM232 1130h-126l119 310h126z" />
    <glyph glyph-name="anoteleia" unicode="&#x387;" horiz-adv-x="1200" 
d="M229 523c-30 0 -55.667 10.167 -77 30.5s-32 45.833 -32 76.5s10.667 56.167 32 76.5s47 30.5 77 30.5c28.667 0 53.167 -10.167 73.5 -30.5s30.5 -45.833 30.5 -76.5s-10.167 -56.167 -30.5 -76.5s-44.833 -30.5 -73.5 -30.5z" />
    <glyph glyph-name="Epsilontonos" unicode="&#x388;" horiz-adv-x="1416" 
d="M416 0v1440h900v-141h-753v-498h633v-141h-633v-519h753v-141h-900zM164 1130h-126l119 310h126z" />
    <glyph glyph-name="Etatonos" unicode="&#x389;" horiz-adv-x="1637" 
d="M408 0v1440h147v-649h796v649h146v-1440h-146v650h-796v-650h-147zM156 1130h-126l119 310h126z" />
    <glyph glyph-name="Iotatonos" unicode="&#x38a;" horiz-adv-x="692" 
d="M405 0v1440h147v-1440h-147zM156 1130h-126l119 310h126z" />
    <glyph glyph-name="Omicrontonos" unicode="&#x38c;" horiz-adv-x="1641" 
d="M918 -30c-143.333 0 -264.333 31.833 -363 95.5s-173.334 151.834 -224.001 264.501s-76 242.667 -76 390s25.333 277.333 76 390s125.334 200.834 224.001 264.501s219.667 95.5 363 95.5c144 0 265.167 -31.833 363.5 -95.5s173 -151.834 224 -264.501
s76.5 -242.667 76.5 -390s-25.5 -277.333 -76.5 -390s-125.667 -200.834 -224 -264.501s-219.5 -95.5 -363.5 -95.5zM918 111c112.667 0 206.67 25.6689 282.003 77.002s131.833 122.833 169.5 214.5s56.5 197.5 56.5 317.5s-18.833 225.667 -56.5 317
s-94.167 162.666 -169.5 213.999s-169.333 77.333 -282 78c-112.667 0 -206.334 -25.667 -281.001 -77s-130.834 -122.833 -168.501 -214.5s-56.834 -197.5 -57.501 -317.5s17.833 -225.5 55.5 -316.5s94.167 -162.333 169.5 -214s169.333 -77.834 282 -78.501z
M176.003 1130h-126l119 310h126z" />
    <glyph glyph-name="Upsilontonos" unicode="&#x38e;" horiz-adv-x="1488" 
d="M859 0v603l-483 837h170l387 -669l385 669h170l-481 -837v-603h-148zM190 1130h-126l119 310h126z" />
    <glyph glyph-name="Omegatonos" unicode="&#x38f;" horiz-adv-x="1670" 
d="M264 0l0.00292969 141h271c-84.667 68 -152.167 154 -202.5 258s-75.5 222.667 -75.5 356c0 100.667 15.167 194.334 45.5 281.001s74.166 162.334 131.499 227.001s126.833 115.167 208.5 151.5s174.167 54.5 277.5 54.5s196 -18.167 278 -54.5
s151.667 -86.833 209 -151.5s101.166 -140.334 131.499 -227.001s45.5 -180.334 45.5 -281.001c0 -133.333 -25 -252 -75 -356s-117.667 -190 -203 -258h270v-141h-472l1 141c48 24.667 96.5 63.5 145.5 116.5s90.167 118.5 123.5 196.5s51.333 167.333 54 268
c1.33301 82 -9.16699 159.333 -31.5 232s-55.5 137 -99.5 193s-97.667 100 -161 132s-135.333 48 -216 48c-79.333 0 -150.333 -15.833 -213 -47.5s-115.834 -75.167 -159.501 -130.5s-77 -119 -100 -191s-34.5 -148.333 -34.5 -229c0 -78.667 10 -150 30 -214
s46.333 -120.833 79 -170.5s68 -91.5 106 -125.5s74.667 -60 110 -78v-141h-474zM182.003 1130h-126l119 310h126z" />
    <glyph glyph-name="iotadieresistonos" unicode="&#x390;" horiz-adv-x="777" 
d="M472 -9c-44 6 -84.168 19.334 -120.501 40.001s-66.166 52.667 -89.499 96c-20.667 39.333 -31.834 79.333 -33.501 120s-2.5 88.667 -2.5 144v689h147v-683c0 -46 0.333008 -83.667 1 -113s7.66699 -57 21 -83c14.667 -26 33 -45 55 -57s47 -19.667 75 -23
c28.667 -2.66699 58.834 -3.33398 90.501 -2.00098s61.167 4.66602 88.5 9.99902v-129c-24 -6 -49.833 -10.167 -77.5 -12.5s-55 -3.16602 -82 -2.49902s-51.167 2.66699 -72.5 6zM514.999 1290v160h150v-160h-150zM-2.00098 1290v160h150v-160h-150zM349.999 1250h-126
l119 310h126z" />
    <glyph glyph-name="Alpha" unicode="&#x391;" horiz-adv-x="1267" 
d="M40 0l496 1440h195l496 -1440h-153l-471 1358h58l-468 -1358h-153zM261 349v138h744v-138h-744z" />
    <glyph glyph-name="Beta" unicode="&#x392;" horiz-adv-x="1226" 
d="M140 0v1440h556c80.667 0 151 -16.667 211 -50s106.667 -78.166 140 -134.499s50 -118.5 50 -186.5c0 -77.333 -20.667 -146.166 -62 -206.499s-96.666 -102.166 -165.999 -125.499l-2 49c93.333 -26.667 166.666 -73.334 219.999 -140.001s80 -147.334 80 -242.001
c0 -83.333 -17.667 -155.166 -53 -215.499s-85 -106.833 -149 -139.5s-138.333 -49 -223 -49h-602zM288 140.998l417.999 -0.00195312c58.667 0 111.334 10.5 158.001 31.5s83.5 50.833 110.5 89.5s40.5 85.334 40.5 140.001c0 53.333 -12.333 101.333 -37 144
s-58.167 76.834 -100.5 102.501s-90.5 38.5 -144.5 38.5h-445v-546zM287.999 825.996h407c46 0 88 10.5 126 31.5s68.167 49.833 90.5 86.5s33.5 79 33.5 127c0 68 -23.5 123.333 -70.5 166s-106.833 64 -179.5 64h-407v-475z" />
    <glyph glyph-name="Gamma" unicode="&#x393;" horiz-adv-x="1060" 
d="M140 0v1440h900v-141h-753v-1299h-147z" />
    <glyph glyph-name="uni0394" unicode="&#x394;" horiz-adv-x="1267" 
d="M150 0v141h969v-141h-969zM536 1440h195l496 -1440h-153l-442 1273l-439 -1273h-153z" />
    <glyph glyph-name="Epsilon" unicode="&#x395;" horiz-adv-x="1140" 
d="M140 0v1440h900v-141h-753v-498h633v-141h-633v-519h753v-141h-900z" />
    <glyph glyph-name="Zeta" unicode="&#x396;" horiz-adv-x="1228" 
d="M100 0v31l787 1268h-767v141h1008v-34l-783 -1266h776v-140h-1021z" />
    <glyph glyph-name="Eta" unicode="&#x397;" horiz-adv-x="1369" 
d="M140 0v1440h147v-649h796v649h146v-1440h-146v650h-796v-650h-147z" />
    <glyph glyph-name="Theta" unicode="&#x398;" horiz-adv-x="1447" 
d="M473 657v126h501v-126h-501zM723 -30c-143.333 0 -264.333 31.833 -363 95.5s-173.334 151.834 -224.001 264.501s-76 242.667 -76 390s25.333 277.333 76 390s125.334 200.834 224.001 264.501s219.667 95.5 363 95.5c144 0 265.167 -31.833 363.5 -95.5
s173 -151.834 224 -264.501s76.5 -242.667 76.5 -390s-25.5 -277.333 -76.5 -390s-125.667 -200.834 -224 -264.501s-219.5 -95.5 -363.5 -95.5zM723 111c112.667 0 206.67 25.6689 282.003 77.002s131.833 122.833 169.5 214.5s56.5 197.5 56.5 317.5
s-18.833 225.667 -56.5 317s-94.167 162.666 -169.5 213.999s-169.333 77.333 -282 78c-112.667 0 -206.334 -25.667 -281.001 -77s-130.834 -122.833 -168.501 -214.5s-56.834 -197.5 -57.501 -317.5s17.833 -225.5 55.5 -316.5s94.167 -162.333 169.5 -214
s169.333 -77.834 282 -78.501z" />
    <glyph glyph-name="Iota" unicode="&#x399;" horiz-adv-x="467" 
d="M160 0v1440h147v-1440h-147z" />
    </font>
</defs>
</svg>
